ISO-10303-21;
HEADER;
FILE_DESCRIPTION(('Open CASCADE Model'),'2;1');
FILE_NAME('Open CASCADE Shape Model','2026-09-01T21:09:39',('Author'),(
    'Open CASCADE'),'Open CASCADE STEP processor 7.8','Open CASCADE 7.8'
  ,'Unknown');
FILE_SCHEMA(('AUTOMOTIVE_DESIGN { 1 0 10303 214 1 1 1 1 }'));
ENDSEC;
DATA;
#1 = APPLICATION_PROTOCOL_DEFINITION('international standard',
  'automotive_design',2000,#2);
#2 = APPLICATION_CONTEXT(
  'core data for automotive mechanical design processes');
#3 = SHAPE_DEFINITION_REPRESENTATION(#4,#10);
#4 = PRODUCT_DEFINITION_SHAPE('','',#5);
#5 = PRODUCT_DEFINITION('design','',#6,#9);
#6 = PRODUCT_DEFINITION_FORMATION('','',#7);
#7 = PRODUCT('Open CASCADE STEP translator 7.8 1',
  'Open CASCADE STEP translator 7.8 1','',(#8));
#8 = PRODUCT_CONTEXT('',#2,'mechanical');
#9 = PRODUCT_DEFINITION_CONTEXT('part definition',#2,'design');
#10 = ADVANCED_BREP_SHAPE_REPRESENTATION('',(#11,#15),#789);
#11 = AXIS2_PLACEMENT_3D('',#12,#13,#14);
#12 = CARTESIAN_POINT('',(0.,0.,0.));
#13 = DIRECTION('',(0.,0.,1.));
#14 = DIRECTION('',(1.,0.,-0.));
#15 = MANIFOLD_SOLID_BREP('',#16);
#16 = CLOSED_SHELL('',(#17,#540,#642,#648,#750,#776,#781,#785));
#17 = ADVANCED_FACE('',(#18),#46,.T.);
#18 = FACE_BOUND('',#19,.T.);
#19 = EDGE_LOOP('',(#20,#97,#120,#235,#269,#298,#327,#435,#436,#486));
#20 = ORIENTED_EDGE('',*,*,#21,.T.);
#21 = EDGE_CURVE('',#22,#24,#26,.T.);
#22 = VERTEX_POINT('',#23);
#23 = CARTESIAN_POINT('',(-186.,102.46425663959,-10.68562320629));
#24 = VERTEX_POINT('',#25);
#25 = CARTESIAN_POINT('',(-185.1395407219,102.00031092692,
    -8.070531795267));
#26 = SURFACE_CURVE('',#27,(#45,#71),.PCURVE_S1.);
#27 = B_SPLINE_CURVE_WITH_KNOTS('',6,(#28,#29,#30,#31,#32,#33,#34,#35,
    #36,#37,#38,#39,#40,#41,#42,#43,#44),.UNSPECIFIED.,.F.,.F.,(7,5,5,7)
  ,(0.,0.423117843468,0.615385089848,1.),.UNSPECIFIED.);
#28 = CARTESIAN_POINT('',(-186.0000006,102.464256911,-10.68562396785));
#29 = CARTESIAN_POINT('',(-185.8949448683,102.41673531777,
    -10.55228046105));
#30 = CARTESIAN_POINT('',(-185.7938875227,102.36931610779,
    -10.41027048783));
#31 = CARTESIAN_POINT('',(-185.6977898436,102.32255024862,
    -10.25921146966));
#32 = CARTESIAN_POINT('',(-185.6076714247,102.27710307206,
    -10.09875971433));
#33 = CARTESIAN_POINT('',(-185.5246412816,102.2337777436,-9.928666010986
    ));
#34 = CARTESIAN_POINT('',(-185.4159831386,102.1751863444,-9.667124357898
    ));
#35 = CARTESIAN_POINT('',(-185.3837681385,102.1575164069,-9.583437196907
    ));
#36 = CARTESIAN_POINT('',(-185.3534276627,102.14058275642,
    -9.497840230871));
#37 = CARTESIAN_POINT('',(-185.3250949775,102.12448511036,
    -9.410407155485));
#38 = CARTESIAN_POINT('',(-185.2988957351,102.10932051853,
    -9.321222616288));
#39 = CARTESIAN_POINT('',(-185.2270428608,102.06689681547,
    -9.048663687368));
#40 = CARTESIAN_POINT('',(-185.1880704637,102.0426698366,-8.860026290055
    ));
#41 = CARTESIAN_POINT('',(-185.1592541016,102.02339400748,
    -8.666034551758));
#42 = CARTESIAN_POINT('',(-185.1413887089,102.00974869908,
    -8.468490244628));
#43 = CARTESIAN_POINT('',(-185.1348417048,102.00206373488,
    -8.269334599377));
#44 = CARTESIAN_POINT('',(-185.1395407219,102.00031092692,
    -8.070531795267));
#45 = PCURVE('',#46,#51);
#46 = CYLINDRICAL_SURFACE('',#47,5.);
#47 = AXIS2_PLACEMENT_3D('',#48,#49,#50);
#48 = CARTESIAN_POINT('',(-178.,110.,-8.));
#49 = DIRECTION('',(-0.936913036423,-0.349483434221,-7.435817749389E-03)
  );
#50 = DIRECTION('',(0.349493096334,-0.936938939107,0.));
#51 = DEFINITIONAL_REPRESENTATION('',(#52),#70);
#52 = B_SPLINE_CURVE_WITH_KNOTS('',6,(#53,#54,#55,#56,#57,#58,#59,#60,
    #61,#62,#63,#64,#65,#66,#67,#68,#69),.UNSPECIFIED.,.F.,.F.,(7,5,5,7)
  ,(0.,0.423117843468,0.615385089848,1.),.UNSPECIFIED.);
#53 = CARTESIAN_POINT('',(5.733937094935,10.14889203805));
#54 = CARTESIAN_POINT('',(5.765061194571,10.066080445141));
#55 = CARTESIAN_POINT('',(5.797512394491,9.986914768681));
#56 = CARTESIAN_POINT('',(5.831322168177,9.912100246108));
#57 = CARTESIAN_POINT('',(5.866525104554,9.842357069934));
#58 = CARTESIAN_POINT('',(5.903154072709,9.778441745223));
#59 = CARTESIAN_POINT('',(5.95854702308,9.695170461875));
#60 = CARTESIAN_POINT('',(5.976146715799,9.670540876304));
#61 = CARTESIAN_POINT('',(5.994027468026,9.647396035893));
#62 = CARTESIAN_POINT('',(6.012177061592,9.625826497973));
#63 = CARTESIAN_POINT('',(6.03058302826,9.605916699882));
#64 = CARTESIAN_POINT('',(6.086539626575,9.551396488171));
#65 = CARTESIAN_POINT('',(6.124881716136,9.521946995656));
#66 = CARTESIAN_POINT('',(6.16399041294,9.500242666156));
#67 = CARTESIAN_POINT('',(6.203593463808,9.4868042526));
#68 = CARTESIAN_POINT('',(6.24341838703,9.48187516171));
#69 = CARTESIAN_POINT('',(6.28318530718,9.485412047998));
#70 = ( GEOMETRIC_REPRESENTATION_CONTEXT(2) 
PARAMETRIC_REPRESENTATION_CONTEXT() REPRESENTATION_CONTEXT('2D SPACE',''
  ) );
#71 = PCURVE('',#72,#77);
#72 = CYLINDRICAL_SURFACE('',#73,8.);
#73 = AXIS2_PLACEMENT_3D('',#74,#75,#76);
#74 = CARTESIAN_POINT('',(-170.,110.,-8.));
#75 = DIRECTION('',(-1.,0.,0.));
#76 = DIRECTION('',(0.,0.,-1.));
#77 = DEFINITIONAL_REPRESENTATION('',(#78),#96);
#78 = B_SPLINE_CURVE_WITH_KNOTS('',6,(#79,#80,#81,#82,#83,#84,#85,#86,
    #87,#88,#89,#90,#91,#92,#93,#94,#95),.UNSPECIFIED.,.F.,.F.,(7,5,5,7)
  ,(0.,0.423117843468,0.615385089848,1.),.UNSPECIFIED.);
#79 = CARTESIAN_POINT('',(1.228444890168,16.0000006));
#80 = CARTESIAN_POINT('',(1.246139695475,15.894944868387));
#81 = CARTESIAN_POINT('',(1.264850643701,15.793887522773));
#82 = CARTESIAN_POINT('',(1.284609650797,15.697789843683));
#83 = CARTESIAN_POINT('',(1.305444910309,15.607671424768));
#84 = CARTESIAN_POINT('',(1.327376264463,15.524641281641));
#85 = CARTESIAN_POINT('',(1.360879293328,15.41598313864));
#86 = CARTESIAN_POINT('',(1.371570018372,15.383768138572));
#87 = CARTESIAN_POINT('',(1.382475636402,15.353427662785));
#88 = CARTESIAN_POINT('',(1.393586946975,15.32509497757));
#89 = CARTESIAN_POINT('',(1.40489391261,15.298895735178));
#90 = CARTESIAN_POINT('',(1.439374011108,15.227042860887));
#91 = CARTESIAN_POINT('',(1.46313891003,15.188070463701));
#92 = CARTESIAN_POINT('',(1.487491762448,15.15925410167));
#93 = CARTESIAN_POINT('',(1.512226454124,15.14138870896));
#94 = CARTESIAN_POINT('',(1.537128421783,15.134841704863));
#95 = CARTESIAN_POINT('',(1.561979738165,15.139540721945));
#96 = ( GEOMETRIC_REPRESENTATION_CONTEXT(2) 
PARAMETRIC_REPRESENTATION_CONTEXT() REPRESENTATION_CONTEXT('2D SPACE',''
  ) );
#97 = ORIENTED_EDGE('',*,*,#98,.T.);
#98 = EDGE_CURVE('',#24,#99,#101,.T.);
#99 = VERTEX_POINT('',#100);
#100 = CARTESIAN_POINT('',(-422.0001538983,13.64754251986,
    -9.950377931587));
#101 = SEAM_CURVE('',#102,(#106,#113),.PCURVE_S1.);
#102 = LINE('',#103,#104);
#103 = CARTESIAN_POINT('',(-176.2525345183,105.31530530446,-8.));
#104 = VECTOR('',#105,1.);
#105 = DIRECTION('',(-0.936913036423,-0.349483434221,-7.435817749389E-03
    ));
#106 = PCURVE('',#46,#107);
#107 = DEFINITIONAL_REPRESENTATION('',(#108),#112);
#108 = LINE('',#109,#110);
#109 = CARTESIAN_POINT('',(0.,-0.));
#110 = VECTOR('',#111,1.);
#111 = DIRECTION('',(0.,1.));
#112 = ( GEOMETRIC_REPRESENTATION_CONTEXT(2) 
PARAMETRIC_REPRESENTATION_CONTEXT() REPRESENTATION_CONTEXT('2D SPACE',''
  ) );
#113 = PCURVE('',#46,#114);
#114 = DEFINITIONAL_REPRESENTATION('',(#115),#119);
#115 = LINE('',#116,#117);
#116 = CARTESIAN_POINT('',(6.28318530718,-0.));
#117 = VECTOR('',#118,1.);
#118 = DIRECTION('',(0.,1.));
#119 = ( GEOMETRIC_REPRESENTATION_CONTEXT(2) 
PARAMETRIC_REPRESENTATION_CONTEXT() REPRESENTATION_CONTEXT('2D SPACE',''
  ) );
#120 = ORIENTED_EDGE('',*,*,#121,.F.);
#121 = EDGE_CURVE('',#122,#99,#124,.T.);
#122 = VERTEX_POINT('',#123);
#123 = CARTESIAN_POINT('',(-423.5390542475,20.,-14.71764559754));
#124 = SURFACE_CURVE('',#125,(#158,#194),.PCURVE_S1.);
#125 = B_SPLINE_CURVE_WITH_KNOTS('',7,(#126,#127,#128,#129,#130,#131,
    #132,#133,#134,#135,#136,#137,#138,#139,#140,#141,#142,#143,#144,
    #145,#146,#147,#148,#149,#150,#151,#152,#153,#154,#155,#156,#157),
  .UNSPECIFIED.,.F.,.F.,(8,6,6,6,6,8),(0.,0.232232816272,0.350601233028,
    0.675716955405,0.825351100416,1.),.UNSPECIFIED.);
#126 = CARTESIAN_POINT('',(-423.5390541272,20.0000006,-14.7176454328));
#127 = CARTESIAN_POINT('',(-423.5908627458,19.741581244166,
    -14.78859876854));
#128 = CARTESIAN_POINT('',(-423.6356639175,19.478957212303,
    -14.84804608369));
#129 = CARTESIAN_POINT('',(-423.6722650234,19.212639871188,
    -14.89540597775));
#130 = CARTESIAN_POINT('',(-423.6994397425,18.943114817661,
    -14.9299552434));
#131 = CARTESIAN_POINT('',(-423.7159533552,18.670838140398,
    -14.95079626092));
#132 = CARTESIAN_POINT('',(-423.7206247145,18.396240228643,
    -14.95677535357));
#133 = CARTESIAN_POINT('',(-423.7082454502,17.978804271004,
    -14.9410394026));
#134 = CARTESIAN_POINT('',(-423.7007252035,17.837472526971,
    -14.93146907418));
#135 = CARTESIAN_POINT('',(-423.6897403579,17.695962353982,
    -14.91745332111));
#136 = CARTESIAN_POINT('',(-423.6752024725,17.554483934108,
    -14.89880846772));
#137 = CARTESIAN_POINT('',(-423.6570608025,17.413237651769,
    -14.8753518456));
#138 = CARTESIAN_POINT('',(-423.6353046508,17.272414572176,
    -14.84689867895));
#139 = CARTESIAN_POINT('',(-423.5403687396,16.747069158521,
    -14.7208627164));
#140 = CARTESIAN_POINT('',(-423.4440275462,16.368095387017,
    -14.58971830241));
#141 = CARTESIAN_POINT('',(-423.3221602696,15.99990737889,
    -14.41669037509));
#142 = CARTESIAN_POINT('',(-423.1787169214,15.646882350095,
    -14.1990948072));
#143 = CARTESIAN_POINT('',(-423.0207436417,15.313833730607,
    -13.93498636441));
#144 = CARTESIAN_POINT('',(-422.857370521,15.006236971316,
    -13.62413669844));
#145 = CARTESIAN_POINT('',(-422.6251120925,14.602684641686,
    -13.10533818696));
#146 = CARTESIAN_POINT('',(-422.552636523,14.481785005589,
    -12.93199368244));
#147 = CARTESIAN_POINT('',(-422.4818307913,14.367775890354,
    -12.74892592186));
#148 = CARTESIAN_POINT('',(-422.4136684655,14.261263422905,
    -12.55631297125));
#149 = CARTESIAN_POINT('',(-422.3491358698,14.162869597978,
    -12.35441084158));
#150 = CARTESIAN_POINT('',(-422.2892122536,14.073238443103,
    -12.14355698921));
#151 = CARTESIAN_POINT('',(-422.1713997737,13.89943929319,
    -11.66811575061));
#152 = CARTESIAN_POINT('',(-422.1153850512,13.818481873332,
    -11.39987002996));
#153 = CARTESIAN_POINT('',(-422.0687110233,13.751825698621,
    -11.12133868011));
#154 = CARTESIAN_POINT('',(-422.0329642384,13.700709648305,
    -10.83469760139));
#155 = CARTESIAN_POINT('',(-422.0092884325,13.666003772444,
    -10.54232075693));
#156 = CARTESIAN_POINT('',(-421.9983158333,13.648228147286,
    -10.24670248446));
#157 = CARTESIAN_POINT('',(-422.0001538983,13.64754251986,
    -9.950377931587));
#158 = PCURVE('',#46,#159);
#159 = DEFINITIONAL_REPRESENTATION('',(#160),#193);
#160 = B_SPLINE_CURVE_WITH_KNOTS('',7,(#161,#162,#163,#164,#165,#166,
    #167,#168,#169,#170,#171,#172,#173,#174,#175,#176,#177,#178,#179,
    #180,#181,#182,#183,#184,#185,#186,#187,#188,#189,#190,#191,#192),
  .UNSPECIFIED.,.F.,.F.,(8,6,6,6,6,8),(0.,0.232232816272,0.350601233028,
    0.675716955405,0.825351100416,1.),.UNSPECIFIED.);
#161 = CARTESIAN_POINT('',(4.409854990741,261.55220082017));
#162 = CARTESIAN_POINT('',(4.45678983713,261.69158187032));
#163 = CARTESIAN_POINT('',(4.504261129502,261.82578146007));
#164 = CARTESIAN_POINT('',(4.552391229722,261.95349917189));
#165 = CARTESIAN_POINT('',(4.601320045734,262.07341096378));
#166 = CARTESIAN_POINT('',(4.651208300587,262.18419394109));
#167 = CARTESIAN_POINT('',(4.702248208111,262.28458247917));
#168 = CARTESIAN_POINT('',(4.781406685577,262.41875412745));
#169 = CARTESIAN_POINT('',(4.808475596958,262.46103025035));
#170 = CARTESIAN_POINT('',(4.835888494328,262.5000896479));
#171 = CARTESIAN_POINT('',(4.863648439096,262.53577463794));
#172 = CARTESIAN_POINT('',(4.89176152536,262.56796628744));
#173 = CARTESIAN_POINT('',(4.920237056135,262.5965864262));
#174 = CARTESIAN_POINT('',(5.028330177553,262.69030207219));
#175 = CARTESIAN_POINT('',(5.110076563568,262.73150864134));
#176 = CARTESIAN_POINT('',(5.194360108121,262.74471860656));
#177 = CARTESIAN_POINT('',(5.281284810053,262.73208306212));
#178 = CARTESIAN_POINT('',(5.370890316257,262.69850695));
#179 = CARTESIAN_POINT('',(5.463170113582,262.65062909376));
#180 = CARTESIAN_POINT('',(5.60165932849,262.57020030719));
#181 = CARTESIAN_POINT('',(5.645962077223,262.54326046312));
#182 = CARTESIAN_POINT('',(5.69092136208,262.51540468865));
#183 = CARTESIAN_POINT('',(5.736544725991,262.48733462521));
#184 = CARTESIAN_POINT('',(5.782844531726,262.45975889942));
#185 = CARTESIAN_POINT('',(5.82983878093,262.43337241516));
#186 = CARTESIAN_POINT('',(5.933241425211,262.38019699631));
#187 = CARTESIAN_POINT('',(5.990033913521,262.35401472333));
#188 = CARTESIAN_POINT('',(6.047688734876,262.33150933867));
#189 = CARTESIAN_POINT('',(6.106004274578,262.31375051185));
#190 = CARTESIAN_POINT('',(6.164803168854,262.30152340838));
#191 = CARTESIAN_POINT('',(6.223919117564,262.29525716008));
#192 = CARTESIAN_POINT('',(6.28318530718,262.29501546722));
#193 = ( GEOMETRIC_REPRESENTATION_CONTEXT(2) 
PARAMETRIC_REPRESENTATION_CONTEXT() REPRESENTATION_CONTEXT('2D SPACE',''
  ) );
#194 = PCURVE('',#195,#200);
#195 = CYLINDRICAL_SURFACE('',#196,8.);
#196 = AXIS2_PLACEMENT_3D('',#197,#198,#199);
#197 = CARTESIAN_POINT('',(-430.,20.,-10.));
#198 = DIRECTION('',(0.,-1.,0.));
#199 = DIRECTION('',(0.,-0.,-1.));
#200 = DEFINITIONAL_REPRESENTATION('',(#201),#234);
#201 = B_SPLINE_CURVE_WITH_KNOTS('',7,(#202,#203,#204,#205,#206,#207,
    #208,#209,#210,#211,#212,#213,#214,#215,#216,#217,#218,#219,#220,
    #221,#222,#223,#224,#225,#226,#227,#228,#229,#230,#231,#232,#233),
  .UNSPECIFIED.,.F.,.F.,(8,6,6,6,6,8),(0.,0.232232816272,0.350601233028,
    0.675716955405,0.825351100416,1.),.UNSPECIFIED.);
#202 = CARTESIAN_POINT('',(0.940101965251,-6.E-07));
#203 = CARTESIAN_POINT('',(0.929120084712,0.258418755834));
#204 = CARTESIAN_POINT('',(0.919816321485,0.521042787697));
#205 = CARTESIAN_POINT('',(0.912335028528,0.787360128812));
#206 = CARTESIAN_POINT('',(0.906840614481,1.056885182339));
#207 = CARTESIAN_POINT('',(0.903516758541,1.329161859602));
#208 = CARTESIAN_POINT('',(0.902568341841,1.603759771357));
#209 = CARTESIAN_POINT('',(0.905071047681,2.021195728996));
#210 = CARTESIAN_POINT('',(0.906592475603,2.162527473029));
#211 = CARTESIAN_POINT('',(0.908818429846,2.304037646018));
#212 = CARTESIAN_POINT('',(0.911773760659,2.445516065892));
#213 = CARTESIAN_POINT('',(0.915480374129,2.586762348231));
#214 = CARTESIAN_POINT('',(0.919957488491,2.727585427824));
#215 = CARTESIAN_POINT('',(0.939681320484,3.252930841479));
#216 = CARTESIAN_POINT('',(0.960020929124,3.631904612983));
#217 = CARTESIAN_POINT('',(0.986466774113,4.000092621109));
#218 = CARTESIAN_POINT('',(1.019014092273,4.353117649905));
#219 = CARTESIAN_POINT('',(1.057402769833,4.686166269393));
#220 = CARTESIAN_POINT('',(1.101211642598,4.993763028684));
#221 = CARTESIAN_POINT('',(1.172263546283,5.397315358314));
#222 = CARTESIAN_POINT('',(1.195742017832,5.518214994411));
#223 = CARTESIAN_POINT('',(1.220262711681,5.632224109646));
#224 = CARTESIAN_POINT('',(1.245782168453,5.738736577095));
#225 = CARTESIAN_POINT('',(1.272256174451,5.837130402022));
#226 = CARTESIAN_POINT('',(1.299640727924,5.926761556897));
#227 = CARTESIAN_POINT('',(1.360868294194,6.10056070681));
#228 = CARTESIAN_POINT('',(1.395098802923,6.181518126668));
#229 = CARTESIAN_POINT('',(1.430354849402,6.248174301379));
#230 = CARTESIAN_POINT('',(1.466403818804,6.299290351695));
#231 = CARTESIAN_POINT('',(1.503014738827,6.333996227556));
#232 = CARTESIAN_POINT('',(1.539957843438,6.351771852714));
#233 = CARTESIAN_POINT('',(1.576999125122,6.35245748014));
#234 = ( GEOMETRIC_REPRESENTATION_CONTEXT(2) 
PARAMETRIC_REPRESENTATION_CONTEXT() REPRESENTATION_CONTEXT('2D SPACE',''
  ) );
#235 = ORIENTED_EDGE('',*,*,#236,.F.);
#236 = EDGE_CURVE('',#237,#122,#239,.T.);
#237 = VERTEX_POINT('',#238);
#238 = CARTESIAN_POINT('',(-431.4713140617,20.,-12.61442822272));
#239 = SURFACE_CURVE('',#240,(#245,#257),.PCURVE_S1.);
#240 = ELLIPSE('',#241,14.3068297676,5.);
#241 = AXIS2_PLACEMENT_3D('',#242,#243,#244);
#242 = CARTESIAN_POINT('',(-419.2765957446,20.,-9.914893617021));
#243 = DIRECTION('',(0.,-1.,0.));
#244 = DIRECTION('',(-0.999968507409,-0.,-7.936257995307E-03));
#245 = PCURVE('',#46,#246);
#246 = DEFINITIONAL_REPRESENTATION('',(#247),#256);
#247 = B_SPLINE_CURVE_WITH_KNOTS('',7,(#248,#249,#250,#251,#252,#253,
    #254,#255),.UNSPECIFIED.,.F.,.F.,(8,8),(0.547475957942,
    1.489417326799),.PIECEWISE_BEZIER_KNOTS.);
#248 = CARTESIAN_POINT('',(3.691842282468,268.96840023088));
#249 = CARTESIAN_POINT('',(3.826405335162,268.02947480441));
#250 = CARTESIAN_POINT('',(3.960968387856,266.84876280368));
#251 = CARTESIAN_POINT('',(4.09553144055,265.45403449688));
#252 = CARTESIAN_POINT('',(4.230094493244,263.88377918858));
#253 = CARTESIAN_POINT('',(4.364657545937,262.18518186008));
#254 = CARTESIAN_POINT('',(4.499220598631,260.41039625012));
#255 = CARTESIAN_POINT('',(4.633783651325,258.61259141951));
#256 = ( GEOMETRIC_REPRESENTATION_CONTEXT(2) 
PARAMETRIC_REPRESENTATION_CONTEXT() REPRESENTATION_CONTEXT('2D SPACE',''
  ) );
#257 = PCURVE('',#258,#263);
#258 = PLANE('',#259);
#259 = AXIS2_PLACEMENT_3D('',#260,#261,#262);
#260 = CARTESIAN_POINT('',(-430.,20.,-10.));
#261 = DIRECTION('',(0.,-1.,0.));
#262 = DIRECTION('',(0.,-0.,-1.));
#263 = DEFINITIONAL_REPRESENTATION('',(#264),#268);
#264 = ELLIPSE('',#265,14.3068297676,5.);
#265 = AXIS2_PLACEMENT_2D('',#266,#267);
#266 = CARTESIAN_POINT('',(-8.510638297872E-02,10.723404255319));
#267 = DIRECTION('',(7.936257995307E-03,-0.999968507409));
#268 = ( GEOMETRIC_REPRESENTATION_CONTEXT(2) 
PARAMETRIC_REPRESENTATION_CONTEXT() REPRESENTATION_CONTEXT('2D SPACE',''
  ) );
#269 = ORIENTED_EDGE('',*,*,#270,.F.);
#270 = EDGE_CURVE('',#271,#237,#273,.T.);
#271 = VERTEX_POINT('',#272);
#272 = CARTESIAN_POINT('',(-431.5126249695,20.,-7.409253833081));
#273 = SURFACE_CURVE('',#274,(#279,#286),.PCURVE_S1.);
#274 = CIRCLE('',#275,5.);
#275 = AXIS2_PLACEMENT_3D('',#276,#277,#278);
#276 = CARTESIAN_POINT('',(-430.,16.,-10.));
#277 = DIRECTION('',(-0.936913036423,-0.349483434221,-7.435817749389E-03
    ));
#278 = DIRECTION('',(0.349493096334,-0.936938939107,-4.336808689942E-19)
  );
#279 = PCURVE('',#46,#280);
#280 = DEFINITIONAL_REPRESENTATION('',(#281),#285);
#281 = LINE('',#282,#283);
#282 = CARTESIAN_POINT('',(0.,268.96839963088));
#283 = VECTOR('',#284,1.);
#284 = DIRECTION('',(1.,0.));
#285 = ( GEOMETRIC_REPRESENTATION_CONTEXT(2) 
PARAMETRIC_REPRESENTATION_CONTEXT() REPRESENTATION_CONTEXT('2D SPACE',''
  ) );
#286 = PCURVE('',#287,#292);
#287 = PLANE('',#288);
#288 = AXIS2_PLACEMENT_3D('',#289,#290,#291);
#289 = CARTESIAN_POINT('',(-430.,16.,-10.));
#290 = DIRECTION('',(-0.936913036423,-0.349483434221,-7.435817749389E-03
    ));
#291 = DIRECTION('',(0.349493096334,-0.936938939107,0.));
#292 = DEFINITIONAL_REPRESENTATION('',(#293),#297);
#293 = CIRCLE('',#294,5.);
#294 = AXIS2_PLACEMENT_2D('',#295,#296);
#295 = CARTESIAN_POINT('',(0.,0.));
#296 = DIRECTION('',(1.,0.));
#297 = ( GEOMETRIC_REPRESENTATION_CONTEXT(2) 
PARAMETRIC_REPRESENTATION_CONTEXT() REPRESENTATION_CONTEXT('2D SPACE',''
  ) );
#298 = ORIENTED_EDGE('',*,*,#299,.F.);
#299 = EDGE_CURVE('',#300,#271,#302,.T.);
#300 = VERTEX_POINT('',#301);
#301 = CARTESIAN_POINT('',(-423.6147466694,20.,-5.180400441476));
#302 = SURFACE_CURVE('',#303,(#308,#320),.PCURVE_S1.);
#303 = ELLIPSE('',#304,14.3068297676,5.);
#304 = AXIS2_PLACEMENT_3D('',#305,#306,#307);
#305 = CARTESIAN_POINT('',(-419.2765957446,20.,-9.914893617021));
#306 = DIRECTION('',(0.,-1.,0.));
#307 = DIRECTION('',(-0.999968507409,-0.,-7.936257995307E-03));
#308 = PCURVE('',#46,#309);
#309 = DEFINITIONAL_REPRESENTATION('',(#310),#319);
#310 = B_SPLINE_CURVE_WITH_KNOTS('',7,(#311,#312,#313,#314,#315,#316,
    #317,#318),.UNSPECIFIED.,.F.,.F.,(8,8),(4.788220638508,
    5.735709349238),.PIECEWISE_BEZIER_KNOTS.);
#311 = CARTESIAN_POINT('',(1.649401655854,258.53846079641));
#312 = CARTESIAN_POINT('',(1.784757185959,260.34764372875));
#313 = CARTESIAN_POINT('',(1.920112716063,262.13512002005));
#314 = CARTESIAN_POINT('',(2.055468246167,263.84675206572));
#315 = CARTESIAN_POINT('',(2.190823776271,265.42937048347));
#316 = CARTESIAN_POINT('',(2.326179306376,266.83484736165));
#317 = CARTESIAN_POINT('',(2.46153483648,268.02394522422));
#318 = CARTESIAN_POINT('',(2.596890366585,268.96840023088));
#319 = ( GEOMETRIC_REPRESENTATION_CONTEXT(2) 
PARAMETRIC_REPRESENTATION_CONTEXT() REPRESENTATION_CONTEXT('2D SPACE',''
  ) );
#320 = PCURVE('',#258,#321);
#321 = DEFINITIONAL_REPRESENTATION('',(#322),#326);
#322 = ELLIPSE('',#323,14.3068297676,5.);
#323 = AXIS2_PLACEMENT_2D('',#324,#325);
#324 = CARTESIAN_POINT('',(-8.510638297872E-02,10.723404255319));
#325 = DIRECTION('',(7.936257995307E-03,-0.999968507409));
#326 = ( GEOMETRIC_REPRESENTATION_CONTEXT(2) 
PARAMETRIC_REPRESENTATION_CONTEXT() REPRESENTATION_CONTEXT('2D SPACE',''
  ) );
#327 = ORIENTED_EDGE('',*,*,#328,.F.);
#328 = EDGE_CURVE('',#99,#300,#329,.T.);
#329 = SURFACE_CURVE('',#330,(#363,#399),.PCURVE_S1.);
#330 = B_SPLINE_CURVE_WITH_KNOTS('',7,(#331,#332,#333,#334,#335,#336,
    #337,#338,#339,#340,#341,#342,#343,#344,#345,#346,#347,#348,#349,
    #350,#351,#352,#353,#354,#355,#356,#357,#358,#359,#360,#361,#362),
  .UNSPECIFIED.,.F.,.F.,(8,6,6,6,6,8),(0.,0.175325850982,0.325079364216,
    0.646832757604,0.7655461141,1.),.UNSPECIFIED.);
#331 = CARTESIAN_POINT('',(-422.0001538983,13.64754251986,
    -9.950377931587));
#332 = CARTESIAN_POINT('',(-422.0020035349,13.646852576025,
    -9.652187849489));
#333 = CARTESIAN_POINT('',(-422.016816827,13.663471780816,
    -9.354704667099));
#334 = CARTESIAN_POINT('',(-422.0444786035,13.697265933482,
    -9.060527111646));
#335 = CARTESIAN_POINT('',(-422.0843315672,13.74772546651,
    -8.772208348237));
#336 = CARTESIAN_POINT('',(-422.1351894059,13.813976916876,
    -8.492172928344));
#337 = CARTESIAN_POINT('',(-422.1954081177,13.894763618424,
    -8.222636622914));
#338 = CARTESIAN_POINT('',(-422.3207620357,14.068370818194,
    -7.745922341643));
#339 = CARTESIAN_POINT('',(-422.3840096106,14.157870624101,
    -7.534962364155));
#340 = CARTESIAN_POINT('',(-422.4517911754,14.25621576427,
    -7.333066142612));
#341 = CARTESIAN_POINT('',(-422.5231126827,14.362754977133,
    -7.140563909494));
#342 = CARTESIAN_POINT('',(-422.5969733442,14.476858662103,
    -6.957702975564));
#343 = CARTESIAN_POINT('',(-422.6723858337,14.597912533301,
    -6.784651510629));
#344 = CARTESIAN_POINT('',(-422.9117094327,14.999034246566,
    -6.270967614291));
#345 = CARTESIAN_POINT('',(-423.078674203,15.303538260704,
    -5.964235830586));
#346 = CARTESIAN_POINT('',(-423.23977243,15.633180740727,-5.703390596156
    ));
#347 = CARTESIAN_POINT('',(-423.3860892012,15.982623691662,
    -5.488093215052));
#348 = CARTESIAN_POINT('',(-423.5107247629,16.347167461562,
    -5.316371446796));
#349 = CARTESIAN_POINT('',(-423.6097647363,16.722542376914,
    -5.185569574849));
#350 = CARTESIAN_POINT('',(-423.7085806253,17.24509633552,
    -5.058347721087));
#351 = CARTESIAN_POINT('',(-423.7315166833,17.386580929925,
    -5.029266692537));
#352 = CARTESIAN_POINT('',(-423.7507207241,17.528525151604,
    -5.00520106548));
#353 = CARTESIAN_POINT('',(-423.7662011132,17.670732318287,
    -4.985964195359));
#354 = CARTESIAN_POINT('',(-423.7780077803,17.812996278077,
    -4.971371712207));
#355 = CARTESIAN_POINT('',(-423.7862299241,17.955100924505,
    -4.961238394513));
#356 = CARTESIAN_POINT('',(-423.8004020023,18.376708355254,
    -4.94379517066));
#357 = CARTESIAN_POINT('',(-423.7963068685,18.654687297162,
    -4.948886569021));
#358 = CARTESIAN_POINT('',(-423.7797891105,18.930322463055,
    -4.969054959706));
#359 = CARTESIAN_POINT('',(-423.7520877221,19.203164364227,
    -5.003117175925));
#360 = CARTESIAN_POINT('',(-423.7144967321,19.472735684692,
    -5.050159617398));
#361 = CARTESIAN_POINT('',(-423.6683003684,19.73852699604,-5.10944974344
    ));
#362 = CARTESIAN_POINT('',(-423.6147465465,20.0000006,-5.180400604286));
#363 = PCURVE('',#46,#364);
#364 = DEFINITIONAL_REPRESENTATION('',(#365),#398);
#365 = B_SPLINE_CURVE_WITH_KNOTS('',7,(#366,#367,#368,#369,#370,#371,
    #372,#373,#374,#375,#376,#377,#378,#379,#380,#381,#382,#383,#384,
    #385,#386,#387,#388,#389,#390,#391,#392,#393,#394,#395,#396,#397),
  .UNSPECIFIED.,.F.,.F.,(8,6,6,6,6,8),(0.,0.175325850982,0.325079364216,
    0.646832757604,0.7655461141,1.),.UNSPECIFIED.);
#366 = CARTESIAN_POINT('',(-8.881784197001E-16,262.29501546722));
#367 = CARTESIAN_POINT('',(5.963930351272E-02,262.29477225275));
#368 = CARTESIAN_POINT('',(0.119146275237,262.30063085174));
#369 = CARTESIAN_POINT('',(0.178347698932,262.31254958347));
#370 = CARTESIAN_POINT('',(0.237071528036,262.3301096881));
#371 = CARTESIAN_POINT('',(0.295134700472,262.35252298337));
#372 = CARTESIAN_POINT('',(0.352329297263,262.37870484275));
#373 = CARTESIAN_POINT('',(0.456305513366,262.43193296178));
#374 = CARTESIAN_POINT('',(0.503480988084,262.45834307977));
#375 = CARTESIAN_POINT('',(0.549957862882,262.48597725062));
#376 = CARTESIAN_POINT('',(0.595753959026,262.51413419909));
#377 = CARTESIAN_POINT('',(0.640881334816,262.54209814746));
#378 = CARTESIAN_POINT('',(0.685347095133,262.56915999025));
#379 = CARTESIAN_POINT('',(0.823276099378,262.64938033628));
#380 = CARTESIAN_POINT('',(0.914869908233,262.69711189602));
#381 = CARTESIAN_POINT('',(1.003831055126,262.73090274139));
#382 = CARTESIAN_POINT('',(1.09015486585,262.74426339717));
#383 = CARTESIAN_POINT('',(1.173881569296,262.73235717928));
#384 = CARTESIAN_POINT('',(1.255113109211,262.69298908813));
#385 = CARTESIAN_POINT('',(1.362952581261,262.60200103213));
#386 = CARTESIAN_POINT('',(1.39163822453,262.57382736074));
#387 = CARTESIAN_POINT('',(1.419957361154,262.54203377528));
#388 = CARTESIAN_POINT('',(1.44791902742,262.50669546271));
#389 = CARTESIAN_POINT('',(1.475529031526,262.46792987882));
#390 = CARTESIAN_POINT('',(1.502790129737,262.42589474315));
#391 = CARTESIAN_POINT('',(1.58285241437,262.2916982305));
#392 = CARTESIAN_POINT('',(1.634564404177,262.19075026972));
#393 = CARTESIAN_POINT('',(1.685090153292,262.07909461109));
#394 = CARTESIAN_POINT('',(1.734628984967,261.95804037497));
#395 = CARTESIAN_POINT('',(1.783346946467,261.82895997459));
#396 = CARTESIAN_POINT('',(1.831388090833,261.69322920943));
#397 = CARTESIAN_POINT('',(1.878877658311,261.55220082017));
#398 = ( GEOMETRIC_REPRESENTATION_CONTEXT(2) 
PARAMETRIC_REPRESENTATION_CONTEXT() REPRESENTATION_CONTEXT('2D SPACE',''
  ) );
#399 = PCURVE('',#195,#400);
#400 = DEFINITIONAL_REPRESENTATION('',(#401),#434);
#401 = B_SPLINE_CURVE_WITH_KNOTS('',7,(#402,#403,#404,#405,#406,#407,
    #408,#409,#410,#411,#412,#413,#414,#415,#416,#417,#418,#419,#420,
    #421,#422,#423,#424,#425,#426,#427,#428,#429,#430,#431,#432,#433),
  .UNSPECIFIED.,.F.,.F.,(8,6,6,6,6,8),(0.,0.175325850982,0.325079364216,
    0.646832757604,0.7655461141,1.),.UNSPECIFIED.);
#402 = CARTESIAN_POINT('',(1.576999125122,6.35245748014));
#403 = CARTESIAN_POINT('',(1.614273602444,6.353147423975));
#404 = CARTESIAN_POINT('',(1.651469811797,6.336528219184));
#405 = CARTESIAN_POINT('',(1.688347189573,6.302734066518));
#406 = CARTESIAN_POINT('',(1.724669608317,6.25227453349));
#407 = CARTESIAN_POINT('',(1.760199704123,6.186023083124));
#408 = CARTESIAN_POINT('',(1.794698357134,6.105236381576));
#409 = CARTESIAN_POINT('',(1.856313355147,5.931629181806));
#410 = CARTESIAN_POINT('',(1.883826879993,5.842129375899));
#411 = CARTESIAN_POINT('',(1.910426332248,5.74378423573));
#412 = CARTESIAN_POINT('',(1.936066956893,5.637245022867));
#413 = CARTESIAN_POINT('',(1.960703786279,5.523141337897));
#414 = CARTESIAN_POINT('',(1.984292615045,5.402087466699));
#415 = CARTESIAN_POINT('',(2.05512989892,5.000965753434));
#416 = CARTESIAN_POINT('',(2.098698437148,4.696461739296));
#417 = CARTESIAN_POINT('',(2.136942611748,4.366819259273));
#418 = CARTESIAN_POINT('',(2.169450615888,4.017376308338));
#419 = CARTESIAN_POINT('',(2.195964658069,3.652832538438));
#420 = CARTESIAN_POINT('',(2.216471539062,3.277457623086));
#421 = CARTESIAN_POINT('',(2.236607785912,2.75490366448));
#422 = CARTESIAN_POINT('',(2.241237343324,2.613419070075));
#423 = CARTESIAN_POINT('',(2.245085852572,2.471474848396));
#424 = CARTESIAN_POINT('',(2.248172345657,2.329267681713));
#425 = CARTESIAN_POINT('',(2.250518691849,2.187003721923));
#426 = CARTESIAN_POINT('',(2.252149861844,2.044899075495));
#427 = CARTESIAN_POINT('',(2.254959204121,1.623291644746));
#428 = CARTESIAN_POINT('',(2.25414249716,1.345312702838));
#429 = CARTESIAN_POINT('',(2.250883791516,1.069677536945));
#430 = CARTESIAN_POINT('',(2.245395796124,0.796835635772));
#431 = CARTESIAN_POINT('',(2.237869253099,0.527264315308));
#432 = CARTESIAN_POINT('',(2.228475045904,0.26147300396));
#433 = CARTESIAN_POINT('',(2.217363370954,-6.E-07));
#434 = ( GEOMETRIC_REPRESENTATION_CONTEXT(2) 
PARAMETRIC_REPRESENTATION_CONTEXT() REPRESENTATION_CONTEXT('2D SPACE',''
  ) );
#435 = ORIENTED_EDGE('',*,*,#98,.F.);
#436 = ORIENTED_EDGE('',*,*,#437,.T.);
#437 = EDGE_CURVE('',#24,#438,#440,.T.);
#438 = VERTEX_POINT('',#439);
#439 = CARTESIAN_POINT('',(-186.,102.35684618952,-5.637332052664));
#440 = SURFACE_CURVE('',#441,(#454,#470),.PCURVE_S1.);
#441 = B_SPLINE_CURVE_WITH_KNOTS('',6,(#442,#443,#444,#445,#446,#447,
    #448,#449,#450,#451,#452,#453),.UNSPECIFIED.,.F.,.F.,(7,5,7),(0.,
    0.547917937754,1.),.UNSPECIFIED.);
#442 = CARTESIAN_POINT('',(-185.1395407219,102.00031092692,
    -8.070531795267));
#443 = CARTESIAN_POINT('',(-185.1458180174,101.99796939606,
    -7.804956266334));
#444 = CARTESIAN_POINT('',(-185.1721240116,102.00622836706,
    -7.541712438005));
#445 = CARTESIAN_POINT('',(-185.2178212258,102.02476519628,
    -7.284632767218));
#446 = CARTESIAN_POINT('',(-185.2812925718,102.0523224144,
    -7.037363967073));
#447 = CARTESIAN_POINT('',(-185.3600192024,102.08693929931,
    -6.802838737777));
#448 = CARTESIAN_POINT('',(-185.5251803859,102.15900630818,
    -6.402292492827));
#449 = CARTESIAN_POINT('',(-185.6081404343,102.19502439619,
    -6.230780044041));
#450 = CARTESIAN_POINT('',(-185.6981670412,102.23356322671,
    -6.068784158469));
#451 = CARTESIAN_POINT('',(-185.7941547874,102.27381277908,
    -5.916092610204));
#452 = CARTESIAN_POINT('',(-185.8950861946,102.31509570612,
    -5.77239345743));
#453 = CARTESIAN_POINT('',(-186.0000006,102.35684642829,-5.637331280249)
  );
#454 = PCURVE('',#46,#455);
#455 = DEFINITIONAL_REPRESENTATION('',(#456),#469);
#456 = B_SPLINE_CURVE_WITH_KNOTS('',6,(#457,#458,#459,#460,#461,#462,
    #463,#464,#465,#466,#467,#468),.UNSPECIFIED.,.F.,.F.,(7,5,7),(0.,
    0.547917937754,1.),.UNSPECIFIED.);
#457 = CARTESIAN_POINT('',(0.,9.485412047998));
#458 = CARTESIAN_POINT('',(5.312360104802E-02,9.490136882997));
#459 = CARTESIAN_POINT('',(0.105803318607,9.509939505211));
#460 = CARTESIAN_POINT('',(0.157541478093,9.544363908658));
#461 = CARTESIAN_POINT('',(0.207855837105,9.592361603143));
#462 = CARTESIAN_POINT('',(0.256289643507,9.65227969503));
#463 = CARTESIAN_POINT('',(0.340405614577,9.77885674628));
#464 = CARTESIAN_POINT('',(0.3769801334,9.842720036755));
#465 = CARTESIAN_POINT('',(0.412132647926,9.912393883682));
#466 = CARTESIAN_POINT('',(0.445895485198,9.987124116101));
#467 = CARTESIAN_POINT('',(0.478302622171,10.066191847468));
#468 = CARTESIAN_POINT('',(0.5093848521,10.14889203805));
#469 = ( GEOMETRIC_REPRESENTATION_CONTEXT(2) 
PARAMETRIC_REPRESENTATION_CONTEXT() REPRESENTATION_CONTEXT('2D SPACE',''
  ) );
#470 = PCURVE('',#72,#471);
#471 = DEFINITIONAL_REPRESENTATION('',(#472),#485);
#472 = B_SPLINE_CURVE_WITH_KNOTS('',6,(#473,#474,#475,#476,#477,#478,
    #479,#480,#481,#482,#483,#484),.UNSPECIFIED.,.F.,.F.,(7,5,7),(0.,
    0.547917937754,1.),.UNSPECIFIED.);
#473 = CARTESIAN_POINT('',(1.561979738165,15.139540721945));
#474 = CARTESIAN_POINT('',(1.595177969559,15.145818017442));
#475 = CARTESIAN_POINT('',(1.62807308691,15.172124011633));
#476 = CARTESIAN_POINT('',(1.660252116682,15.217821225883));
#477 = CARTESIAN_POINT('',(1.691321093354,15.281292571819));
#478 = CARTESIAN_POINT('',(1.720939730122,15.360019202469));
#479 = CARTESIAN_POINT('',(1.771811957951,15.525180385915));
#480 = CARTESIAN_POINT('',(1.793709458082,15.608140434346));
#481 = CARTESIAN_POINT('',(1.814513893825,15.698167041267));
#482 = CARTESIAN_POINT('',(1.834244796115,15.794154787445));
#483 = CARTESIAN_POINT('',(1.852929990011,15.895086194651));
#484 = CARTESIAN_POINT('',(1.870600991373,16.0000006));
#485 = ( GEOMETRIC_REPRESENTATION_CONTEXT(2) 
PARAMETRIC_REPRESENTATION_CONTEXT() REPRESENTATION_CONTEXT('2D SPACE',''
  ) );
#486 = ORIENTED_EDGE('',*,*,#487,.T.);
#487 = EDGE_CURVE('',#438,#22,#488,.T.);
#488 = SURFACE_CURVE('',#489,(#494,#528),.PCURVE_S1.);
#489 = ELLIPSE('',#490,5.336674595851,5.);
#490 = AXIS2_PLACEMENT_3D('',#491,#492,#493);
#491 = CARTESIAN_POINT('',(-186.,107.01587301587,-8.063492063492));
#492 = DIRECTION('',(-1.,0.,0.));
#493 = DIRECTION('',(-0.,-0.999773730057,-2.127178149058E-02));
#494 = PCURVE('',#46,#495);
#495 = DEFINITIONAL_REPRESENTATION('',(#496),#527);
#496 = B_SPLINE_CURVE_WITH_KNOTS('',8,(#497,#498,#499,#500,#501,#502,
    #503,#504,#505,#506,#507,#508,#509,#510,#511,#512,#513,#514,#515,
    #516,#517,#518,#519,#520,#521,#522,#523,#524,#525,#526),
  .UNSPECIFIED.,.F.,.F.,(9,7,7,7,9),(1.993168007245E-02,1.590728006867,
    3.94692249706,5.125019742156,6.303116987252),.UNSPECIFIED.);
#497 = CARTESIAN_POINT('',(0.,10.40381028199));
#498 = CARTESIAN_POINT('',(0.196349540849,10.396509983161));
#499 = CARTESIAN_POINT('',(0.392699081697,10.307030566551));
#500 = CARTESIAN_POINT('',(0.589048622537,10.135801621665));
#501 = CARTESIAN_POINT('',(0.785398163386,9.890007986673));
#502 = CARTESIAN_POINT('',(0.981747704235,9.583551622411));
#503 = CARTESIAN_POINT('',(1.178097245094,9.235572711377));
#504 = CARTESIAN_POINT('',(1.374446785946,8.86771683819));
#505 = CARTESIAN_POINT('',(1.865320638069,7.95217283454));
#506 = CARTESIAN_POINT('',(2.159844949337,7.406530432129));
#507 = CARTESIAN_POINT('',(2.454369260632,6.937201334775));
#508 = CARTESIAN_POINT('',(2.748893571891,6.61603093235));
#509 = CARTESIAN_POINT('',(3.04341788319,6.494375899514));
#510 = CARTESIAN_POINT('',(3.337942194436,6.581912812603));
#511 = CARTESIAN_POINT('',(3.632466505713,6.849947378239));
#512 = CARTESIAN_POINT('',(4.074252972624,7.444210718664));
#513 = CARTESIAN_POINT('',(4.221515128261,7.674333470088));
#514 = CARTESIAN_POINT('',(4.368777283899,7.929944963717));
#515 = CARTESIAN_POINT('',(4.516039439535,8.203018239752));
#516 = CARTESIAN_POINT('',(4.663301595171,8.484495449297));
#517 = CARTESIAN_POINT('',(4.81056375081,8.764922021082));
#518 = CARTESIAN_POINT('',(4.957825906446,9.035123575445));
#519 = CARTESIAN_POINT('',(5.25235021772,9.538444439977));
#520 = CARTESIAN_POINT('',(5.399612373357,9.771563565944));
#521 = CARTESIAN_POINT('',(5.546874528997,9.977826194435));
#522 = CARTESIAN_POINT('',(5.694136684634,10.14977078434));
#523 = CARTESIAN_POINT('',(5.841398840269,10.281378544288));
#524 = CARTESIAN_POINT('',(5.988660995906,10.368534853474));
#525 = CARTESIAN_POINT('',(6.135923151543,10.409285506112));
#526 = CARTESIAN_POINT('',(6.28318530718,10.40381028199));
#527 = ( GEOMETRIC_REPRESENTATION_CONTEXT(2) 
PARAMETRIC_REPRESENTATION_CONTEXT() REPRESENTATION_CONTEXT('2D SPACE',''
  ) );
#528 = PCURVE('',#529,#534);
#529 = PLANE('',#530);
#530 = AXIS2_PLACEMENT_3D('',#531,#532,#533);
#531 = CARTESIAN_POINT('',(-186.,110.,-8.));
#532 = DIRECTION('',(-1.,0.,0.));
#533 = DIRECTION('',(0.,0.,-1.));
#534 = DEFINITIONAL_REPRESENTATION('',(#535),#539);
#535 = ELLIPSE('',#536,5.336674595851,5.);
#536 = AXIS2_PLACEMENT_2D('',#537,#538);
#537 = CARTESIAN_POINT('',(6.349206349206E-02,2.984126984127));
#538 = DIRECTION('',(2.127178149058E-02,0.999773730057));
#539 = ( GEOMETRIC_REPRESENTATION_CONTEXT(2) 
PARAMETRIC_REPRESENTATION_CONTEXT() REPRESENTATION_CONTEXT('2D SPACE',''
  ) );
#540 = ADVANCED_FACE('',(#541),#72,.T.);
#541 = FACE_BOUND('',#542,.T.);
#542 = EDGE_LOOP('',(#543,#568,#590,#591,#592,#614,#615));
#543 = ORIENTED_EDGE('',*,*,#544,.T.);
#544 = EDGE_CURVE('',#545,#547,#549,.T.);
#545 = VERTEX_POINT('',#546);
#546 = CARTESIAN_POINT('',(-170.,110.,-16.));
#547 = VERTEX_POINT('',#548);
#548 = CARTESIAN_POINT('',(-186.,110.,-16.));
#549 = SEAM_CURVE('',#550,(#554,#561),.PCURVE_S1.);
#550 = LINE('',#551,#552);
#551 = CARTESIAN_POINT('',(-170.,110.,-16.));
#552 = VECTOR('',#553,1.);
#553 = DIRECTION('',(-1.,0.,0.));
#554 = PCURVE('',#72,#555);
#555 = DEFINITIONAL_REPRESENTATION('',(#556),#560);
#556 = LINE('',#557,#558);
#557 = CARTESIAN_POINT('',(6.28318530718,-0.));
#558 = VECTOR('',#559,1.);
#559 = DIRECTION('',(0.,1.));
#560 = ( GEOMETRIC_REPRESENTATION_CONTEXT(2) 
PARAMETRIC_REPRESENTATION_CONTEXT() REPRESENTATION_CONTEXT('2D SPACE',''
  ) );
#561 = PCURVE('',#72,#562);
#562 = DEFINITIONAL_REPRESENTATION('',(#563),#567);
#563 = LINE('',#564,#565);
#564 = CARTESIAN_POINT('',(0.,-0.));
#565 = VECTOR('',#566,1.);
#566 = DIRECTION('',(0.,1.));
#567 = ( GEOMETRIC_REPRESENTATION_CONTEXT(2) 
PARAMETRIC_REPRESENTATION_CONTEXT() REPRESENTATION_CONTEXT('2D SPACE',''
  ) );
#568 = ORIENTED_EDGE('',*,*,#569,.F.);
#569 = EDGE_CURVE('',#438,#547,#570,.T.);
#570 = SURFACE_CURVE('',#571,(#576,#583),.PCURVE_S1.);
#571 = CIRCLE('',#572,8.);
#572 = AXIS2_PLACEMENT_3D('',#573,#574,#575);
#573 = CARTESIAN_POINT('',(-186.,110.,-8.));
#574 = DIRECTION('',(-1.,0.,0.));
#575 = DIRECTION('',(0.,0.,-1.));
#576 = PCURVE('',#72,#577);
#577 = DEFINITIONAL_REPRESENTATION('',(#578),#582);
#578 = LINE('',#579,#580);
#579 = CARTESIAN_POINT('',(0.,16.));
#580 = VECTOR('',#581,1.);
#581 = DIRECTION('',(1.,0.));
#582 = ( GEOMETRIC_REPRESENTATION_CONTEXT(2) 
PARAMETRIC_REPRESENTATION_CONTEXT() REPRESENTATION_CONTEXT('2D SPACE',''
  ) );
#583 = PCURVE('',#529,#584);
#584 = DEFINITIONAL_REPRESENTATION('',(#585),#589);
#585 = CIRCLE('',#586,8.);
#586 = AXIS2_PLACEMENT_2D('',#587,#588);
#587 = CARTESIAN_POINT('',(0.,0.));
#588 = DIRECTION('',(1.,0.));
#589 = ( GEOMETRIC_REPRESENTATION_CONTEXT(2) 
PARAMETRIC_REPRESENTATION_CONTEXT() REPRESENTATION_CONTEXT('2D SPACE',''
  ) );
#590 = ORIENTED_EDGE('',*,*,#437,.F.);
#591 = ORIENTED_EDGE('',*,*,#21,.F.);
#592 = ORIENTED_EDGE('',*,*,#593,.F.);
#593 = EDGE_CURVE('',#547,#22,#594,.T.);
#594 = SURFACE_CURVE('',#595,(#600,#607),.PCURVE_S1.);
#595 = CIRCLE('',#596,8.);
#596 = AXIS2_PLACEMENT_3D('',#597,#598,#599);
#597 = CARTESIAN_POINT('',(-186.,110.,-8.));
#598 = DIRECTION('',(-1.,0.,0.));
#599 = DIRECTION('',(0.,0.,-1.));
#600 = PCURVE('',#72,#601);
#601 = DEFINITIONAL_REPRESENTATION('',(#602),#606);
#602 = LINE('',#603,#604);
#603 = CARTESIAN_POINT('',(0.,16.));
#604 = VECTOR('',#605,1.);
#605 = DIRECTION('',(1.,0.));
#606 = ( GEOMETRIC_REPRESENTATION_CONTEXT(2) 
PARAMETRIC_REPRESENTATION_CONTEXT() REPRESENTATION_CONTEXT('2D SPACE',''
  ) );
#607 = PCURVE('',#529,#608);
#608 = DEFINITIONAL_REPRESENTATION('',(#609),#613);
#609 = CIRCLE('',#610,8.);
#610 = AXIS2_PLACEMENT_2D('',#611,#612);
#611 = CARTESIAN_POINT('',(0.,0.));
#612 = DIRECTION('',(1.,0.));
#613 = ( GEOMETRIC_REPRESENTATION_CONTEXT(2) 
PARAMETRIC_REPRESENTATION_CONTEXT() REPRESENTATION_CONTEXT('2D SPACE',''
  ) );
#614 = ORIENTED_EDGE('',*,*,#544,.F.);
#615 = ORIENTED_EDGE('',*,*,#616,.T.);
#616 = EDGE_CURVE('',#545,#545,#617,.T.);
#617 = SURFACE_CURVE('',#618,(#623,#630),.PCURVE_S1.);
#618 = CIRCLE('',#619,8.);
#619 = AXIS2_PLACEMENT_3D('',#620,#621,#622);
#620 = CARTESIAN_POINT('',(-170.,110.,-8.));
#621 = DIRECTION('',(-1.,0.,0.));
#622 = DIRECTION('',(0.,0.,-1.));
#623 = PCURVE('',#72,#624);
#624 = DEFINITIONAL_REPRESENTATION('',(#625),#629);
#625 = LINE('',#626,#627);
#626 = CARTESIAN_POINT('',(0.,0.));
#627 = VECTOR('',#628,1.);
#628 = DIRECTION('',(1.,0.));
#629 = ( GEOMETRIC_REPRESENTATION_CONTEXT(2) 
PARAMETRIC_REPRESENTATION_CONTEXT() REPRESENTATION_CONTEXT('2D SPACE',''
  ) );
#630 = PCURVE('',#631,#636);
#631 = PLANE('',#632);
#632 = AXIS2_PLACEMENT_3D('',#633,#634,#635);
#633 = CARTESIAN_POINT('',(-170.,110.,-8.));
#634 = DIRECTION('',(-1.,0.,0.));
#635 = DIRECTION('',(0.,0.,-1.));
#636 = DEFINITIONAL_REPRESENTATION('',(#637),#641);
#637 = CIRCLE('',#638,8.);
#638 = AXIS2_PLACEMENT_2D('',#639,#640);
#639 = CARTESIAN_POINT('',(0.,0.));
#640 = DIRECTION('',(1.,0.));
#641 = ( GEOMETRIC_REPRESENTATION_CONTEXT(2) 
PARAMETRIC_REPRESENTATION_CONTEXT() REPRESENTATION_CONTEXT('2D SPACE',''
  ) );
#642 = ADVANCED_FACE('',(#643),#529,.T.);
#643 = FACE_BOUND('',#644,.T.);
#644 = EDGE_LOOP('',(#645,#646,#647));
#645 = ORIENTED_EDGE('',*,*,#569,.T.);
#646 = ORIENTED_EDGE('',*,*,#593,.T.);
#647 = ORIENTED_EDGE('',*,*,#487,.F.);
#648 = ADVANCED_FACE('',(#649),#195,.T.);
#649 = FACE_BOUND('',#650,.T.);
#650 = EDGE_LOOP('',(#651,#676,#703,#704,#726,#727,#728));
#651 = ORIENTED_EDGE('',*,*,#652,.T.);
#652 = EDGE_CURVE('',#653,#655,#657,.T.);
#653 = VERTEX_POINT('',#654);
#654 = CARTESIAN_POINT('',(-430.,20.,-18.));
#655 = VERTEX_POINT('',#656);
#656 = CARTESIAN_POINT('',(-430.,8.,-18.));
#657 = SEAM_CURVE('',#658,(#662,#669),.PCURVE_S1.);
#658 = LINE('',#659,#660);
#659 = CARTESIAN_POINT('',(-430.,20.,-18.));
#660 = VECTOR('',#661,1.);
#661 = DIRECTION('',(0.,-1.,0.));
#662 = PCURVE('',#195,#663);
#663 = DEFINITIONAL_REPRESENTATION('',(#664),#668);
#664 = LINE('',#665,#666);
#665 = CARTESIAN_POINT('',(6.28318530718,-0.));
#666 = VECTOR('',#667,1.);
#667 = DIRECTION('',(0.,1.));
#668 = ( GEOMETRIC_REPRESENTATION_CONTEXT(2) 
PARAMETRIC_REPRESENTATION_CONTEXT() REPRESENTATION_CONTEXT('2D SPACE',''
  ) );
#669 = PCURVE('',#195,#670);
#670 = DEFINITIONAL_REPRESENTATION('',(#671),#675);
#671 = LINE('',#672,#673);
#672 = CARTESIAN_POINT('',(0.,-0.));
#673 = VECTOR('',#674,1.);
#674 = DIRECTION('',(0.,1.));
#675 = ( GEOMETRIC_REPRESENTATION_CONTEXT(2) 
PARAMETRIC_REPRESENTATION_CONTEXT() REPRESENTATION_CONTEXT('2D SPACE',''
  ) );
#676 = ORIENTED_EDGE('',*,*,#677,.F.);
#677 = EDGE_CURVE('',#655,#655,#678,.T.);
#678 = SURFACE_CURVE('',#679,(#684,#691),.PCURVE_S1.);
#679 = CIRCLE('',#680,8.);
#680 = AXIS2_PLACEMENT_3D('',#681,#682,#683);
#681 = CARTESIAN_POINT('',(-430.,8.,-10.));
#682 = DIRECTION('',(0.,-1.,0.));
#683 = DIRECTION('',(0.,-0.,-1.));
#684 = PCURVE('',#195,#685);
#685 = DEFINITIONAL_REPRESENTATION('',(#686),#690);
#686 = LINE('',#687,#688);
#687 = CARTESIAN_POINT('',(0.,12.));
#688 = VECTOR('',#689,1.);
#689 = DIRECTION('',(1.,0.));
#690 = ( GEOMETRIC_REPRESENTATION_CONTEXT(2) 
PARAMETRIC_REPRESENTATION_CONTEXT() REPRESENTATION_CONTEXT('2D SPACE',''
  ) );
#691 = PCURVE('',#692,#697);
#692 = PLANE('',#693);
#693 = AXIS2_PLACEMENT_3D('',#694,#695,#696);
#694 = CARTESIAN_POINT('',(-430.,8.,-10.));
#695 = DIRECTION('',(0.,-1.,0.));
#696 = DIRECTION('',(0.,-0.,-1.));
#697 = DEFINITIONAL_REPRESENTATION('',(#698),#702);
#698 = CIRCLE('',#699,8.);
#699 = AXIS2_PLACEMENT_2D('',#700,#701);
#700 = CARTESIAN_POINT('',(0.,0.));
#701 = DIRECTION('',(1.,0.));
#702 = ( GEOMETRIC_REPRESENTATION_CONTEXT(2) 
PARAMETRIC_REPRESENTATION_CONTEXT() REPRESENTATION_CONTEXT('2D SPACE',''
  ) );
#703 = ORIENTED_EDGE('',*,*,#652,.F.);
#704 = ORIENTED_EDGE('',*,*,#705,.T.);
#705 = EDGE_CURVE('',#653,#122,#706,.T.);
#706 = SURFACE_CURVE('',#707,(#712,#719),.PCURVE_S1.);
#707 = CIRCLE('',#708,8.);
#708 = AXIS2_PLACEMENT_3D('',#709,#710,#711);
#709 = CARTESIAN_POINT('',(-430.,20.,-10.));
#710 = DIRECTION('',(0.,-1.,0.));
#711 = DIRECTION('',(0.,-0.,-1.));
#712 = PCURVE('',#195,#713);
#713 = DEFINITIONAL_REPRESENTATION('',(#714),#718);
#714 = LINE('',#715,#716);
#715 = CARTESIAN_POINT('',(0.,0.));
#716 = VECTOR('',#717,1.);
#717 = DIRECTION('',(1.,0.));
#718 = ( GEOMETRIC_REPRESENTATION_CONTEXT(2) 
PARAMETRIC_REPRESENTATION_CONTEXT() REPRESENTATION_CONTEXT('2D SPACE',''
  ) );
#719 = PCURVE('',#258,#720);
#720 = DEFINITIONAL_REPRESENTATION('',(#721),#725);
#721 = CIRCLE('',#722,8.);
#722 = AXIS2_PLACEMENT_2D('',#723,#724);
#723 = CARTESIAN_POINT('',(0.,0.));
#724 = DIRECTION('',(1.,0.));
#725 = ( GEOMETRIC_REPRESENTATION_CONTEXT(2) 
PARAMETRIC_REPRESENTATION_CONTEXT() REPRESENTATION_CONTEXT('2D SPACE',''
  ) );
#726 = ORIENTED_EDGE('',*,*,#121,.T.);
#727 = ORIENTED_EDGE('',*,*,#328,.T.);
#728 = ORIENTED_EDGE('',*,*,#729,.T.);
#729 = EDGE_CURVE('',#300,#653,#730,.T.);
#730 = SURFACE_CURVE('',#731,(#736,#743),.PCURVE_S1.);
#731 = CIRCLE('',#732,8.);
#732 = AXIS2_PLACEMENT_3D('',#733,#734,#735);
#733 = CARTESIAN_POINT('',(-430.,20.,-10.));
#734 = DIRECTION('',(0.,-1.,0.));
#735 = DIRECTION('',(0.,-0.,-1.));
#736 = PCURVE('',#195,#737);
#737 = DEFINITIONAL_REPRESENTATION('',(#738),#742);
#738 = LINE('',#739,#740);
#739 = CARTESIAN_POINT('',(0.,0.));
#740 = VECTOR('',#741,1.);
#741 = DIRECTION('',(1.,0.));
#742 = ( GEOMETRIC_REPRESENTATION_CONTEXT(2) 
PARAMETRIC_REPRESENTATION_CONTEXT() REPRESENTATION_CONTEXT('2D SPACE',''
  ) );
#743 = PCURVE('',#258,#744);
#744 = DEFINITIONAL_REPRESENTATION('',(#745),#749);
#745 = CIRCLE('',#746,8.);
#746 = AXIS2_PLACEMENT_2D('',#747,#748);
#747 = CARTESIAN_POINT('',(0.,0.));
#748 = DIRECTION('',(1.,0.));
#749 = ( GEOMETRIC_REPRESENTATION_CONTEXT(2) 
PARAMETRIC_REPRESENTATION_CONTEXT() REPRESENTATION_CONTEXT('2D SPACE',''
  ) );
#750 = ADVANCED_FACE('',(#751),#258,.F.);
#751 = FACE_BOUND('',#752,.F.);
#752 = EDGE_LOOP('',(#753,#754,#755,#756,#775));
#753 = ORIENTED_EDGE('',*,*,#729,.T.);
#754 = ORIENTED_EDGE('',*,*,#705,.T.);
#755 = ORIENTED_EDGE('',*,*,#236,.F.);
#756 = ORIENTED_EDGE('',*,*,#757,.T.);
#757 = EDGE_CURVE('',#237,#271,#758,.T.);
#758 = SURFACE_CURVE('',#759,(#763,#769),.PCURVE_S1.);
#759 = LINE('',#760,#761);
#760 = CARTESIAN_POINT('',(-431.4919695156,20.,-10.0118410279));
#761 = VECTOR('',#762,1.);
#762 = DIRECTION('',(-7.936257995307E-03,0.,0.999968507409));
#763 = PCURVE('',#258,#764);
#764 = DEFINITIONAL_REPRESENTATION('',(#765),#768);
#765 = B_SPLINE_CURVE_WITH_KNOTS('',1,(#766,#767),.UNSPECIFIED.,.F.,.F.,
  (2,2),(-4.988177832369,5.011860634006),.PIECEWISE_BEZIER_KNOTS.);
#766 = CARTESIAN_POINT('',(4.999861769625,-1.452382049447));
#767 = CARTESIAN_POINT('',(-4.999861769625,-1.53174493468));
#768 = ( GEOMETRIC_REPRESENTATION_CONTEXT(2) 
PARAMETRIC_REPRESENTATION_CONTEXT() REPRESENTATION_CONTEXT('2D SPACE',''
  ) );
#769 = PCURVE('',#287,#770);
#770 = DEFINITIONAL_REPRESENTATION('',(#771),#774);
#771 = B_SPLINE_CURVE_WITH_KNOTS('',1,(#772,#773),.UNSPECIFIED.,.F.,.F.,
  (2,2),(-4.988177832369,5.011860634006),.PIECEWISE_BEZIER_KNOTS.);
#772 = CARTESIAN_POINT('',(-4.255353255949,-5.));
#773 = CARTESIAN_POINT('',(-4.283090036443,5.));
#774 = ( GEOMETRIC_REPRESENTATION_CONTEXT(2) 
PARAMETRIC_REPRESENTATION_CONTEXT() REPRESENTATION_CONTEXT('2D SPACE',''
  ) );
#775 = ORIENTED_EDGE('',*,*,#299,.F.);
#776 = ADVANCED_FACE('',(#777),#287,.T.);
#777 = FACE_BOUND('',#778,.T.);
#778 = EDGE_LOOP('',(#779,#780));
#779 = ORIENTED_EDGE('',*,*,#757,.T.);
#780 = ORIENTED_EDGE('',*,*,#270,.T.);
#781 = ADVANCED_FACE('',(#782),#631,.F.);
#782 = FACE_BOUND('',#783,.T.);
#783 = EDGE_LOOP('',(#784));
#784 = ORIENTED_EDGE('',*,*,#616,.F.);
#785 = ADVANCED_FACE('',(#786),#692,.T.);
#786 = FACE_BOUND('',#787,.T.);
#787 = EDGE_LOOP('',(#788));
#788 = ORIENTED_EDGE('',*,*,#677,.T.);
#789 = ( GEOMETRIC_REPRESENTATION_CONTEXT(3) 
GLOBAL_UNCERTAINTY_ASSIGNED_CONTEXT((#793)) GLOBAL_UNIT_ASSIGNED_CONTEXT
((#790,#791,#792)) REPRESENTATION_CONTEXT('Context #1',
  '3D Context with UNIT and UNCERTAINTY') );
#790 = ( LENGTH_UNIT() NAMED_UNIT(*) SI_UNIT(.MILLI.,.METRE.) );
#791 = ( NAMED_UNIT(*) PLANE_ANGLE_UNIT() SI_UNIT($,.RADIAN.) );
#792 = ( NAMED_UNIT(*) SI_UNIT($,.STERADIAN.) SOLID_ANGLE_UNIT() );
#793 = UNCERTAINTY_MEASURE_WITH_UNIT(LENGTH_MEASURE(1.E-07),#790,
  'distance_accuracy_value','confusion accuracy');
#794 = PRODUCT_RELATED_PRODUCT_CATEGORY('part',$,(#7));
ENDSEC;
END-ISO-10303-21;
