ISO-10303-21;
HEADER;
FILE_DESCRIPTION(('Open CASCADE Model'),'2;1');
FILE_NAME('Open CASCADE Shape Model','2026-09-01T20:38:52',('Author'),(
    'Open CASCADE'),'Open CASCADE STEP processor 7.8','Open CASCADE 7.8'
  ,'Unknown');
FILE_SCHEMA(('AUTOMOTIVE_DESIGN { 1 0 10303 214 1 1 1 1 }'));
ENDSEC;
DATA;
#1 = APPLICATION_PROTOCOL_DEFINITION('international standard',
  'automotive_design',2000,#2);
#2 = APPLICATION_CONTEXT(
  'core data for automotive mechanical design processes');
#3 = SHAPE_DEFINITION_REPRESENTATION(#4,#10);
#4 = PRODUCT_DEFINITION_SHAPE('','',#5);
#5 = PRODUCT_DEFINITION('design','',#6,#9);
#6 = PRODUCT_DEFINITION_FORMATION('','',#7);
#7 = PRODUCT('Open CASCADE STEP translator 7.8 2',
  'Open CASCADE STEP translator 7.8 2','',(#8));
#8 = PRODUCT_CONTEXT('',#2,'mechanical');
#9 = PRODUCT_DEFINITION_CONTEXT('part definition',#2,'design');
#10 = ADVANCED_BREP_SHAPE_REPRESENTATION('',(#11,#15),#869);
#11 = AXIS2_PLACEMENT_3D('',#12,#13,#14);
#12 = CARTESIAN_POINT('',(0.,0.,0.));
#13 = DIRECTION('',(0.,0.,1.));
#14 = DIRECTION('',(1.,0.,-0.));
#15 = MANIFOLD_SOLID_BREP('',#16);
#16 = CLOSED_SHELL('',(#17,#620,#671,#728,#752,#804,#861,#865));
#17 = ADVANCED_FACE('',(#18),#33,.T.);
#18 = FACE_BOUND('',#19,.T.);
#19 = EDGE_LOOP('',(#20,#83,#106,#135,#169,#374,#403,#425,#426,#477));
#20 = ORIENTED_EDGE('',*,*,#21,.T.);
#21 = EDGE_CURVE('',#22,#24,#26,.T.);
#22 = VERTEX_POINT('',#23);
#23 = CARTESIAN_POINT('',(-186.,-102.4642566395,-10.68562320629));
#24 = VERTEX_POINT('',#25);
#25 = CARTESIAN_POINT('',(-186.,-112.3524000736,-8.049623289828));
#26 = SURFACE_CURVE('',#27,(#32,#71),.PCURVE_S1.);
#27 = ELLIPSE('',#28,5.336674595851,5.);
#28 = AXIS2_PLACEMENT_3D('',#29,#30,#31);
#29 = CARTESIAN_POINT('',(-186.,-107.0158730158,-8.063492063492));
#30 = DIRECTION('',(-1.,0.,0.));
#31 = DIRECTION('',(0.,0.999773730057,-2.127178149058E-02));
#32 = PCURVE('',#33,#38);
#33 = CYLINDRICAL_SURFACE('',#34,5.);
#34 = AXIS2_PLACEMENT_3D('',#35,#36,#37);
#35 = CARTESIAN_POINT('',(-178.,-110.,-8.));
#36 = DIRECTION('',(-0.936913036423,0.349483434221,-7.435817749389E-03)
  );
#37 = DIRECTION('',(-0.349493096334,-0.936938939107,0.));
#38 = DEFINITIONAL_REPRESENTATION('',(#39),#70);
#39 = B_SPLINE_CURVE_WITH_KNOTS('',8,(#40,#41,#42,#43,#44,#45,#46,#47,
    #48,#49,#50,#51,#52,#53,#54,#55,#56,#57,#58,#59,#60,#61,#62,#63,#64,
    #65,#66,#67,#68,#69),.UNSPECIFIED.,.F.,.F.,(9,7,7,7,9),(
    3.121660973517,4.692457300312,5.870554545408,7.637700413053,
    9.404846280697),.UNSPECIFIED.);
#40 = CARTESIAN_POINT('',(7.815970093361E-15,6.673548424733));
#41 = CARTESIAN_POINT('',(0.196349540849,6.666248125903));
#42 = CARTESIAN_POINT('',(0.392699081697,6.741126941364));
#43 = CARTESIAN_POINT('',(0.589048622551,6.898613064324));
#44 = CARTESIAN_POINT('',(0.785398163393,7.132379266783));
#45 = CARTESIAN_POINT('',(0.981747704247,7.429275932016));
#46 = CARTESIAN_POINT('',(1.178097245095,7.770702131638));
#47 = CARTESIAN_POINT('',(1.374446785946,8.13528163527));
#48 = CARTESIAN_POINT('',(1.718058482432,8.776162437825));
#49 = CARTESIAN_POINT('',(1.865320638069,9.051747019778));
#50 = CARTESIAN_POINT('',(2.012582793706,9.319177228522));
#51 = CARTESIAN_POINT('',(2.159844949343,9.569332245607));
#52 = CARTESIAN_POINT('',(2.30710710498,9.79368284858));
#53 = CARTESIAN_POINT('',(2.454369260617,9.984917957459));
#54 = CARTESIAN_POINT('',(2.601631416254,10.137439925086));
#55 = CARTESIAN_POINT('',(2.969786805347,10.41285868519));
#56 = CARTESIAN_POINT('',(3.190680038796,10.482812514894));
#57 = CARTESIAN_POINT('',(3.41157327226,10.445183250118));
#58 = CARTESIAN_POINT('',(3.632466505671,10.297599159785));
#59 = CARTESIAN_POINT('',(3.853359739176,10.049543221692));
#60 = CARTESIAN_POINT('',(4.074252972621,9.721642200902));
#61 = CARTESIAN_POINT('',(4.29514620608,9.341490250144));
#62 = CARTESIAN_POINT('',(4.736932672991,8.536537865747));
#63 = CARTESIAN_POINT('',(4.957825906449,8.111736986577));
#64 = CARTESIAN_POINT('',(5.178719139873,7.694539054326));
#65 = CARTESIAN_POINT('',(5.399612373403,7.317181911261));
#66 = CARTESIAN_POINT('',(5.620505606777,7.009598333025));
#67 = CARTESIAN_POINT('',(5.841398840271,6.79398219327));
#68 = CARTESIAN_POINT('',(6.062292073724,6.681761260916));
#69 = CARTESIAN_POINT('',(6.28318530718,6.673548424733));
#70 = ( GEOMETRIC_REPRESENTATION_CONTEXT(2) 
PARAMETRIC_REPRESENTATION_CONTEXT() REPRESENTATION_CONTEXT('2D SPACE',''
  ) );
#71 = PCURVE('',#72,#77);
#72 = PLANE('',#73);
#73 = AXIS2_PLACEMENT_3D('',#74,#75,#76);
#74 = CARTESIAN_POINT('',(-186.,-110.,-8.));
#75 = DIRECTION('',(-1.,0.,0.));
#76 = DIRECTION('',(0.,0.,-1.));
#77 = DEFINITIONAL_REPRESENTATION('',(#78),#82);
#78 = ELLIPSE('',#79,5.336674595851,5.);
#79 = AXIS2_PLACEMENT_2D('',#80,#81);
#80 = CARTESIAN_POINT('',(6.349206349206E-02,-2.984126984127));
#81 = DIRECTION('',(2.127178149058E-02,-0.999773730057));
#82 = ( GEOMETRIC_REPRESENTATION_CONTEXT(2) 
PARAMETRIC_REPRESENTATION_CONTEXT() REPRESENTATION_CONTEXT('2D SPACE',''
  ) );
#83 = ORIENTED_EDGE('',*,*,#84,.T.);
#84 = EDGE_CURVE('',#24,#85,#87,.T.);
#85 = VERTEX_POINT('',#86);
#86 = CARTESIAN_POINT('',(-431.7474654816,-20.68469469553,-10.));
#87 = SEAM_CURVE('',#88,(#92,#99),.PCURVE_S1.);
#88 = LINE('',#89,#90);
#89 = CARTESIAN_POINT('',(-179.7474654816,-114.6846946955,-8.));
#90 = VECTOR('',#91,1.);
#91 = DIRECTION('',(-0.936913036423,0.349483434221,-7.435817749389E-03)
  );
#92 = PCURVE('',#33,#93);
#93 = DEFINITIONAL_REPRESENTATION('',(#94),#98);
#94 = LINE('',#95,#96);
#95 = CARTESIAN_POINT('',(0.,-0.));
#96 = VECTOR('',#97,1.);
#97 = DIRECTION('',(0.,1.));
#98 = ( GEOMETRIC_REPRESENTATION_CONTEXT(2) 
PARAMETRIC_REPRESENTATION_CONTEXT() REPRESENTATION_CONTEXT('2D SPACE',''
  ) );
#99 = PCURVE('',#33,#100);
#100 = DEFINITIONAL_REPRESENTATION('',(#101),#105);
#101 = LINE('',#102,#103);
#102 = CARTESIAN_POINT('',(6.28318530718,-0.));
#103 = VECTOR('',#104,1.);
#104 = DIRECTION('',(0.,1.));
#105 = ( GEOMETRIC_REPRESENTATION_CONTEXT(2) 
PARAMETRIC_REPRESENTATION_CONTEXT() REPRESENTATION_CONTEXT('2D SPACE',''
  ) );
#106 = ORIENTED_EDGE('',*,*,#107,.F.);
#107 = EDGE_CURVE('',#108,#85,#110,.T.);
#108 = VERTEX_POINT('',#109);
#109 = CARTESIAN_POINT('',(-431.4713140617,-20.,-12.61442822272));
#110 = SURFACE_CURVE('',#111,(#116,#123),.PCURVE_S1.);
#111 = CIRCLE('',#112,5.);
#112 = AXIS2_PLACEMENT_3D('',#113,#114,#115);
#113 = CARTESIAN_POINT('',(-430.,-16.,-10.));
#114 = DIRECTION('',(-0.936913036423,0.349483434221,-7.435817749389E-03)
  );
#115 = DIRECTION('',(-0.349493096334,-0.936938939107,4.336808689942E-19)
  );
#116 = PCURVE('',#33,#117);
#117 = DEFINITIONAL_REPRESENTATION('',(#118),#122);
#118 = LINE('',#119,#120);
#119 = CARTESIAN_POINT('',(0.,268.96839963088));
#120 = VECTOR('',#121,1.);
#121 = DIRECTION('',(1.,0.));
#122 = ( GEOMETRIC_REPRESENTATION_CONTEXT(2) 
PARAMETRIC_REPRESENTATION_CONTEXT() REPRESENTATION_CONTEXT('2D SPACE',''
  ) );
#123 = PCURVE('',#124,#129);
#124 = PLANE('',#125);
#125 = AXIS2_PLACEMENT_3D('',#126,#127,#128);
#126 = CARTESIAN_POINT('',(-430.,-16.,-10.));
#127 = DIRECTION('',(-0.936913036423,0.349483434221,-7.435817749389E-03)
  );
#128 = DIRECTION('',(-0.349493096334,-0.936938939107,0.));
#129 = DEFINITIONAL_REPRESENTATION('',(#130),#134);
#130 = CIRCLE('',#131,5.);
#131 = AXIS2_PLACEMENT_2D('',#132,#133);
#132 = CARTESIAN_POINT('',(0.,0.));
#133 = DIRECTION('',(1.,0.));
#134 = ( GEOMETRIC_REPRESENTATION_CONTEXT(2) 
PARAMETRIC_REPRESENTATION_CONTEXT() REPRESENTATION_CONTEXT('2D SPACE',''
  ) );
#135 = ORIENTED_EDGE('',*,*,#136,.F.);
#136 = EDGE_CURVE('',#137,#108,#139,.T.);
#137 = VERTEX_POINT('',#138);
#138 = CARTESIAN_POINT('',(-423.5390542475,-20.,-14.71764559754));
#139 = SURFACE_CURVE('',#140,(#145,#157),.PCURVE_S1.);
#140 = ELLIPSE('',#141,14.3068297676,5.);
#141 = AXIS2_PLACEMENT_3D('',#142,#143,#144);
#142 = CARTESIAN_POINT('',(-419.2765957446,-20.,-9.914893617021));
#143 = DIRECTION('',(0.,1.,0.));
#144 = DIRECTION('',(-0.999968507409,0.,-7.936257995307E-03));
#145 = PCURVE('',#33,#146);
#146 = DEFINITIONAL_REPRESENTATION('',(#147),#156);
#147 = B_SPLINE_CURVE_WITH_KNOTS('',7,(#148,#149,#150,#151,#152,#153,
    #154,#155),.UNSPECIFIED.,.F.,.F.,(8,8),(4.793767980381,
    5.735709349238),.PIECEWISE_BEZIER_KNOTS.);
#148 = CARTESIAN_POINT('',(4.790994309444,258.61259141951));
#149 = CARTESIAN_POINT('',(4.925557362138,260.41039625012));
#150 = CARTESIAN_POINT('',(5.060120414832,262.18518186002));
#151 = CARTESIAN_POINT('',(5.194683467527,263.88377918876));
#152 = CARTESIAN_POINT('',(5.32924652022,265.45403449679));
#153 = CARTESIAN_POINT('',(5.463809572914,266.84876280378));
#154 = CARTESIAN_POINT('',(5.598372625607,268.02947480441));
#155 = CARTESIAN_POINT('',(5.732935678301,268.96840023088));
#156 = ( GEOMETRIC_REPRESENTATION_CONTEXT(2) 
PARAMETRIC_REPRESENTATION_CONTEXT() REPRESENTATION_CONTEXT('2D SPACE',''
  ) );
#157 = PCURVE('',#158,#163);
#158 = PLANE('',#159);
#159 = AXIS2_PLACEMENT_3D('',#160,#161,#162);
#160 = CARTESIAN_POINT('',(-430.,-20.,-10.));
#161 = DIRECTION('',(0.,1.,0.));
#162 = DIRECTION('',(0.,-0.,1.));
#163 = DEFINITIONAL_REPRESENTATION('',(#164),#168);
#164 = ELLIPSE('',#165,14.3068297676,5.);
#165 = AXIS2_PLACEMENT_2D('',#166,#167);
#166 = CARTESIAN_POINT('',(8.510638297872E-02,10.723404255319));
#167 = DIRECTION('',(-7.936257995307E-03,-0.999968507409));
#168 = ( GEOMETRIC_REPRESENTATION_CONTEXT(2) 
PARAMETRIC_REPRESENTATION_CONTEXT() REPRESENTATION_CONTEXT('2D SPACE',''
  ) );
#169 = ORIENTED_EDGE('',*,*,#170,.F.);
#170 = EDGE_CURVE('',#171,#137,#173,.T.);
#171 = VERTEX_POINT('',#172);
#172 = CARTESIAN_POINT('',(-423.6147466694,-20.,-5.180400441476));
#173 = SURFACE_CURVE('',#174,(#237,#303),.PCURVE_S1.);
#174 = B_SPLINE_CURVE_WITH_KNOTS('',7,(#175,#176,#177,#178,#179,#180,
    #181,#182,#183,#184,#185,#186,#187,#188,#189,#190,#191,#192,#193,
    #194,#195,#196,#197,#198,#199,#200,#201,#202,#203,#204,#205,#206,
    #207,#208,#209,#210,#211,#212,#213,#214,#215,#216,#217,#218,#219,
    #220,#221,#222,#223,#224,#225,#226,#227,#228,#229,#230,#231,#232,
    #233,#234,#235,#236),.UNSPECIFIED.,.F.,.F.,(8,6,6,6,6,6,6,6,6,6,8),(
    0.,0.117798207519,0.178731775494,0.337489987408,0.412212491364,
    0.500007266219,0.587802041073,0.6627981659,0.821964077284,
    0.883200485332,1.),.UNSPECIFIED.);
#175 = CARTESIAN_POINT('',(-423.6147465465,-20.0000006,-5.180400604286)
  );
#176 = CARTESIAN_POINT('',(-423.6684916734,-19.73759295957,
    -5.10919629265));
#177 = CARTESIAN_POINT('',(-423.7148270824,-19.47083476753,
    -5.049735650087));
#178 = CARTESIAN_POINT('',(-423.752490935,-19.20027084828,
    -5.002612633629));
#179 = CARTESIAN_POINT('',(-423.780184815,-18.9264171607,-4.968568462117
    ));
#180 = CARTESIAN_POINT('',(-423.7966007353,-18.64975677244,
    -4.948527792335));
#181 = CARTESIAN_POINT('',(-423.8004872656,-18.37074431364,
    -4.943689081944));
#182 = CARTESIAN_POINT('',(-423.785720454,-17.94450441401,
    -4.961866072499));
#183 = CARTESIAN_POINT('',(-423.7770460558,-17.79878647978,
    -4.972558645377));
#184 = CARTESIAN_POINT('',(-423.7645961621,-17.6529117936,
    -4.987951221923));
#185 = CARTESIAN_POINT('',(-423.7482768019,-17.50711554882,
    -5.008243380412));
#186 = CARTESIAN_POINT('',(-423.7280379995,-17.36162199572,
    -5.033633353163));
#187 = CARTESIAN_POINT('',(-423.7038763144,-17.21664499109,
    -5.064321466388));
#188 = CARTESIAN_POINT('',(-423.6027838753,-16.69653832733,
    -5.194809637866));
#189 = CARTESIAN_POINT('',(-423.5037136586,-16.32715069864,
    -5.326075293934));
#190 = CARTESIAN_POINT('',(-423.3799643936,-15.96850054597,
    -5.497204830654));
#191 = CARTESIAN_POINT('',(-423.2353817812,-15.62467734119,
    -5.71071521739));
#192 = CARTESIAN_POINT('',(-423.0766016638,-15.30018234743,
    -5.96846234869));
#193 = CARTESIAN_POINT('',(-422.9121460523,-15.00011719999,
    -6.270762454577));
#194 = CARTESIAN_POINT('',(-422.675329553,-14.60268544727,
    -6.777997619529));
#195 = CARTESIAN_POINT('',(-422.6001120478,-14.48178618266,
    -6.950169254592));
#196 = CARTESIAN_POINT('',(-422.5264096481,-14.36777711701,
    -7.132089774472));
#197 = CARTESIAN_POINT('',(-422.4551986639,-14.26126447539,
    -7.323596598226));
#198 = CARTESIAN_POINT('',(-422.3874694051,-14.1628703386,
    -7.524449398309));
#199 = CARTESIAN_POINT('',(-422.3242064049,-14.07323881022,
    -7.734326283548));
#200 = CARTESIAN_POINT('',(-422.1984124971,-13.89881561987,
    -8.209537892507));
#201 = CARTESIAN_POINT('',(-422.1377914138,-13.81739967335,
    -8.478735149402));
#202 = CARTESIAN_POINT('',(-422.0864824174,-13.75048782007,-8.7584977164
    ));
#203 = CARTESIAN_POINT('',(-422.046138704,-13.69934322874,
    -9.046624686218));
#204 = CARTESIAN_POINT('',(-422.017959785,-13.66484876879,
    -9.340704939686));
#205 = CARTESIAN_POINT('',(-422.0026195061,-13.64752647609,
    -9.638196693394));
#206 = CARTESIAN_POINT('',(-421.9978843753,-13.64752647609,
    -10.23482317868));
#207 = CARTESIAN_POINT('',(-422.0085009279,-13.66484876879,
    -10.53252093898));
#208 = CARTESIAN_POINT('',(-422.0320086507,-13.69934322873,
    -10.82701140389));
#209 = CARTESIAN_POINT('',(-422.0677741261,-13.75048782007,
    -11.11574241489));
#210 = CARTESIAN_POINT('',(-422.1146362632,-13.81739967335,
    -11.39628411787));
#211 = CARTESIAN_POINT('',(-422.170977007,-13.89881561987,
    -11.66640964324));
#212 = CARTESIAN_POINT('',(-422.2894115687,-14.07353247638,
    -12.14436134036));
#213 = CARTESIAN_POINT('',(-422.3495752325,-14.16352678917,
    -12.35595638474));
#214 = CARTESIAN_POINT('',(-422.4143781489,-14.26234555758,
    -12.55853234761));
#215 = CARTESIAN_POINT('',(-422.4828302455,-14.3693378665,
    -12.75174862625));
#216 = CARTESIAN_POINT('',(-422.5539343568,-14.48387516562,
    -12.93534711691));
#217 = CARTESIAN_POINT('',(-422.626706401,-14.60534498495,
    -13.10914871459));
#218 = CARTESIAN_POINT('',(-422.856163192,-15.00437666747,-13.6209006886
    ));
#219 = CARTESIAN_POINT('',(-423.0161874902,-15.30555611894,
    -13.92599814511));
#220 = CARTESIAN_POINT('',(-423.1711268554,-15.63124564683,
    -14.18622567552));
#221 = CARTESIAN_POINT('',(-423.312394102,-15.97630189811,
    -14.40177310253));
#222 = CARTESIAN_POINT('',(-423.4332937532,-16.33618618687,
    -14.57441688324));
#223 = CARTESIAN_POINT('',(-423.5299508296,-16.70677151353,
    -14.70664269856));
#224 = CARTESIAN_POINT('',(-423.6283613405,-17.22876695084,
    -14.83779870275));
#225 = CARTESIAN_POINT('',(-423.6518723676,-17.37450883266,
    -14.86862834515));
#226 = CARTESIAN_POINT('',(-423.67150556,-17.52075641595,-14.89405660126
    ));
#227 = CARTESIAN_POINT('',(-423.6872641419,-17.66729426495,
    -14.91428743378));
#228 = CARTESIAN_POINT('',(-423.6991984179,-17.81389631494,
    -14.9295230702));
#229 = CARTESIAN_POINT('',(-423.7074030667,-17.96032530268,
    -14.93996755786));
#230 = CARTESIAN_POINT('',(-423.7208099495,-18.38481904699,
    -14.95701268069));
#231 = CARTESIAN_POINT('',(-423.7165205188,-18.66139520546,
    -14.95151191312));
#232 = CARTESIAN_POINT('',(-423.7001910628,-18.93563494408,
    -14.93091020158));
#233 = CARTESIAN_POINT('',(-423.6730256158,-19.20709776195,
    -14.89638994724));
#234 = CARTESIAN_POINT('',(-423.6362847896,-19.47531632827,
    -14.84886985261));
#235 = CARTESIAN_POINT('',(-423.5912213814,-19.73979238363,
    -14.78908992998));
#236 = CARTESIAN_POINT('',(-423.5390541272,-20.0000006,-14.7176454328));
#237 = PCURVE('',#33,#238);
#238 = DEFINITIONAL_REPRESENTATION('',(#239),#302);
#239 = B_SPLINE_CURVE_WITH_KNOTS('',7,(#240,#241,#242,#243,#244,#245,
    #246,#247,#248,#249,#250,#251,#252,#253,#254,#255,#256,#257,#258,
    #259,#260,#261,#262,#263,#264,#265,#266,#267,#268,#269,#270,#271,
    #272,#273,#274,#275,#276,#277,#278,#279,#280,#281,#282,#283,#284,
    #285,#286,#287,#288,#289,#290,#291,#292,#293,#294,#295,#296,#297,
    #298,#299,#300,#301),.UNSPECIFIED.,.F.,.F.,(8,6,6,6,6,6,6,6,6,6,8),(
    0.,0.117798207519,0.178731775494,0.337489987408,0.412212491364,
    0.500007266219,0.587802041073,0.6627981659,0.821964077284,
    0.883200485332,1.),.UNSPECIFIED.);
#240 = CARTESIAN_POINT('',(1.262714995278,261.55220082017));
#241 = CARTESIAN_POINT('',(1.310374205073,261.69373299129));
#242 = CARTESIAN_POINT('',(1.358589293184,261.82993067056));
#243 = CARTESIAN_POINT('',(1.407486591981,261.95942563459));
#244 = CARTESIAN_POINT('',(1.457211585737,262.08082657279));
#245 = CARTESIAN_POINT('',(1.507932117798,262.19274606629));
#246 = CARTESIAN_POINT('',(1.559849878827,262.29386165977));
#247 = CARTESIAN_POINT('',(1.640827070201,262.42912538617));
#248 = CARTESIAN_POINT('',(1.668802015802,262.47200374154));
#249 = CARTESIAN_POINT('',(1.697144492826,262.51143451651));
#250 = CARTESIAN_POINT('',(1.725857115768,262.54724895629));
#251 = CARTESIAN_POINT('',(1.754945827935,262.57932334024));
#252 = CARTESIAN_POINT('',(1.784420095665,262.6075811952));
#253 = CARTESIAN_POINT('',(1.892125163177,262.69560532043));
#254 = CARTESIAN_POINT('',(1.972338966468,262.7328560674));
#255 = CARTESIAN_POINT('',(2.054976231048,262.7435285428));
#256 = CARTESIAN_POINT('',(2.140134432279,262.72981534713));
#257 = CARTESIAN_POINT('',(2.227853477643,262.69637437073));
#258 = CARTESIAN_POINT('',(2.31813027283,262.64940941109));
#259 = CARTESIAN_POINT('',(2.454519056569,262.57020046775));
#260 = CARTESIAN_POINT('',(2.498821642224,262.54326073357));
#261 = CARTESIAN_POINT('',(2.543780862946,262.51540500216));
#262 = CARTESIAN_POINT('',(2.589404249499,262.48733491632));
#263 = CARTESIAN_POINT('',(2.635704153812,262.45975911647));
#264 = CARTESIAN_POINT('',(2.682698567048,262.43337252749));
#265 = CARTESIAN_POINT('',(2.786472487199,262.38000617783));
#266 = CARTESIAN_POINT('',(2.843653116504,262.35366472092));
#267 = CARTESIAN_POINT('',(2.901707026612,262.33105750108));
#268 = CARTESIAN_POINT('',(2.960427726805,262.31327559712));
#269 = CARTESIAN_POINT('',(3.019633651615,262.30111637005));
#270 = CARTESIAN_POINT('',(3.079154455134,262.29500981156));
#271 = CARTESIAN_POINT('',(3.198483510173,262.29500981156));
#272 = CARTESIAN_POINT('',(3.258004313691,262.30111637005));
#273 = CARTESIAN_POINT('',(3.317210238502,262.31327559712));
#274 = CARTESIAN_POINT('',(3.375930938695,262.33105750108));
#275 = CARTESIAN_POINT('',(3.433984848802,262.35366472092));
#276 = CARTESIAN_POINT('',(3.491165478107,262.38000617783));
#277 = CARTESIAN_POINT('',(3.59511411636,262.4334623773));
#278 = CARTESIAN_POINT('',(3.642277910902,262.45995235891));
#279 = CARTESIAN_POINT('',(3.688742234864,262.48763785156));
#280 = CARTESIAN_POINT('',(3.734525322263,262.5158161947));
#281 = CARTESIAN_POINT('',(3.779639666913,262.5437708798));
#282 = CARTESIAN_POINT('',(3.824092871819,262.57079262405));
#283 = CARTESIAN_POINT('',(3.960836912419,262.6501240145));
#284 = CARTESIAN_POINT('',(4.05131524928,262.69706428572));
#285 = CARTESIAN_POINT('',(4.139224763131,262.73034090662));
#286 = CARTESIAN_POINT('',(4.224560844127,262.74370735924));
#287 = CARTESIAN_POINT('',(4.307362411021,262.73248996911));
#288 = CARTESIAN_POINT('',(4.387726697457,262.69451901844));
#289 = CARTESIAN_POINT('',(4.495689644344,262.60526760306));
#290 = CARTESIAN_POINT('',(4.525282908143,262.57659026108));
#291 = CARTESIAN_POINT('',(4.554486810437,262.54406282726));
#292 = CARTESIAN_POINT('',(4.583311238883,262.50776513015));
#293 = CARTESIAN_POINT('',(4.61176245532,262.46782481038));
#294 = CARTESIAN_POINT('',(4.639843297723,262.42441501067));
#295 = CARTESIAN_POINT('',(4.720406325584,262.28874930677));
#296 = CARTESIAN_POINT('',(4.771839224337,262.18803079487));
#297 = CARTESIAN_POINT('',(4.822099983541,262.07673607844));
#298 = CARTESIAN_POINT('',(4.871385145115,261.95615597282));
#299 = CARTESIAN_POINT('',(4.919858718078,261.82764171735));
#300 = CARTESIAN_POINT('',(4.967663225785,261.69254671005));
#301 = CARTESIAN_POINT('',(5.014922970028,261.55220082017));
#302 = ( GEOMETRIC_REPRESENTATION_CONTEXT(2) 
PARAMETRIC_REPRESENTATION_CONTEXT() REPRESENTATION_CONTEXT('2D SPACE',''
  ) );
#303 = PCURVE('',#304,#309);
#304 = CYLINDRICAL_SURFACE('',#305,8.);
#305 = AXIS2_PLACEMENT_3D('',#306,#307,#308);
#306 = CARTESIAN_POINT('',(-430.,-20.,-10.));
#307 = DIRECTION('',(0.,1.,0.));
#308 = DIRECTION('',(0.,-0.,1.));
#309 = DEFINITIONAL_REPRESENTATION('',(#310),#373);
#310 = B_SPLINE_CURVE_WITH_KNOTS('',7,(#311,#312,#313,#314,#315,#316,
    #317,#318,#319,#320,#321,#322,#323,#324,#325,#326,#327,#328,#329,
    #330,#331,#332,#333,#334,#335,#336,#337,#338,#339,#340,#341,#342,
    #343,#344,#345,#346,#347,#348,#349,#350,#351,#352,#353,#354,#355,
    #356,#357,#358,#359,#360,#361,#362,#363,#364,#365,#366,#367,#368,
    #369,#370,#371,#372),.UNSPECIFIED.,.F.,.F.,(8,6,6,6,6,6,6,6,6,6,8),(
    0.,0.117798207519,0.178731775494,0.337489987408,0.412212491364,
    0.500007266219,0.587802041073,0.6627981659,0.821964077284,
    0.883200485332,1.),.UNSPECIFIED.);
#311 = CARTESIAN_POINT('',(0.924229282636,-6.E-07));
#312 = CARTESIAN_POINT('',(0.913077914541,0.262407040429));
#313 = CARTESIAN_POINT('',(0.903656224431,0.529165232464));
#314 = CARTESIAN_POINT('',(0.896116129819,0.79972915172));
#315 = CARTESIAN_POINT('',(0.890630474633,1.073582839298));
#316 = CARTESIAN_POINT('',(0.887392185303,1.350243227552));
#317 = CARTESIAN_POINT('',(0.88661643654,1.629255686354));
#318 = CARTESIAN_POINT('',(0.889543843966,2.055495585986));
#319 = CARTESIAN_POINT('',(0.891264916714,2.201213520212));
#320 = CARTESIAN_POINT('',(0.893739588415,2.347088206397));
#321 = CARTESIAN_POINT('',(0.896994594055,2.492884451171));
#322 = CARTESIAN_POINT('',(0.901053160065,2.638378004277));
#323 = CARTESIAN_POINT('',(0.905935304151,2.783355008903));
#324 = CARTESIAN_POINT('',(0.926568576784,3.303461672665));
#325 = CARTESIAN_POINT('',(0.947123895154,3.672849301355));
#326 = CARTESIAN_POINT('',(0.97351286866,4.031499454027));
#327 = CARTESIAN_POINT('',(1.00571463575,4.375322658801));
#328 = CARTESIAN_POINT('',(1.043480355631,4.699817652567));
#329 = CARTESIAN_POINT('',(1.086416444539,4.99988280001));
#330 = CARTESIAN_POINT('',(1.156390721832,5.397314552725));
#331 = CARTESIAN_POINT('',(1.179869100297,5.51821381734));
#332 = CARTESIAN_POINT('',(1.204389750543,5.632222882983));
#333 = CARTESIAN_POINT('',(1.22990921231,5.738735524603));
#334 = CARTESIAN_POINT('',(1.256383269411,5.837129661392));
#335 = CARTESIAN_POINT('',(1.283767915977,5.926761189778));
#336 = CARTESIAN_POINT('',(1.345215324961,6.101184380122));
#337 = CARTESIAN_POINT('',(1.379683715056,6.18260032665));
#338 = CARTESIAN_POINT('',(1.415190505987,6.249512179927));
#339 = CARTESIAN_POINT('',(1.451497717414,6.30065677126));
#340 = CARTESIAN_POINT('',(1.488369098529,6.335151231205));
#341 = CARTESIAN_POINT('',(1.525569655788,6.352473523903));
#342 = CARTESIAN_POINT('',(1.600150315187,6.352473523903));
#343 = CARTESIAN_POINT('',(1.637350872446,6.335151231205));
#344 = CARTESIAN_POINT('',(1.674222253561,6.300656771261));
#345 = CARTESIAN_POINT('',(1.710529464987,6.249512179927));
#346 = CARTESIAN_POINT('',(1.746036255919,6.18260032665));
#347 = CARTESIAN_POINT('',(1.780504646013,6.101184380122));
#348 = CARTESIAN_POINT('',(1.842055510419,5.926467523618));
#349 = CARTESIAN_POINT('',(1.86953721089,5.836473210822));
#350 = CARTESIAN_POINT('',(1.896101508497,5.737654442412));
#351 = CARTESIAN_POINT('',(1.921703945999,5.630662133494));
#352 = CARTESIAN_POINT('',(1.946299840338,5.516124834375));
#353 = CARTESIAN_POINT('',(1.969845272869,5.394655015047));
#354 = CARTESIAN_POINT('',(2.039950161012,4.99562333253));
#355 = CARTESIAN_POINT('',(2.082933262106,4.694443881053));
#356 = CARTESIAN_POINT('',(2.120715271216,4.368754353165));
#357 = CARTESIAN_POINT('',(2.152899394291,4.023698101888));
#358 = CARTESIAN_POINT('',(2.179236178659,3.663813813122));
#359 = CARTESIAN_POINT('',(2.199708017336,3.293228486468));
#360 = CARTESIAN_POINT('',(2.220204406533,2.771233049154));
#361 = CARTESIAN_POINT('',(2.225050718038,2.625491167334));
#362 = CARTESIAN_POINT('',(2.229066323772,2.479243584046));
#363 = CARTESIAN_POINT('',(2.232271815068,2.332705735045));
#364 = CARTESIAN_POINT('',(2.234690997823,2.186103685059));
#365 = CARTESIAN_POINT('',(2.236351199194,2.039674697313));
#366 = CARTESIAN_POINT('',(2.239061943781,1.61518095301));
#367 = CARTESIAN_POINT('',(2.2381900388,1.338604794533));
#368 = CARTESIAN_POINT('',(2.234903922877,1.064365055919));
#369 = CARTESIAN_POINT('',(2.229413072135,0.792902238048));
#370 = CARTESIAN_POINT('',(2.221905259087,0.524683671728));
#371 = CARTESIAN_POINT('',(2.212548588929,0.260207616368));
#372 = CARTESIAN_POINT('',(2.201490688339,-6.E-07));
#373 = ( GEOMETRIC_REPRESENTATION_CONTEXT(2) 
PARAMETRIC_REPRESENTATION_CONTEXT() REPRESENTATION_CONTEXT('2D SPACE',''
  ) );
#374 = ORIENTED_EDGE('',*,*,#375,.F.);
#375 = EDGE_CURVE('',#376,#171,#378,.T.);
#376 = VERTEX_POINT('',#377);
#377 = CARTESIAN_POINT('',(-431.5126249695,-20.,-7.409253833081));
#378 = SURFACE_CURVE('',#379,(#384,#396),.PCURVE_S1.);
#379 = ELLIPSE('',#380,14.3068297676,5.);
#380 = AXIS2_PLACEMENT_3D('',#381,#382,#383);
#381 = CARTESIAN_POINT('',(-419.2765957446,-20.,-9.914893617021));
#382 = DIRECTION('',(0.,1.,0.));
#383 = DIRECTION('',(-0.999968507409,0.,-7.936257995307E-03));
#384 = PCURVE('',#33,#385);
#385 = DEFINITIONAL_REPRESENTATION('',(#386),#395);
#386 = B_SPLINE_CURVE_WITH_KNOTS('',7,(#387,#388,#389,#390,#391,#392,
    #393,#394),.UNSPECIFIED.,.F.,.F.,(8,8),(0.547475957942,
    1.494964668672),.PIECEWISE_BEZIER_KNOTS.);
#387 = CARTESIAN_POINT('',(0.544702287005,268.96840023088));
#388 = CARTESIAN_POINT('',(0.68005781711,268.02394522422));
#389 = CARTESIAN_POINT('',(0.815413347214,266.83484736162));
#390 = CARTESIAN_POINT('',(0.950768877318,265.42937048361));
#391 = CARTESIAN_POINT('',(1.086124407423,263.84675206572));
#392 = CARTESIAN_POINT('',(1.221479937527,262.13512002008));
#393 = CARTESIAN_POINT('',(1.356835467631,260.34764372875));
#394 = CARTESIAN_POINT('',(1.492190997736,258.53846079641));
#395 = ( GEOMETRIC_REPRESENTATION_CONTEXT(2) 
PARAMETRIC_REPRESENTATION_CONTEXT() REPRESENTATION_CONTEXT('2D SPACE',''
  ) );
#396 = PCURVE('',#158,#397);
#397 = DEFINITIONAL_REPRESENTATION('',(#398),#402);
#398 = ELLIPSE('',#399,14.3068297676,5.);
#399 = AXIS2_PLACEMENT_2D('',#400,#401);
#400 = CARTESIAN_POINT('',(8.510638297872E-02,10.723404255319));
#401 = DIRECTION('',(-7.936257995307E-03,-0.999968507409));
#402 = ( GEOMETRIC_REPRESENTATION_CONTEXT(2) 
PARAMETRIC_REPRESENTATION_CONTEXT() REPRESENTATION_CONTEXT('2D SPACE',''
  ) );
#403 = ORIENTED_EDGE('',*,*,#404,.F.);
#404 = EDGE_CURVE('',#85,#376,#405,.T.);
#405 = SURFACE_CURVE('',#406,(#411,#418),.PCURVE_S1.);
#406 = CIRCLE('',#407,5.);
#407 = AXIS2_PLACEMENT_3D('',#408,#409,#410);
#408 = CARTESIAN_POINT('',(-430.,-16.,-10.));
#409 = DIRECTION('',(-0.936913036423,0.349483434221,-7.435817749389E-03)
  );
#410 = DIRECTION('',(-0.349493096334,-0.936938939107,4.336808689942E-19)
  );
#411 = PCURVE('',#33,#412);
#412 = DEFINITIONAL_REPRESENTATION('',(#413),#417);
#413 = LINE('',#414,#415);
#414 = CARTESIAN_POINT('',(0.,268.96839963088));
#415 = VECTOR('',#416,1.);
#416 = DIRECTION('',(1.,0.));
#417 = ( GEOMETRIC_REPRESENTATION_CONTEXT(2) 
PARAMETRIC_REPRESENTATION_CONTEXT() REPRESENTATION_CONTEXT('2D SPACE',''
  ) );
#418 = PCURVE('',#124,#419);
#419 = DEFINITIONAL_REPRESENTATION('',(#420),#424);
#420 = CIRCLE('',#421,5.);
#421 = AXIS2_PLACEMENT_2D('',#422,#423);
#422 = CARTESIAN_POINT('',(0.,0.));
#423 = DIRECTION('',(1.,0.));
#424 = ( GEOMETRIC_REPRESENTATION_CONTEXT(2) 
PARAMETRIC_REPRESENTATION_CONTEXT() REPRESENTATION_CONTEXT('2D SPACE',''
  ) );
#425 = ORIENTED_EDGE('',*,*,#84,.F.);
#426 = ORIENTED_EDGE('',*,*,#427,.T.);
#427 = EDGE_CURVE('',#24,#428,#430,.T.);
#428 = VERTEX_POINT('',#429);
#429 = CARTESIAN_POINT('',(-186.,-102.3568461895,-5.637332052664));
#430 = SURFACE_CURVE('',#431,(#436,#470),.PCURVE_S1.);
#431 = ELLIPSE('',#432,5.336674595851,5.);
#432 = AXIS2_PLACEMENT_3D('',#433,#434,#435);
#433 = CARTESIAN_POINT('',(-186.,-107.0158730158,-8.063492063492));
#434 = DIRECTION('',(-1.,0.,0.));
#435 = DIRECTION('',(0.,0.999773730057,-2.127178149058E-02));
#436 = PCURVE('',#33,#437);
#437 = DEFINITIONAL_REPRESENTATION('',(#438),#469);
#438 = B_SPLINE_CURVE_WITH_KNOTS('',8,(#439,#440,#441,#442,#443,#444,
    #445,#446,#447,#448,#449,#450,#451,#452,#453,#454,#455,#456,#457,
    #458,#459,#460,#461,#462,#463,#464,#465,#466,#467,#468),
  .UNSPECIFIED.,.F.,.F.,(9,7,7,7,9),(3.121660973517,4.692457300312,
    5.870554545408,7.637700413053,9.404846280697),.UNSPECIFIED.);
#439 = CARTESIAN_POINT('',(7.815970093361E-15,6.673548424733));
#440 = CARTESIAN_POINT('',(0.196349540849,6.666248125903));
#441 = CARTESIAN_POINT('',(0.392699081697,6.741126941364));
#442 = CARTESIAN_POINT('',(0.589048622551,6.898613064324));
#443 = CARTESIAN_POINT('',(0.785398163393,7.132379266783));
#444 = CARTESIAN_POINT('',(0.981747704247,7.429275932016));
#445 = CARTESIAN_POINT('',(1.178097245095,7.770702131638));
#446 = CARTESIAN_POINT('',(1.374446785946,8.13528163527));
#447 = CARTESIAN_POINT('',(1.718058482432,8.776162437825));
#448 = CARTESIAN_POINT('',(1.865320638069,9.051747019778));
#449 = CARTESIAN_POINT('',(2.012582793706,9.319177228522));
#450 = CARTESIAN_POINT('',(2.159844949343,9.569332245607));
#451 = CARTESIAN_POINT('',(2.30710710498,9.79368284858));
#452 = CARTESIAN_POINT('',(2.454369260617,9.984917957459));
#453 = CARTESIAN_POINT('',(2.601631416254,10.137439925086));
#454 = CARTESIAN_POINT('',(2.969786805347,10.41285868519));
#455 = CARTESIAN_POINT('',(3.190680038796,10.482812514894));
#456 = CARTESIAN_POINT('',(3.41157327226,10.445183250118));
#457 = CARTESIAN_POINT('',(3.632466505671,10.297599159785));
#458 = CARTESIAN_POINT('',(3.853359739176,10.049543221692));
#459 = CARTESIAN_POINT('',(4.074252972621,9.721642200902));
#460 = CARTESIAN_POINT('',(4.29514620608,9.341490250144));
#461 = CARTESIAN_POINT('',(4.736932672991,8.536537865747));
#462 = CARTESIAN_POINT('',(4.957825906449,8.111736986577));
#463 = CARTESIAN_POINT('',(5.178719139873,7.694539054326));
#464 = CARTESIAN_POINT('',(5.399612373403,7.317181911261));
#465 = CARTESIAN_POINT('',(5.620505606777,7.009598333025));
#466 = CARTESIAN_POINT('',(5.841398840271,6.79398219327));
#467 = CARTESIAN_POINT('',(6.062292073724,6.681761260916));
#468 = CARTESIAN_POINT('',(6.28318530718,6.673548424733));
#469 = ( GEOMETRIC_REPRESENTATION_CONTEXT(2) 
PARAMETRIC_REPRESENTATION_CONTEXT() REPRESENTATION_CONTEXT('2D SPACE',''
  ) );
#470 = PCURVE('',#72,#471);
#471 = DEFINITIONAL_REPRESENTATION('',(#472),#476);
#472 = ELLIPSE('',#473,5.336674595851,5.);
#473 = AXIS2_PLACEMENT_2D('',#474,#475);
#474 = CARTESIAN_POINT('',(6.349206349206E-02,-2.984126984127));
#475 = DIRECTION('',(2.127178149058E-02,-0.999773730057));
#476 = ( GEOMETRIC_REPRESENTATION_CONTEXT(2) 
PARAMETRIC_REPRESENTATION_CONTEXT() REPRESENTATION_CONTEXT('2D SPACE',''
  ) );
#477 = ORIENTED_EDGE('',*,*,#478,.T.);
#478 = EDGE_CURVE('',#428,#22,#479,.T.);
#479 = SURFACE_CURVE('',#480,(#523,#569),.PCURVE_S1.);
#480 = B_SPLINE_CURVE_WITH_KNOTS('',6,(#481,#482,#483,#484,#485,#486,
    #487,#488,#489,#490,#491,#492,#493,#494,#495,#496,#497,#498,#499,
    #500,#501,#502,#503,#504,#505,#506,#507,#508,#509,#510,#511,#512,
    #513,#514,#515,#516,#517,#518,#519,#520,#521,#522),.UNSPECIFIED.,.F.
  ,.F.,(7,5,5,5,5,5,5,5,7),(0.,0.218520965795,0.316075280589,
    0.374363812842,0.499999862635,0.625635912428,0.683924444681,
    0.78147875945,1.),.UNSPECIFIED.);
#481 = CARTESIAN_POINT('',(-186.0000006,-102.3568464282,-5.637331280249)
  );
#482 = CARTESIAN_POINT('',(-185.8949449782,-102.315039509,
    -5.772575253235));
#483 = CARTESIAN_POINT('',(-185.7938876315,-102.2737034574,
    -5.916473608781));
#484 = CARTESIAN_POINT('',(-185.6977899059,-102.2334050365,
    -6.069385105807));
#485 = CARTESIAN_POINT('',(-185.6076714404,-102.1948236131,
    -6.231624781363));
#486 = CARTESIAN_POINT('',(-185.5246412752,-102.1587722383,
    -6.403407409095));
#487 = CARTESIAN_POINT('',(-185.4165790184,-102.1116182795,
    -6.665757820574));
#488 = CARTESIAN_POINT('',(-185.3848999481,-102.0977590256,
    -6.748605622039));
#489 = CARTESIAN_POINT('',(-185.3550278374,-102.0846865727,
    -6.833265638602));
#490 = CARTESIAN_POINT('',(-185.3270889698,-102.0724923388,
    -6.919664755475));
#491 = CARTESIAN_POINT('',(-185.3012026339,-102.0612649058,
    -7.007719794298));
#492 = CARTESIAN_POINT('',(-185.2633077682,-102.0450074734,
    -7.150883932357));
#493 = CARTESIAN_POINT('',(-185.2499094503,-102.0393028525,
    -7.204979228255));
#494 = CARTESIAN_POINT('',(-185.2373119635,-102.0339929434,
    -7.259596304257));
#495 = CARTESIAN_POINT('',(-185.2255394754,-102.029095301,
    -7.314703851775));
#496 = CARTESIAN_POINT('',(-185.2146146563,-102.0246263269,
    -7.370266343419));
#497 = CARTESIAN_POINT('',(-185.1828838623,-102.0119255971,
    -7.546899254921));
#498 = CARTESIAN_POINT('',(-185.1652348484,-102.0053076521,
    -7.669540892796));
#499 = CARTESIAN_POINT('',(-185.1518412992,-102.0009071056,
    -7.793691375887));
#500 = CARTESIAN_POINT('',(-185.142857577,-101.9988326762,
    -7.918856193718));
#501 = CARTESIAN_POINT('',(-185.1383631804,-101.9991367766,
    -8.044525255893));
#502 = CARTESIAN_POINT('',(-185.1383631804,-102.0044835424,
    -8.295823247956));
#503 = CARTESIAN_POINT('',(-185.142857577,-102.0095249172,
    -8.421391517058));
#504 = CARTESIAN_POINT('',(-185.1518412992,-102.0169212216,
    -8.546354829914));
#505 = CARTESIAN_POINT('',(-185.1652348484,-102.0265983945,
    -8.670205787061));
#506 = CARTESIAN_POINT('',(-185.1828838623,-102.0384267821,
    -8.792454949773));
#507 = CARTESIAN_POINT('',(-185.2146146563,-102.0586289111,
    -8.968387800451));
#508 = CARTESIAN_POINT('',(-185.2255394754,-102.0654571323,
    -9.023709926238));
#509 = CARTESIAN_POINT('',(-185.2373119635,-102.0726942835,
    -9.078559286657));
#510 = CARTESIAN_POINT('',(-185.2499094503,-102.0803224665,
    -9.132901084104));
#511 = CARTESIAN_POINT('',(-185.2633077682,-102.0883228107,-9.186704785)
  );
#512 = CARTESIAN_POINT('',(-185.3012026339,-102.1106548649,
    -9.329047870131));
#513 = CARTESIAN_POINT('',(-185.3270889698,-102.1256174647,
    -9.416545674244));
#514 = CARTESIAN_POINT('',(-185.3550278374,-102.1414755577,
    -9.502347933112));
#515 = CARTESIAN_POINT('',(-185.3848999481,-102.1581371041,
    -9.586375311375));
#516 = CARTESIAN_POINT('',(-185.4165790184,-102.1755076588,
    -9.668558648801));
#517 = CARTESIAN_POINT('',(-185.5246413692,-102.2337777908,
    -9.928666221815));
#518 = CARTESIAN_POINT('',(-185.6076722291,-102.2771035013,
    -10.09876157787));
#519 = CARTESIAN_POINT('',(-185.6977919033,-102.3225513071,
    -10.25921532829));
#520 = CARTESIAN_POINT('',(-185.7938908108,-102.3693176999,
    -10.41027551706));
#521 = CARTESIAN_POINT('',(-185.8949481524,-102.4167368032,
    -10.55228462934));
#522 = CARTESIAN_POINT('',(-186.0000006,-102.464256911,-10.68562396785)
  );
#523 = PCURVE('',#33,#524);
#524 = DEFINITIONAL_REPRESENTATION('',(#525),#568);
#525 = B_SPLINE_CURVE_WITH_KNOTS('',6,(#526,#527,#528,#529,#530,#531,
    #532,#533,#534,#535,#536,#537,#538,#539,#540,#541,#542,#543,#544,
    #545,#546,#547,#548,#549,#550,#551,#552,#553,#554,#555,#556,#557,
    #558,#559,#560,#561,#562,#563,#564,#565,#566,#567),.UNSPECIFIED.,.F.
  ,.F.,(7,5,5,5,5,5,5,5,7),(0.,0.218520965795,0.316075280589,
    0.374363812842,0.499999862635,0.625635912428,0.683924444681,
    0.78147875945,1.),.UNSPECIFIED.);
#526 = CARTESIAN_POINT('',(2.63220780149,10.14889203805));
#527 = CARTESIAN_POINT('',(2.663331868587,10.066080531717));
#528 = CARTESIAN_POINT('',(2.695783063561,9.9869148534));
#529 = CARTESIAN_POINT('',(2.729592848746,9.912100294064));
#530 = CARTESIAN_POINT('',(2.764795802162,9.84235708188));
#531 = CARTESIAN_POINT('',(2.801424782519,9.77844174033));
#532 = CARTESIAN_POINT('',(2.856513955437,9.695627120478));
#533 = CARTESIAN_POINT('',(2.873799487942,9.671406207371));
#534 = CARTESIAN_POINT('',(2.891356429397,9.648616759591));
#535 = CARTESIAN_POINT('',(2.909173310623,9.627344601159));
#536 = CARTESIAN_POINT('',(2.927238430553,9.607669918613));
#537 = CARTESIAN_POINT('',(2.956474898063,9.578911970665));
#538 = CARTESIAN_POINT('',(2.96749247088,9.568754825227));
#539 = CARTESIAN_POINT('',(2.978588558427,9.559213923519));
#540 = CARTESIAN_POINT('',(2.989758545998,9.550305540558));
#541 = CARTESIAN_POINT('',(3.000997202933,9.542044920068));
#542 = CARTESIAN_POINT('',(3.036658075613,9.518068030279));
#543 = CARTESIAN_POINT('',(3.061320935062,9.504757242141));
#544 = CARTESIAN_POINT('',(3.086212353052,9.494669729771));
#545 = CARTESIAN_POINT('',(3.111259436988,9.48790844477));
#546 = CARTESIAN_POINT('',(3.136388847051,9.48452576021));
#547 = CARTESIAN_POINT('',(3.186659820274,9.48452576021));
#548 = CARTESIAN_POINT('',(3.211789230337,9.48790844477));
#549 = CARTESIAN_POINT('',(3.236836314273,9.494669729771));
#550 = CARTESIAN_POINT('',(3.261727732263,9.504757242141));
#551 = CARTESIAN_POINT('',(3.286390591711,9.518068030279));
#552 = CARTESIAN_POINT('',(3.322051464392,9.542044920068));
#553 = CARTESIAN_POINT('',(3.333290121326,9.550305540558));
#554 = CARTESIAN_POINT('',(3.344460108897,9.559213923519));
#555 = CARTESIAN_POINT('',(3.355556196444,9.568754825227));
#556 = CARTESIAN_POINT('',(3.366573769262,9.578911970665));
#557 = CARTESIAN_POINT('',(3.395810236766,9.607669918608));
#558 = CARTESIAN_POINT('',(3.413875356703,9.627344601159));
#559 = CARTESIAN_POINT('',(3.431692237932,9.648616759596));
#560 = CARTESIAN_POINT('',(3.449249179383,9.671406207374));
#561 = CARTESIAN_POINT('',(3.466534711883,9.695627120471));
#562 = CARTESIAN_POINT('',(3.521623932712,9.778441812349));
#563 = CARTESIAN_POINT('',(3.558253252367,9.84235768743));
#564 = CARTESIAN_POINT('',(3.593456632441,9.912101834588));
#565 = CARTESIAN_POINT('',(3.627266696806,9.986917330318));
#566 = CARTESIAN_POINT('',(3.659717739132,10.066083033814));
#567 = CARTESIAN_POINT('',(3.690840865835,10.14889203805));
#568 = ( GEOMETRIC_REPRESENTATION_CONTEXT(2) 
PARAMETRIC_REPRESENTATION_CONTEXT() REPRESENTATION_CONTEXT('2D SPACE',''
  ) );
#569 = PCURVE('',#570,#575);
#570 = CYLINDRICAL_SURFACE('',#571,8.);
#571 = AXIS2_PLACEMENT_3D('',#572,#573,#574);
#572 = CARTESIAN_POINT('',(-170.,-110.,-8.));
#573 = DIRECTION('',(-1.,0.,0.));
#574 = DIRECTION('',(0.,0.,-1.));
#575 = DEFINITIONAL_REPRESENTATION('',(#576),#619);
#576 = B_SPLINE_CURVE_WITH_KNOTS('',6,(#577,#578,#579,#580,#581,#582,
    #583,#584,#585,#586,#587,#588,#589,#590,#591,#592,#593,#594,#595,
    #596,#597,#598,#599,#600,#601,#602,#603,#604,#605,#606,#607,#608,
    #609,#610,#611,#612,#613,#614,#615,#616,#617,#618),.UNSPECIFIED.,.F.
  ,.F.,(7,5,5,5,5,5,5,5,7),(0.,0.218520965795,0.316075280589,
    0.374363812842,0.499999862635,0.625635912428,0.683924444681,
    0.78147875945,1.),.UNSPECIFIED.);
#577 = CARTESIAN_POINT('',(4.412584315806,16.0000006));
#578 = CARTESIAN_POINT('',(4.430279102613,15.894944978218));
#579 = CARTESIAN_POINT('',(4.44899004748,15.793887631561));
#580 = CARTESIAN_POINT('',(4.468749060934,15.69778990594));
#581 = CARTESIAN_POINT('',(4.489584330497,15.607671440418));
#582 = CARTESIAN_POINT('',(4.511515692069,15.524641275256));
#583 = CARTESIAN_POINT('',(4.544834988804,15.416579018442));
#584 = CARTESIAN_POINT('',(4.555334101521,15.384899948183));
#585 = CARTESIAN_POINT('',(4.566040724509,15.355027837465));
#586 = CARTESIAN_POINT('',(4.576946216531,15.327088969863));
#587 = CARTESIAN_POINT('',(4.588041158303,15.301202633938));
#588 = CARTESIAN_POINT('',(4.606051691043,15.263307768234));
#589 = CARTESIAN_POINT('',(4.612850878116,15.24990945035));
#590 = CARTESIAN_POINT('',(4.619709857751,15.237311963562));
#591 = CARTESIAN_POINT('',(4.626625092672,15.225539475481));
#592 = CARTESIAN_POINT('',(4.633592581347,15.214614656366));
#593 = CARTESIAN_POINT('',(4.655728699303,15.182883862337));
#594 = CARTESIAN_POINT('',(4.671078759895,15.165234848466));
#595 = CARTESIAN_POINT('',(4.686603268489,15.151841299283));
#596 = CARTESIAN_POINT('',(4.702246804429,15.142857577057));
#597 = CARTESIAN_POINT('',(4.717952687277,15.138363180455));
#598 = CARTESIAN_POINT('',(4.749372045541,15.138363180455));
#599 = CARTESIAN_POINT('',(4.765077928389,15.142857577057));
#600 = CARTESIAN_POINT('',(4.780721464329,15.151841299283));
#601 = CARTESIAN_POINT('',(4.796245972922,15.165234848466));
#602 = CARTESIAN_POINT('',(4.811596033514,15.182883862337));
#603 = CARTESIAN_POINT('',(4.83373215147,15.214614656366));
#604 = CARTESIAN_POINT('',(4.840699640145,15.225539475481));
#605 = CARTESIAN_POINT('',(4.847614875066,15.237311963562));
#606 = CARTESIAN_POINT('',(4.854473854702,15.24990945035));
#607 = CARTESIAN_POINT('',(4.861273041774,15.263307768234));
#608 = CARTESIAN_POINT('',(4.879283574512,15.301202633932));
#609 = CARTESIAN_POINT('',(4.890378516288,15.327088969863));
#610 = CARTESIAN_POINT('',(4.901284008311,15.355027837472));
#611 = CARTESIAN_POINT('',(4.911990631297,15.384899948187));
#612 = CARTESIAN_POINT('',(4.922489744011,15.416579018434));
#613 = CARTESIAN_POINT('',(4.955809069724,15.524641369231));
#614 = CARTESIAN_POINT('',(4.977740635944,15.607672229181));
#615 = CARTESIAN_POINT('',(4.998576155952,15.697791903362));
#616 = CARTESIAN_POINT('',(5.018335322552,15.79389081087));
#617 = CARTESIAN_POINT('',(5.037046164841,15.894948152407));
#618 = CARTESIAN_POINT('',(5.054740417011,16.0000006));
#619 = ( GEOMETRIC_REPRESENTATION_CONTEXT(2) 
PARAMETRIC_REPRESENTATION_CONTEXT() REPRESENTATION_CONTEXT('2D SPACE',''
  ) );
#620 = ADVANCED_FACE('',(#621),#72,.T.);
#621 = FACE_BOUND('',#622,.T.);
#622 = EDGE_LOOP('',(#623,#647,#669,#670));
#623 = ORIENTED_EDGE('',*,*,#624,.T.);
#624 = EDGE_CURVE('',#22,#625,#627,.T.);
#625 = VERTEX_POINT('',#626);
#626 = CARTESIAN_POINT('',(-186.,-110.,-16.));
#627 = SURFACE_CURVE('',#628,(#633,#640),.PCURVE_S1.);
#628 = CIRCLE('',#629,8.);
#629 = AXIS2_PLACEMENT_3D('',#630,#631,#632);
#630 = CARTESIAN_POINT('',(-186.,-110.,-8.));
#631 = DIRECTION('',(-1.,0.,0.));
#632 = DIRECTION('',(0.,0.,-1.));
#633 = PCURVE('',#72,#634);
#634 = DEFINITIONAL_REPRESENTATION('',(#635),#639);
#635 = CIRCLE('',#636,8.);
#636 = AXIS2_PLACEMENT_2D('',#637,#638);
#637 = CARTESIAN_POINT('',(0.,0.));
#638 = DIRECTION('',(1.,0.));
#639 = ( GEOMETRIC_REPRESENTATION_CONTEXT(2) 
PARAMETRIC_REPRESENTATION_CONTEXT() REPRESENTATION_CONTEXT('2D SPACE',''
  ) );
#640 = PCURVE('',#570,#641);
#641 = DEFINITIONAL_REPRESENTATION('',(#642),#646);
#642 = LINE('',#643,#644);
#643 = CARTESIAN_POINT('',(0.,16.));
#644 = VECTOR('',#645,1.);
#645 = DIRECTION('',(1.,0.));
#646 = ( GEOMETRIC_REPRESENTATION_CONTEXT(2) 
PARAMETRIC_REPRESENTATION_CONTEXT() REPRESENTATION_CONTEXT('2D SPACE',''
  ) );
#647 = ORIENTED_EDGE('',*,*,#648,.T.);
#648 = EDGE_CURVE('',#625,#428,#649,.T.);
#649 = SURFACE_CURVE('',#650,(#655,#662),.PCURVE_S1.);
#650 = CIRCLE('',#651,8.);
#651 = AXIS2_PLACEMENT_3D('',#652,#653,#654);
#652 = CARTESIAN_POINT('',(-186.,-110.,-8.));
#653 = DIRECTION('',(-1.,0.,0.));
#654 = DIRECTION('',(0.,0.,-1.));
#655 = PCURVE('',#72,#656);
#656 = DEFINITIONAL_REPRESENTATION('',(#657),#661);
#657 = CIRCLE('',#658,8.);
#658 = AXIS2_PLACEMENT_2D('',#659,#660);
#659 = CARTESIAN_POINT('',(0.,0.));
#660 = DIRECTION('',(1.,0.));
#661 = ( GEOMETRIC_REPRESENTATION_CONTEXT(2) 
PARAMETRIC_REPRESENTATION_CONTEXT() REPRESENTATION_CONTEXT('2D SPACE',''
  ) );
#662 = PCURVE('',#570,#663);
#663 = DEFINITIONAL_REPRESENTATION('',(#664),#668);
#664 = LINE('',#665,#666);
#665 = CARTESIAN_POINT('',(0.,16.));
#666 = VECTOR('',#667,1.);
#667 = DIRECTION('',(1.,0.));
#668 = ( GEOMETRIC_REPRESENTATION_CONTEXT(2) 
PARAMETRIC_REPRESENTATION_CONTEXT() REPRESENTATION_CONTEXT('2D SPACE',''
  ) );
#669 = ORIENTED_EDGE('',*,*,#427,.F.);
#670 = ORIENTED_EDGE('',*,*,#21,.F.);
#671 = ADVANCED_FACE('',(#672),#570,.T.);
#672 = FACE_BOUND('',#673,.T.);
#673 = EDGE_LOOP('',(#674,#697,#698,#699,#700,#701));
#674 = ORIENTED_EDGE('',*,*,#675,.T.);
#675 = EDGE_CURVE('',#676,#625,#678,.T.);
#676 = VERTEX_POINT('',#677);
#677 = CARTESIAN_POINT('',(-170.,-110.,-16.));
#678 = SEAM_CURVE('',#679,(#683,#690),.PCURVE_S1.);
#679 = LINE('',#680,#681);
#680 = CARTESIAN_POINT('',(-170.,-110.,-16.));
#681 = VECTOR('',#682,1.);
#682 = DIRECTION('',(-1.,0.,0.));
#683 = PCURVE('',#570,#684);
#684 = DEFINITIONAL_REPRESENTATION('',(#685),#689);
#685 = LINE('',#686,#687);
#686 = CARTESIAN_POINT('',(6.28318530718,-0.));
#687 = VECTOR('',#688,1.);
#688 = DIRECTION('',(0.,1.));
#689 = ( GEOMETRIC_REPRESENTATION_CONTEXT(2) 
PARAMETRIC_REPRESENTATION_CONTEXT() REPRESENTATION_CONTEXT('2D SPACE',''
  ) );
#690 = PCURVE('',#570,#691);
#691 = DEFINITIONAL_REPRESENTATION('',(#692),#696);
#692 = LINE('',#693,#694);
#693 = CARTESIAN_POINT('',(0.,-0.));
#694 = VECTOR('',#695,1.);
#695 = DIRECTION('',(0.,1.));
#696 = ( GEOMETRIC_REPRESENTATION_CONTEXT(2) 
PARAMETRIC_REPRESENTATION_CONTEXT() REPRESENTATION_CONTEXT('2D SPACE',''
  ) );
#697 = ORIENTED_EDGE('',*,*,#624,.F.);
#698 = ORIENTED_EDGE('',*,*,#478,.F.);
#699 = ORIENTED_EDGE('',*,*,#648,.F.);
#700 = ORIENTED_EDGE('',*,*,#675,.F.);
#701 = ORIENTED_EDGE('',*,*,#702,.T.);
#702 = EDGE_CURVE('',#676,#676,#703,.T.);
#703 = SURFACE_CURVE('',#704,(#709,#716),.PCURVE_S1.);
#704 = CIRCLE('',#705,8.);
#705 = AXIS2_PLACEMENT_3D('',#706,#707,#708);
#706 = CARTESIAN_POINT('',(-170.,-110.,-8.));
#707 = DIRECTION('',(-1.,0.,0.));
#708 = DIRECTION('',(0.,0.,-1.));
#709 = PCURVE('',#570,#710);
#710 = DEFINITIONAL_REPRESENTATION('',(#711),#715);
#711 = LINE('',#712,#713);
#712 = CARTESIAN_POINT('',(0.,0.));
#713 = VECTOR('',#714,1.);
#714 = DIRECTION('',(1.,0.));
#715 = ( GEOMETRIC_REPRESENTATION_CONTEXT(2) 
PARAMETRIC_REPRESENTATION_CONTEXT() REPRESENTATION_CONTEXT('2D SPACE',''
  ) );
#716 = PCURVE('',#717,#722);
#717 = PLANE('',#718);
#718 = AXIS2_PLACEMENT_3D('',#719,#720,#721);
#719 = CARTESIAN_POINT('',(-170.,-110.,-8.));
#720 = DIRECTION('',(-1.,0.,0.));
#721 = DIRECTION('',(0.,0.,-1.));
#722 = DEFINITIONAL_REPRESENTATION('',(#723),#727);
#723 = CIRCLE('',#724,8.);
#724 = AXIS2_PLACEMENT_2D('',#725,#726);
#725 = CARTESIAN_POINT('',(0.,0.));
#726 = DIRECTION('',(1.,0.));
#727 = ( GEOMETRIC_REPRESENTATION_CONTEXT(2) 
PARAMETRIC_REPRESENTATION_CONTEXT() REPRESENTATION_CONTEXT('2D SPACE',''
  ) );
#728 = ADVANCED_FACE('',(#729),#124,.T.);
#729 = FACE_BOUND('',#730,.T.);
#730 = EDGE_LOOP('',(#731,#732,#733));
#731 = ORIENTED_EDGE('',*,*,#107,.T.);
#732 = ORIENTED_EDGE('',*,*,#404,.T.);
#733 = ORIENTED_EDGE('',*,*,#734,.T.);
#734 = EDGE_CURVE('',#376,#108,#735,.T.);
#735 = SURFACE_CURVE('',#736,(#740,#746),.PCURVE_S1.);
#736 = LINE('',#737,#738);
#737 = CARTESIAN_POINT('',(-431.4919695156,-20.,-10.0118410279));
#738 = VECTOR('',#739,1.);
#739 = DIRECTION('',(7.936257995307E-03,0.,-0.999968507409));
#740 = PCURVE('',#124,#741);
#741 = DEFINITIONAL_REPRESENTATION('',(#742),#745);
#742 = B_SPLINE_CURVE_WITH_KNOTS('',1,(#743,#744),.UNSPECIFIED.,.F.,.F.,
  (2,2),(-5.011860634006,4.988177832369),.PIECEWISE_BEZIER_KNOTS.);
#743 = CARTESIAN_POINT('',(4.283090036443,5.));
#744 = CARTESIAN_POINT('',(4.255353255949,-5.));
#745 = ( GEOMETRIC_REPRESENTATION_CONTEXT(2) 
PARAMETRIC_REPRESENTATION_CONTEXT() REPRESENTATION_CONTEXT('2D SPACE',''
  ) );
#746 = PCURVE('',#158,#747);
#747 = DEFINITIONAL_REPRESENTATION('',(#748),#751);
#748 = B_SPLINE_CURVE_WITH_KNOTS('',1,(#749,#750),.UNSPECIFIED.,.F.,.F.,
  (2,2),(-5.011860634006,4.988177832369),.PIECEWISE_BEZIER_KNOTS.);
#749 = CARTESIAN_POINT('',(4.999861769625,-1.53174493468));
#750 = CARTESIAN_POINT('',(-4.999861769625,-1.452382049447));
#751 = ( GEOMETRIC_REPRESENTATION_CONTEXT(2) 
PARAMETRIC_REPRESENTATION_CONTEXT() REPRESENTATION_CONTEXT('2D SPACE',''
  ) );
#752 = ADVANCED_FACE('',(#753),#158,.F.);
#753 = FACE_BOUND('',#754,.F.);
#754 = EDGE_LOOP('',(#755,#779,#801,#802,#803));
#755 = ORIENTED_EDGE('',*,*,#756,.T.);
#756 = EDGE_CURVE('',#137,#757,#759,.T.);
#757 = VERTEX_POINT('',#758);
#758 = CARTESIAN_POINT('',(-430.,-20.,-2.));
#759 = SURFACE_CURVE('',#760,(#765,#772),.PCURVE_S1.);
#760 = CIRCLE('',#761,8.);
#761 = AXIS2_PLACEMENT_3D('',#762,#763,#764);
#762 = CARTESIAN_POINT('',(-430.,-20.,-10.));
#763 = DIRECTION('',(0.,1.,0.));
#764 = DIRECTION('',(0.,-0.,1.));
#765 = PCURVE('',#158,#766);
#766 = DEFINITIONAL_REPRESENTATION('',(#767),#771);
#767 = CIRCLE('',#768,8.);
#768 = AXIS2_PLACEMENT_2D('',#769,#770);
#769 = CARTESIAN_POINT('',(0.,0.));
#770 = DIRECTION('',(1.,0.));
#771 = ( GEOMETRIC_REPRESENTATION_CONTEXT(2) 
PARAMETRIC_REPRESENTATION_CONTEXT() REPRESENTATION_CONTEXT('2D SPACE',''
  ) );
#772 = PCURVE('',#304,#773);
#773 = DEFINITIONAL_REPRESENTATION('',(#774),#778);
#774 = LINE('',#775,#776);
#775 = CARTESIAN_POINT('',(0.,0.));
#776 = VECTOR('',#777,1.);
#777 = DIRECTION('',(1.,0.));
#778 = ( GEOMETRIC_REPRESENTATION_CONTEXT(2) 
PARAMETRIC_REPRESENTATION_CONTEXT() REPRESENTATION_CONTEXT('2D SPACE',''
  ) );
#779 = ORIENTED_EDGE('',*,*,#780,.T.);
#780 = EDGE_CURVE('',#757,#171,#781,.T.);
#781 = SURFACE_CURVE('',#782,(#787,#794),.PCURVE_S1.);
#782 = CIRCLE('',#783,8.);
#783 = AXIS2_PLACEMENT_3D('',#784,#785,#786);
#784 = CARTESIAN_POINT('',(-430.,-20.,-10.));
#785 = DIRECTION('',(0.,1.,0.));
#786 = DIRECTION('',(0.,-0.,1.));
#787 = PCURVE('',#158,#788);
#788 = DEFINITIONAL_REPRESENTATION('',(#789),#793);
#789 = CIRCLE('',#790,8.);
#790 = AXIS2_PLACEMENT_2D('',#791,#792);
#791 = CARTESIAN_POINT('',(0.,0.));
#792 = DIRECTION('',(1.,0.));
#793 = ( GEOMETRIC_REPRESENTATION_CONTEXT(2) 
PARAMETRIC_REPRESENTATION_CONTEXT() REPRESENTATION_CONTEXT('2D SPACE',''
  ) );
#794 = PCURVE('',#304,#795);
#795 = DEFINITIONAL_REPRESENTATION('',(#796),#800);
#796 = LINE('',#797,#798);
#797 = CARTESIAN_POINT('',(0.,0.));
#798 = VECTOR('',#799,1.);
#799 = DIRECTION('',(1.,0.));
#800 = ( GEOMETRIC_REPRESENTATION_CONTEXT(2) 
PARAMETRIC_REPRESENTATION_CONTEXT() REPRESENTATION_CONTEXT('2D SPACE',''
  ) );
#801 = ORIENTED_EDGE('',*,*,#375,.F.);
#802 = ORIENTED_EDGE('',*,*,#734,.T.);
#803 = ORIENTED_EDGE('',*,*,#136,.F.);
#804 = ADVANCED_FACE('',(#805),#304,.T.);
#805 = FACE_BOUND('',#806,.T.);
#806 = EDGE_LOOP('',(#807,#830,#857,#858,#859,#860));
#807 = ORIENTED_EDGE('',*,*,#808,.T.);
#808 = EDGE_CURVE('',#757,#809,#811,.T.);
#809 = VERTEX_POINT('',#810);
#810 = CARTESIAN_POINT('',(-430.,-8.,-2.));
#811 = SEAM_CURVE('',#812,(#816,#823),.PCURVE_S1.);
#812 = LINE('',#813,#814);
#813 = CARTESIAN_POINT('',(-430.,-20.,-2.));
#814 = VECTOR('',#815,1.);
#815 = DIRECTION('',(0.,1.,0.));
#816 = PCURVE('',#304,#817);
#817 = DEFINITIONAL_REPRESENTATION('',(#818),#822);
#818 = LINE('',#819,#820);
#819 = CARTESIAN_POINT('',(6.28318530718,-0.));
#820 = VECTOR('',#821,1.);
#821 = DIRECTION('',(0.,1.));
#822 = ( GEOMETRIC_REPRESENTATION_CONTEXT(2) 
PARAMETRIC_REPRESENTATION_CONTEXT() REPRESENTATION_CONTEXT('2D SPACE',''
  ) );
#823 = PCURVE('',#304,#824);
#824 = DEFINITIONAL_REPRESENTATION('',(#825),#829);
#825 = LINE('',#826,#827);
#826 = CARTESIAN_POINT('',(0.,-0.));
#827 = VECTOR('',#828,1.);
#828 = DIRECTION('',(0.,1.));
#829 = ( GEOMETRIC_REPRESENTATION_CONTEXT(2) 
PARAMETRIC_REPRESENTATION_CONTEXT() REPRESENTATION_CONTEXT('2D SPACE',''
  ) );
#830 = ORIENTED_EDGE('',*,*,#831,.F.);
#831 = EDGE_CURVE('',#809,#809,#832,.T.);
#832 = SURFACE_CURVE('',#833,(#838,#845),.PCURVE_S1.);
#833 = CIRCLE('',#834,8.);
#834 = AXIS2_PLACEMENT_3D('',#835,#836,#837);
#835 = CARTESIAN_POINT('',(-430.,-8.,-10.));
#836 = DIRECTION('',(0.,1.,0.));
#837 = DIRECTION('',(0.,-0.,1.));
#838 = PCURVE('',#304,#839);
#839 = DEFINITIONAL_REPRESENTATION('',(#840),#844);
#840 = LINE('',#841,#842);
#841 = CARTESIAN_POINT('',(0.,12.));
#842 = VECTOR('',#843,1.);
#843 = DIRECTION('',(1.,0.));
#844 = ( GEOMETRIC_REPRESENTATION_CONTEXT(2) 
PARAMETRIC_REPRESENTATION_CONTEXT() REPRESENTATION_CONTEXT('2D SPACE',''
  ) );
#845 = PCURVE('',#846,#851);
#846 = PLANE('',#847);
#847 = AXIS2_PLACEMENT_3D('',#848,#849,#850);
#848 = CARTESIAN_POINT('',(-430.,-8.,-10.));
#849 = DIRECTION('',(0.,1.,0.));
#850 = DIRECTION('',(0.,-0.,1.));
#851 = DEFINITIONAL_REPRESENTATION('',(#852),#856);
#852 = CIRCLE('',#853,8.);
#853 = AXIS2_PLACEMENT_2D('',#854,#855);
#854 = CARTESIAN_POINT('',(0.,0.));
#855 = DIRECTION('',(1.,0.));
#856 = ( GEOMETRIC_REPRESENTATION_CONTEXT(2) 
PARAMETRIC_REPRESENTATION_CONTEXT() REPRESENTATION_CONTEXT('2D SPACE',''
  ) );
#857 = ORIENTED_EDGE('',*,*,#808,.F.);
#858 = ORIENTED_EDGE('',*,*,#780,.T.);
#859 = ORIENTED_EDGE('',*,*,#170,.T.);
#860 = ORIENTED_EDGE('',*,*,#756,.T.);
#861 = ADVANCED_FACE('',(#862),#717,.F.);
#862 = FACE_BOUND('',#863,.T.);
#863 = EDGE_LOOP('',(#864));
#864 = ORIENTED_EDGE('',*,*,#702,.F.);
#865 = ADVANCED_FACE('',(#866),#846,.T.);
#866 = FACE_BOUND('',#867,.T.);
#867 = EDGE_LOOP('',(#868));
#868 = ORIENTED_EDGE('',*,*,#831,.T.);
#869 = ( GEOMETRIC_REPRESENTATION_CONTEXT(3) 
GLOBAL_UNCERTAINTY_ASSIGNED_CONTEXT((#873)) GLOBAL_UNIT_ASSIGNED_CONTEXT
((#870,#871,#872)) REPRESENTATION_CONTEXT('Context #1',
  '3D Context with UNIT and UNCERTAINTY') );
#870 = ( LENGTH_UNIT() NAMED_UNIT(*) SI_UNIT(.MILLI.,.METRE.) );
#871 = ( NAMED_UNIT(*) PLANE_ANGLE_UNIT() SI_UNIT($,.RADIAN.) );
#872 = ( NAMED_UNIT(*) SI_UNIT($,.STERADIAN.) SOLID_ANGLE_UNIT() );
#873 = UNCERTAINTY_MEASURE_WITH_UNIT(LENGTH_MEASURE(1.E-07),#870,
  'distance_accuracy_value','confusion accuracy');
#874 = PRODUCT_RELATED_PRODUCT_CATEGORY('part',$,(#7));
ENDSEC;
END-ISO-10303-21;
