ISO-10303-21;
HEADER;
FILE_DESCRIPTION(('Open CASCADE Model'),'2;1');
FILE_NAME('Open CASCADE Shape Model','2026-09-01T20:38:52',('Author'),(
    'Open CASCADE'),'Open CASCADE STEP processor 7.8','Open CASCADE 7.8'
  ,'Unknown');
FILE_SCHEMA(('AUTOMOTIVE_DESIGN { 1 0 10303 214 1 1 1 1 }'));
ENDSEC;
DATA;
#1 = APPLICATION_PROTOCOL_DEFINITION('international standard',
  'automotive_design',2000,#2);
#2 = APPLICATION_CONTEXT(
  'core data for automotive mechanical design processes');
#3 = SHAPE_DEFINITION_REPRESENTATION(#4,#10);
#4 = PRODUCT_DEFINITION_SHAPE('','',#5);
#5 = PRODUCT_DEFINITION('design','',#6,#9);
#6 = PRODUCT_DEFINITION_FORMATION('','',#7);
#7 = PRODUCT('Open CASCADE STEP translator 7.8 38',
  'Open CASCADE STEP translator 7.8 38','',(#8));
#8 = PRODUCT_CONTEXT('',#2,'mechanical');
#9 = PRODUCT_DEFINITION_CONTEXT('part definition',#2,'design');
#10 = ADVANCED_BREP_SHAPE_REPRESENTATION('',(#11,#15),#705);
#11 = AXIS2_PLACEMENT_3D('',#12,#13,#14);
#12 = CARTESIAN_POINT('',(0.,0.,0.));
#13 = DIRECTION('',(0.,0.,1.));
#14 = DIRECTION('',(1.,0.,-0.));
#15 = MANIFOLD_SOLID_BREP('',#16);
#16 = CLOSED_SHELL('',(#17,#495,#530,#560,#615,#670,#697,#701));
#17 = ADVANCED_FACE('',(#18,#105,#300),#31,.T.);
#18 = FACE_BOUND('',#19,.T.);
#19 = EDGE_LOOP('',(#20,#54,#77,#104));
#20 = ORIENTED_EDGE('',*,*,#21,.F.);
#21 = EDGE_CURVE('',#22,#22,#24,.T.);
#22 = VERTEX_POINT('',#23);
#23 = CARTESIAN_POINT('',(293.,-350.,91.));
#24 = SURFACE_CURVE('',#25,(#30,#42),.PCURVE_S1.);
#25 = CIRCLE('',#26,23.);
#26 = AXIS2_PLACEMENT_3D('',#27,#28,#29);
#27 = CARTESIAN_POINT('',(270.,-350.,91.));
#28 = DIRECTION('',(0.,0.,1.));
#29 = DIRECTION('',(1.,0.,-0.));
#30 = PCURVE('',#31,#36);
#31 = CYLINDRICAL_SURFACE('',#32,23.);
#32 = AXIS2_PLACEMENT_3D('',#33,#34,#35);
#33 = CARTESIAN_POINT('',(270.,-350.,79.));
#34 = DIRECTION('',(0.,0.,1.));
#35 = DIRECTION('',(1.,0.,-0.));
#36 = DEFINITIONAL_REPRESENTATION('',(#37),#41);
#37 = LINE('',#38,#39);
#38 = CARTESIAN_POINT('',(0.,12.));
#39 = VECTOR('',#40,1.);
#40 = DIRECTION('',(1.,0.));
#41 = ( GEOMETRIC_REPRESENTATION_CONTEXT(2) 
PARAMETRIC_REPRESENTATION_CONTEXT() REPRESENTATION_CONTEXT('2D SPACE',''
  ) );
#42 = PCURVE('',#43,#48);
#43 = PLANE('',#44);
#44 = AXIS2_PLACEMENT_3D('',#45,#46,#47);
#45 = CARTESIAN_POINT('',(270.,-350.,91.));
#46 = DIRECTION('',(0.,0.,1.));
#47 = DIRECTION('',(1.,0.,-0.));
#48 = DEFINITIONAL_REPRESENTATION('',(#49),#53);
#49 = CIRCLE('',#50,23.);
#50 = AXIS2_PLACEMENT_2D('',#51,#52);
#51 = CARTESIAN_POINT('',(0.,0.));
#52 = DIRECTION('',(1.,0.));
#53 = ( GEOMETRIC_REPRESENTATION_CONTEXT(2) 
PARAMETRIC_REPRESENTATION_CONTEXT() REPRESENTATION_CONTEXT('2D SPACE',''
  ) );
#54 = ORIENTED_EDGE('',*,*,#55,.F.);
#55 = EDGE_CURVE('',#56,#22,#58,.T.);
#56 = VERTEX_POINT('',#57);
#57 = CARTESIAN_POINT('',(293.,-350.,79.));
#58 = SEAM_CURVE('',#59,(#63,#70),.PCURVE_S1.);
#59 = LINE('',#60,#61);
#60 = CARTESIAN_POINT('',(293.,-350.,79.));
#61 = VECTOR('',#62,1.);
#62 = DIRECTION('',(0.,0.,1.));
#63 = PCURVE('',#31,#64);
#64 = DEFINITIONAL_REPRESENTATION('',(#65),#69);
#65 = LINE('',#66,#67);
#66 = CARTESIAN_POINT('',(6.28318530718,-0.));
#67 = VECTOR('',#68,1.);
#68 = DIRECTION('',(0.,1.));
#69 = ( GEOMETRIC_REPRESENTATION_CONTEXT(2) 
PARAMETRIC_REPRESENTATION_CONTEXT() REPRESENTATION_CONTEXT('2D SPACE',''
  ) );
#70 = PCURVE('',#31,#71);
#71 = DEFINITIONAL_REPRESENTATION('',(#72),#76);
#72 = LINE('',#73,#74);
#73 = CARTESIAN_POINT('',(0.,-0.));
#74 = VECTOR('',#75,1.);
#75 = DIRECTION('',(0.,1.));
#76 = ( GEOMETRIC_REPRESENTATION_CONTEXT(2) 
PARAMETRIC_REPRESENTATION_CONTEXT() REPRESENTATION_CONTEXT('2D SPACE',''
  ) );
#77 = ORIENTED_EDGE('',*,*,#78,.T.);
#78 = EDGE_CURVE('',#56,#56,#79,.T.);
#79 = SURFACE_CURVE('',#80,(#85,#92),.PCURVE_S1.);
#80 = CIRCLE('',#81,23.);
#81 = AXIS2_PLACEMENT_3D('',#82,#83,#84);
#82 = CARTESIAN_POINT('',(270.,-350.,79.));
#83 = DIRECTION('',(0.,0.,1.));
#84 = DIRECTION('',(1.,0.,-0.));
#85 = PCURVE('',#31,#86);
#86 = DEFINITIONAL_REPRESENTATION('',(#87),#91);
#87 = LINE('',#88,#89);
#88 = CARTESIAN_POINT('',(0.,0.));
#89 = VECTOR('',#90,1.);
#90 = DIRECTION('',(1.,0.));
#91 = ( GEOMETRIC_REPRESENTATION_CONTEXT(2) 
PARAMETRIC_REPRESENTATION_CONTEXT() REPRESENTATION_CONTEXT('2D SPACE',''
  ) );
#92 = PCURVE('',#93,#98);
#93 = PLANE('',#94);
#94 = AXIS2_PLACEMENT_3D('',#95,#96,#97);
#95 = CARTESIAN_POINT('',(270.,-350.,79.));
#96 = DIRECTION('',(0.,0.,1.));
#97 = DIRECTION('',(1.,0.,-0.));
#98 = DEFINITIONAL_REPRESENTATION('',(#99),#103);
#99 = CIRCLE('',#100,23.);
#100 = AXIS2_PLACEMENT_2D('',#101,#102);
#101 = CARTESIAN_POINT('',(0.,0.));
#102 = DIRECTION('',(1.,0.));
#103 = ( GEOMETRIC_REPRESENTATION_CONTEXT(2) 
PARAMETRIC_REPRESENTATION_CONTEXT() REPRESENTATION_CONTEXT('2D SPACE',''
  ) );
#104 = ORIENTED_EDGE('',*,*,#55,.T.);
#105 = FACE_BOUND('',#106,.T.);
#106 = EDGE_LOOP('',(#107));
#107 = ORIENTED_EDGE('',*,*,#108,.F.);
#108 = EDGE_CURVE('',#109,#109,#111,.T.);
#109 = VERTEX_POINT('',#110);
#110 = CARTESIAN_POINT('',(270.,-373.,82.5));
#111 = SURFACE_CURVE('',#112,(#171,#233),.PCURVE_S1.);
#112 = B_SPLINE_CURVE_WITH_KNOTS('',8,(#113,#114,#115,#116,#117,#118,
    #119,#120,#121,#122,#123,#124,#125,#126,#127,#128,#129,#130,#131,
    #132,#133,#134,#135,#136,#137,#138,#139,#140,#141,#142,#143,#144,
    #145,#146,#147,#148,#149,#150,#151,#152,#153,#154,#155,#156,#157,
    #158,#159,#160,#161,#162,#163,#164,#165,#166,#167,#168,#169,#170),
  .UNSPECIFIED.,.T.,.F.,(9,7,7,7,7,7,7,7,9),(0.,0.137157640207,
    0.280702585624,0.452630266847,0.598485426431,0.692592373251,
    0.796109614332,0.90039632537,1.),.UNSPECIFIED.);
#113 = CARTESIAN_POINT('',(270.,-373.,82.5));
#114 = CARTESIAN_POINT('',(270.29200099453,-373.,82.5));
#115 = CARTESIAN_POINT('',(270.57683531014,-372.9957632033,
    82.538977630533));
#116 = CARTESIAN_POINT('',(270.84868116656,-372.9876538589,
    82.613587415901));
#117 = CARTESIAN_POINT('',(271.10256435577,-372.9764911695,
    82.719639996698));
#118 = CARTESIAN_POINT('',(271.33444383397,-372.9633964772,
    82.852126844568));
#119 = CARTESIAN_POINT('',(271.54137271434,-372.9495549614,
    83.005259617234));
#120 = CARTESIAN_POINT('',(271.72169990959,-372.9359868633,
    83.172520557092));
#121 = CARTESIAN_POINT('',(272.03600741385,-372.9102745672,
    83.529032439876));
#122 = CARTESIAN_POINT('',(272.17136289019,-372.897905036,
    83.723396472944));
#123 = CARTESIAN_POINT('',(272.28236441857,-372.8869448211,
    83.926424455377));
#124 = CARTESIAN_POINT('',(272.370005155,-372.8778246826,84.13559017042)
  );
#125 = CARTESIAN_POINT('',(272.43513198601,-372.8708196811,
    84.348963464642));
#126 = CARTESIAN_POINT('',(272.47835923277,-372.8660929902,
    84.565008065762));
#127 = CARTESIAN_POINT('',(272.5,-372.8637267303,84.782422038728));
#128 = CARTESIAN_POINT('',(272.5,-372.8637267303,85.260599035779));
#129 = CARTESIAN_POINT('',(272.46895425202,-372.8671211563,
    85.520793125902));
#130 = CARTESIAN_POINT('',(272.40703383794,-372.8738926118,
    85.778652747313));
#131 = CARTESIAN_POINT('',(272.31352850969,-372.8838766876,
    86.032045454778));
#132 = CARTESIAN_POINT('',(272.18713755693,-372.8967478931,
    86.278146244995));
#133 = CARTESIAN_POINT('',(272.02615688808,-372.9119147889,
    86.51312649637));
#134 = CARTESIAN_POINT('',(271.82875868284,-372.9283934663,
    86.731709813689));
#135 = CARTESIAN_POINT('',(271.39402872428,-372.9585863823,
    87.09134971248));
#136 = CARTESIAN_POINT('',(271.15952015092,-372.9728809976,
    87.245567052079));
#137 = CARTESIAN_POINT('',(270.8934765869,-372.9861547051,87.37530310129
    ));
#138 = CARTESIAN_POINT('',(270.60235442258,-372.9966435916,
    87.470349182303));
#139 = CARTESIAN_POINT('',(270.29507639007,-373.0027075942,
    87.523910197401));
#140 = CARTESIAN_POINT('',(269.98182238218,-373.003594007,
    87.532710685931));
#141 = CARTESIAN_POINT('',(269.67304069146,-372.9995662522,
    87.497140796496));
#142 = CARTESIAN_POINT('',(269.18809021915,-372.9864525169,
    87.372626678266));
#143 = CARTESIAN_POINT('',(269.00228994689,-372.979629092,
    87.306724455946));
#144 = CARTESIAN_POINT('',(268.82266871527,-372.9713166261,
    87.22421280271));
#145 = CARTESIAN_POINT('',(268.65094923282,-372.961796112,
    87.125776830361));
#146 = CARTESIAN_POINT('',(268.48876029962,-372.9514196823,
    87.012311421403));
#147 = CARTESIAN_POINT('',(268.33761195568,-372.9405863906,
    86.884908000263));
#148 = CARTESIAN_POINT('',(268.19886814468,-372.9297121114,
    86.744841849982));
#149 = CARTESIAN_POINT('',(267.93605104878,-372.9076231958,
    86.427150554898));
#150 = CARTESIAN_POINT('',(267.81479614001,-372.8964806687,
    86.247126699829));
#151 = CARTESIAN_POINT('',(267.71155007614,-372.8862942463,
    86.055404565082));
#152 = CARTESIAN_POINT('',(267.62761298318,-372.8775677184,
    85.854104419134));
#153 = CARTESIAN_POINT('',(267.56397914182,-372.8707227854,
    85.645501332477));
#154 = CARTESIAN_POINT('',(267.52132596286,-372.8660583531,
    85.43197902272));
#155 = CARTESIAN_POINT('',(267.5,-372.8637267303,85.215986855329));
#156 = CARTESIAN_POINT('',(267.5,-372.8637267303,84.782407659491));
#157 = CARTESIAN_POINT('',(267.52164358073,-372.8660932955,
    84.56499373197));
#158 = CARTESIAN_POINT('',(267.56487163642,-372.8708200812,
    84.348955589887));
#159 = CARTESIAN_POINT('',(267.62999660722,-372.8778248439,
    84.13558916526));
#160 = CARTESIAN_POINT('',(267.71763465596,-372.8869446959,
    83.926427179712));
#161 = CARTESIAN_POINT('',(267.8286351037,-372.8979048626,
    83.723399115697));
#162 = CARTESIAN_POINT('',(267.9639919528,-372.9102745154,83.52903315826
    ));
#163 = CARTESIAN_POINT('',(268.27823503744,-372.9359815416,
    83.172594345186));
#164 = CARTESIAN_POINT('',(268.45855695138,-372.9495502098,
    83.005307768448));
#165 = CARTESIAN_POINT('',(268.66553501167,-372.9633964454,
    82.852117403454));
#166 = CARTESIAN_POINT('',(268.89749611311,-372.9764963438,
    82.719585743357));
#167 = CARTESIAN_POINT('',(269.15145972631,-372.9876608013,
    82.613523628285));
#168 = CARTESIAN_POINT('',(269.42334530106,-372.9957673199,
    82.538939737522));
#169 = CARTESIAN_POINT('',(269.70814096073,-373.,82.5));
#170 = CARTESIAN_POINT('',(270.,-373.,82.5));
#171 = PCURVE('',#31,#172);
#172 = DEFINITIONAL_REPRESENTATION('',(#173),#232);
#173 = B_SPLINE_CURVE_WITH_KNOTS('',8,(#174,#175,#176,#177,#178,#179,
    #180,#181,#182,#183,#184,#185,#186,#187,#188,#189,#190,#191,#192,
    #193,#194,#195,#196,#197,#198,#199,#200,#201,#202,#203,#204,#205,
    #206,#207,#208,#209,#210,#211,#212,#213,#214,#215,#216,#217,#218,
    #219,#220,#221,#222,#223,#224,#225,#226,#227,#228,#229,#230,#231),
  .UNSPECIFIED.,.T.,.F.,(9,7,7,7,7,7,7,7,9),(0.,0.137157640207,
    0.280702585624,0.452630266847,0.598485426431,0.692592373251,
    0.796109614332,0.90039632537,1.),.UNSPECIFIED.);
#174 = CARTESIAN_POINT('',(4.712388980385,3.5));
#175 = CARTESIAN_POINT('',(4.725084675799,3.5));
#176 = CARTESIAN_POINT('',(4.737468780457,3.538977630533));
#177 = CARTESIAN_POINT('',(4.749291266318,3.613587415901));
#178 = CARTESIAN_POINT('',(4.7603384116,3.719639996698));
#179 = CARTESIAN_POINT('',(4.770435003789,3.852126844568));
#180 = CARTESIAN_POINT('',(4.779451495959,4.005259617234));
#181 = CARTESIAN_POINT('',(4.787313799936,4.172520557092));
#182 = CARTESIAN_POINT('',(4.801024993975,4.529032439876));
#183 = CARTESIAN_POINT('',(4.80693427051,4.723396472945));
#184 = CARTESIAN_POINT('',(4.811783733504,4.926424455377));
#185 = CARTESIAN_POINT('',(4.81561472724,5.13559017042));
#186 = CARTESIAN_POINT('',(4.818462654379,5.348963464642));
#187 = CARTESIAN_POINT('',(4.820353303178,5.565008065762));
#188 = CARTESIAN_POINT('',(4.821299813805,5.782422038728));
#189 = CARTESIAN_POINT('',(4.821299813805,6.260599035779));
#190 = CARTESIAN_POINT('',(4.81994195455,6.520793125902));
#191 = CARTESIAN_POINT('',(4.817233711739,6.778652747313));
#192 = CARTESIAN_POINT('',(4.813145170059,7.032045454778));
#193 = CARTESIAN_POINT('',(4.807621632169,7.278146244995));
#194 = CARTESIAN_POINT('',(4.80059196029,7.51312649637));
#195 = CARTESIAN_POINT('',(4.791980414277,7.731709813689));
#196 = CARTESIAN_POINT('',(4.773033580442,8.09134971248));
#197 = CARTESIAN_POINT('',(4.762818998495,8.245567052079));
#198 = CARTESIAN_POINT('',(4.751238685651,8.37530310129));
#199 = CARTESIAN_POINT('',(4.738575571439,8.470349182304));
#200 = CARTESIAN_POINT('',(4.725216814138,8.523910197401));
#201 = CARTESIAN_POINT('',(4.711599866362,8.532710685931));
#202 = CARTESIAN_POINT('',(4.698174750061,8.497140796496));
#203 = CARTESIAN_POINT('',(4.677082239334,8.372626678266));
#204 = CARTESIAN_POINT('',(4.668998898894,8.306724455946));
#205 = CARTESIAN_POINT('',(4.661181502865,8.22421280271));
#206 = CARTESIAN_POINT('',(4.653704553338,8.125776830362));
#207 = CARTESIAN_POINT('',(4.646638882657,8.012311421403));
#208 = CARTESIAN_POINT('',(4.640050607761,7.884908000263));
#209 = CARTESIAN_POINT('',(4.633999864362,7.744841849982));
#210 = CARTESIAN_POINT('',(4.62253274641,7.427150554898));
#211 = CARTESIAN_POINT('',(4.617238746182,7.247126699829));
#212 = CARTESIAN_POINT('',(4.61272812395,7.055404565082));
#213 = CARTESIAN_POINT('',(4.609059076269,6.854104419134));
#214 = CARTESIAN_POINT('',(4.606276435311,6.645501332477));
#215 = CARTESIAN_POINT('',(4.604410884492,6.43197902272));
#216 = CARTESIAN_POINT('',(4.603478146964,6.215986855329));
#217 = CARTESIAN_POINT('',(4.603478146964,5.782407659491));
#218 = CARTESIAN_POINT('',(4.604424780623,5.56499373197));
#219 = CARTESIAN_POINT('',(4.606315464861,5.348955589887));
#220 = CARTESIAN_POINT('',(4.609163310467,5.13558916526));
#221 = CARTESIAN_POINT('',(4.612994186665,4.926427179712));
#222 = CARTESIAN_POINT('',(4.617843602732,4.723399115697));
#223 = CARTESIAN_POINT('',(4.623752939165,4.52903315826));
#224 = CARTESIAN_POINT('',(4.637461322995,4.172594345186));
#225 = CARTESIAN_POINT('',(4.645323400015,4.005307768448));
#226 = CARTESIAN_POINT('',(4.654342039954,3.852117403454));
#227 = CARTESIAN_POINT('',(4.664442186017,3.719585743357));
#228 = CARTESIAN_POINT('',(4.675492825124,3.613523628285));
#229 = CARTESIAN_POINT('',(4.687317032891,3.538939737522));
#230 = CARTESIAN_POINT('',(4.699699456938,3.5));
#231 = CARTESIAN_POINT('',(4.712388980385,3.5));
#232 = ( GEOMETRIC_REPRESENTATION_CONTEXT(2) 
PARAMETRIC_REPRESENTATION_CONTEXT() REPRESENTATION_CONTEXT('2D SPACE',''
  ) );
#233 = PCURVE('',#234,#239);
#234 = CYLINDRICAL_SURFACE('',#235,2.5);
#235 = AXIS2_PLACEMENT_3D('',#236,#237,#238);
#236 = CARTESIAN_POINT('',(270.,-372.,85.));
#237 = DIRECTION('',(0.,-1.,0.));
#238 = DIRECTION('',(0.,-0.,-1.));
#239 = DEFINITIONAL_REPRESENTATION('',(#240),#299);
#240 = B_SPLINE_CURVE_WITH_KNOTS('',8,(#241,#242,#243,#244,#245,#246,
    #247,#248,#249,#250,#251,#252,#253,#254,#255,#256,#257,#258,#259,
    #260,#261,#262,#263,#264,#265,#266,#267,#268,#269,#270,#271,#272,
    #273,#274,#275,#276,#277,#278,#279,#280,#281,#282,#283,#284,#285,
    #286,#287,#288,#289,#290,#291,#292,#293,#294,#295,#296,#297,#298),
  .UNSPECIFIED.,.F.,.F.,(9,7,7,7,7,7,7,7,9),(0.,0.137157640207,
    0.280702585624,0.452630266847,0.598485426431,0.692592373251,
    0.796109614332,0.90039632537,1.),.UNSPECIFIED.);
#241 = CARTESIAN_POINT('',(0.,1.));
#242 = CARTESIAN_POINT('',(0.116800397814,1.));
#243 = CARTESIAN_POINT('',(0.230734059019,0.995763203354));
#244 = CARTESIAN_POINT('',(0.341900620682,0.987653858904));
#245 = CARTESIAN_POINT('',(0.450237895088,0.976491169535));
#246 = CARTESIAN_POINT('',(0.555544885826,0.963396477299));
#247 = CARTESIAN_POINT('',(0.657450464808,0.949554961412));
#248 = CARTESIAN_POINT('',(0.755337224107,0.935986863341));
#249 = CARTESIAN_POINT('',(0.945448740771,0.910274567275));
#250 = CARTESIAN_POINT('',(1.039571565583,0.897905036079));
#251 = CARTESIAN_POINT('',(1.131251240108,0.886944821138));
#252 = CARTESIAN_POINT('',(1.221020894059,0.877824682692));
#253 = CARTESIAN_POINT('',(1.309376846949,0.870819681155));
#254 = CARTESIAN_POINT('',(1.396799684853,0.866092990258));
#255 = CARTESIAN_POINT('',(1.483765142286,0.863726730347));
#256 = CARTESIAN_POINT('',(1.675035941106,0.863726730347));
#257 = CARTESIAN_POINT('',(1.779113117772,0.867121156324));
#258 = CARTESIAN_POINT('',(1.883984597891,0.873892611819));
#259 = CARTESIAN_POINT('',(1.990494872502,0.883876687668));
#260 = CARTESIAN_POINT('',(2.099472402784,0.896747893114));
#261 = CARTESIAN_POINT('',(2.211770452195,0.911914788957));
#262 = CARTESIAN_POINT('',(2.328342508022,0.928393466316));
#263 = CARTESIAN_POINT('',(2.554025823727,0.958586382357));
#264 = CARTESIAN_POINT('',(2.665623563199,0.972880997633));
#265 = CARTESIAN_POINT('',(2.782390414098,0.986154705181));
#266 = CARTESIAN_POINT('',(2.902536710777,0.996643591665));
#267 = CARTESIAN_POINT('',(3.024781855846,1.00270759425));
#268 = CARTESIAN_POINT('',(3.148018577825,1.003594007011));
#269 = CARTESIAN_POINT('',(3.271189512958,0.999566252255));
#270 = CARTESIAN_POINT('',(3.471461618349,0.986452516972));
#271 = CARTESIAN_POINT('',(3.550002427487,0.979629092026));
#272 = CARTESIAN_POINT('',(3.628540104657,0.971316626134));
#273 = CARTESIAN_POINT('',(3.707076639192,0.961796112055));
#274 = CARTESIAN_POINT('',(3.785615462644,0.951419682371));
#275 = CARTESIAN_POINT('',(3.864158464183,0.940586390672));
#276 = CARTESIAN_POINT('',(3.942702957122,0.929712111483));
#277 = CARTESIAN_POINT('',(4.10762746585,0.907623195887));
#278 = CARTESIAN_POINT('',(4.194027905878,0.896480668759));
#279 = CARTESIAN_POINT('',(4.280425197279,0.886294246392));
#280 = CARTESIAN_POINT('',(4.366816490125,0.877567718403));
#281 = CARTESIAN_POINT('',(4.453205532567,0.870722785424));
#282 = CARTESIAN_POINT('',(4.539597544781,0.866058353173));
#283 = CARTESIAN_POINT('',(4.625994238253,0.863726730347));
#284 = CARTESIAN_POINT('',(4.799425916588,0.863726730347));
#285 = CARTESIAN_POINT('',(4.886391342843,0.866093295597));
#286 = CARTESIAN_POINT('',(4.97381181829,0.870820081296));
#287 = CARTESIAN_POINT('',(5.06216507371,0.877824843946));
#288 = CARTESIAN_POINT('',(5.151932969487,0.886944695903));
#289 = CARTESIAN_POINT('',(5.243612424444,0.897904862614));
#290 = CARTESIAN_POINT('',(5.337736183327,0.910274515463));
#291 = CARTESIAN_POINT('',(5.527808735249,0.935981541607));
#292 = CARTESIAN_POINT('',(5.625701801152,0.949550209808));
#293 = CARTESIAN_POINT('',(5.72763606718,0.963396445491));
#294 = CARTESIAN_POINT('',(5.832978120543,0.976496343828));
#295 = CARTESIAN_POINT('',(5.941344542712,0.987660801345));
#296 = CARTESIAN_POINT('',(6.052523503557,0.995767319995));
#297 = CARTESIAN_POINT('',(6.166441691472,1.));
#298 = CARTESIAN_POINT('',(6.28318530718,1.));
#299 = ( GEOMETRIC_REPRESENTATION_CONTEXT(2) 
PARAMETRIC_REPRESENTATION_CONTEXT() REPRESENTATION_CONTEXT('2D SPACE',''
  ) );
#300 = FACE_BOUND('',#301,.T.);
#301 = EDGE_LOOP('',(#302));
#302 = ORIENTED_EDGE('',*,*,#303,.T.);
#303 = EDGE_CURVE('',#304,#304,#306,.T.);
#304 = VERTEX_POINT('',#305);
#305 = CARTESIAN_POINT('',(270.,-327.,82.5));
#306 = SURFACE_CURVE('',#307,(#366,#428),.PCURVE_S1.);
#307 = B_SPLINE_CURVE_WITH_KNOTS('',8,(#308,#309,#310,#311,#312,#313,
    #314,#315,#316,#317,#318,#319,#320,#321,#322,#323,#324,#325,#326,
    #327,#328,#329,#330,#331,#332,#333,#334,#335,#336,#337,#338,#339,
    #340,#341,#342,#343,#344,#345,#346,#347,#348,#349,#350,#351,#352,
    #353,#354,#355,#356,#357,#358,#359,#360,#361,#362,#363,#364,#365),
  .UNSPECIFIED.,.T.,.F.,(9,7,7,7,7,7,7,7,9),(0.,0.137157640197,
    0.280702585608,0.452630266824,0.598485426402,0.692592373218,
    0.796109614294,0.900396325328,1.),.UNSPECIFIED.);
#308 = CARTESIAN_POINT('',(270.,-327.,82.5));
#309 = CARTESIAN_POINT('',(270.29200099452,-327.,82.5));
#310 = CARTESIAN_POINT('',(270.57683531014,-327.0042367966,
    82.538977630531));
#311 = CARTESIAN_POINT('',(270.84868116657,-327.012346141,
    82.613587415904));
#312 = CARTESIAN_POINT('',(271.10256435576,-327.0235088304,
    82.719639996701));
#313 = CARTESIAN_POINT('',(271.33444383397,-327.0366035227,
    82.852126844565));
#314 = CARTESIAN_POINT('',(271.54137271433,-327.0504450385,
    83.005259617228));
#315 = CARTESIAN_POINT('',(271.7216999096,-327.0640131366,
    83.172520557098));
#316 = CARTESIAN_POINT('',(272.03600741385,-327.0897254327,
    83.529032439876));
#317 = CARTESIAN_POINT('',(272.17136289019,-327.1020949639,
    83.723396472945));
#318 = CARTESIAN_POINT('',(272.28236441857,-327.1130551788,
    83.926424455377));
#319 = CARTESIAN_POINT('',(272.370005155,-327.1221753173,84.13559017042)
  );
#320 = CARTESIAN_POINT('',(272.43513198601,-327.1291803188,
    84.348963464642));
#321 = CARTESIAN_POINT('',(272.47835923277,-327.1339070097,
    84.565008065762));
#322 = CARTESIAN_POINT('',(272.5,-327.1362732696,84.782422038728));
#323 = CARTESIAN_POINT('',(272.5,-327.1362732696,85.260599035779));
#324 = CARTESIAN_POINT('',(272.46895425202,-327.1328788436,
    85.520793125902));
#325 = CARTESIAN_POINT('',(272.40703383794,-327.1261073881,
    85.778652747313));
#326 = CARTESIAN_POINT('',(272.31352850969,-327.1161233123,
    86.032045454778));
#327 = CARTESIAN_POINT('',(272.18713755693,-327.1032521068,
    86.278146244995));
#328 = CARTESIAN_POINT('',(272.02615688808,-327.088085211,
    86.513126496369));
#329 = CARTESIAN_POINT('',(271.82875868284,-327.0716065336,
    86.73170981369));
#330 = CARTESIAN_POINT('',(271.39402872428,-327.0414136176,
    87.09134971248));
#331 = CARTESIAN_POINT('',(271.15952015092,-327.0271190023,
    87.245567052082));
#332 = CARTESIAN_POINT('',(270.8934765869,-327.0138452948,
    87.375303101285));
#333 = CARTESIAN_POINT('',(270.60235442257,-327.0033564083,
    87.47034918231));
#334 = CARTESIAN_POINT('',(270.29507639008,-326.9972924057,
    87.523910197397));
#335 = CARTESIAN_POINT('',(269.98182238217,-326.9964059929,
    87.532710685932));
#336 = CARTESIAN_POINT('',(269.67304069146,-327.0004337477,
    87.497140796496));
#337 = CARTESIAN_POINT('',(269.18809021915,-327.013547483,
    87.372626678266));
#338 = CARTESIAN_POINT('',(269.00228994689,-327.0203709079,
    87.306724455946));
#339 = CARTESIAN_POINT('',(268.82266871527,-327.0286833738,
    87.22421280271));
#340 = CARTESIAN_POINT('',(268.65094923282,-327.0382038879,
    87.125776830362));
#341 = CARTESIAN_POINT('',(268.48876029962,-327.0485803176,
    87.012311421403));
#342 = CARTESIAN_POINT('',(268.33761195568,-327.0594136093,
    86.884908000263));
#343 = CARTESIAN_POINT('',(268.19886814468,-327.0702878885,
    86.744841849982));
#344 = CARTESIAN_POINT('',(267.93605104878,-327.0923768041,
    86.427150554898));
#345 = CARTESIAN_POINT('',(267.81479614001,-327.1035193312,
    86.247126699829));
#346 = CARTESIAN_POINT('',(267.71155007614,-327.1137057536,
    86.055404565082));
#347 = CARTESIAN_POINT('',(267.62761298318,-327.1224322815,
    85.854104419134));
#348 = CARTESIAN_POINT('',(267.56397914182,-327.1292772145,
    85.645501332477));
#349 = CARTESIAN_POINT('',(267.52132596286,-327.1339416468,
    85.43197902272));
#350 = CARTESIAN_POINT('',(267.5,-327.1362732696,85.215986855329));
#351 = CARTESIAN_POINT('',(267.5,-327.1362732696,84.782407659491));
#352 = CARTESIAN_POINT('',(267.52164358073,-327.1339067044,
    84.56499373197));
#353 = CARTESIAN_POINT('',(267.56487163642,-327.1291799187,
    84.348955589887));
#354 = CARTESIAN_POINT('',(267.62999660722,-327.122175156,84.13558916526
    ));
#355 = CARTESIAN_POINT('',(267.71763465596,-327.113055304,
    83.926427179712));
#356 = CARTESIAN_POINT('',(267.8286351037,-327.1020951373,
    83.723399115697));
#357 = CARTESIAN_POINT('',(267.9639919528,-327.0897254845,83.52903315826
    ));
#358 = CARTESIAN_POINT('',(268.27823503752,-327.0640184583,
    83.172594345103));
#359 = CARTESIAN_POINT('',(268.45855695136,-327.0504497901,
    83.005307768502));
#360 = CARTESIAN_POINT('',(268.66553501159,-327.0366035545,
    82.852117403503));
#361 = CARTESIAN_POINT('',(268.89749611308,-327.0235036561,
    82.719585743336));
#362 = CARTESIAN_POINT('',(269.15145972637,-327.0123391986,
    82.613523628255));
#363 = CARTESIAN_POINT('',(269.42334530112,-327.00423268,82.538939737535
    ));
#364 = CARTESIAN_POINT('',(269.70814096067,-327.,82.5));
#365 = CARTESIAN_POINT('',(270.,-327.,82.5));
#366 = PCURVE('',#31,#367);
#367 = DEFINITIONAL_REPRESENTATION('',(#368),#427);
#368 = B_SPLINE_CURVE_WITH_KNOTS('',8,(#369,#370,#371,#372,#373,#374,
    #375,#376,#377,#378,#379,#380,#381,#382,#383,#384,#385,#386,#387,
    #388,#389,#390,#391,#392,#393,#394,#395,#396,#397,#398,#399,#400,
    #401,#402,#403,#404,#405,#406,#407,#408,#409,#410,#411,#412,#413,
    #414,#415,#416,#417,#418,#419,#420,#421,#422,#423,#424,#425,#426),
  .UNSPECIFIED.,.T.,.F.,(9,7,7,7,7,7,7,7,9),(0.,0.137157640197,
    0.280702585608,0.452630266824,0.598485426402,0.692592373218,
    0.796109614294,0.900396325328,1.),.UNSPECIFIED.);
#369 = CARTESIAN_POINT('',(1.570796326795,3.5));
#370 = CARTESIAN_POINT('',(1.558100631381,3.5));
#371 = CARTESIAN_POINT('',(1.545716526723,3.538977630531));
#372 = CARTESIAN_POINT('',(1.533894040861,3.613587415904));
#373 = CARTESIAN_POINT('',(1.52284689558,3.719639996701));
#374 = CARTESIAN_POINT('',(1.512750303391,3.852126844565));
#375 = CARTESIAN_POINT('',(1.50373381122,4.005259617228));
#376 = CARTESIAN_POINT('',(1.495871507243,4.172520557098));
#377 = CARTESIAN_POINT('',(1.482160313204,4.529032439876));
#378 = CARTESIAN_POINT('',(1.476251036669,4.723396472945));
#379 = CARTESIAN_POINT('',(1.471401573675,4.926424455377));
#380 = CARTESIAN_POINT('',(1.46757057994,5.13559017042));
#381 = CARTESIAN_POINT('',(1.464722652801,5.348963464642));
#382 = CARTESIAN_POINT('',(1.462832004002,5.565008065762));
#383 = CARTESIAN_POINT('',(1.461885493374,5.782422038728));
#384 = CARTESIAN_POINT('',(1.461885493374,6.260599035779));
#385 = CARTESIAN_POINT('',(1.463243352629,6.520793125902));
#386 = CARTESIAN_POINT('',(1.465951595441,6.778652747313));
#387 = CARTESIAN_POINT('',(1.47004013712,7.032045454778));
#388 = CARTESIAN_POINT('',(1.475563675011,7.278146244995));
#389 = CARTESIAN_POINT('',(1.48259334689,7.513126496369));
#390 = CARTESIAN_POINT('',(1.491204892903,7.73170981369));
#391 = CARTESIAN_POINT('',(1.510151726738,8.09134971248));
#392 = CARTESIAN_POINT('',(1.520366308685,8.245567052081));
#393 = CARTESIAN_POINT('',(1.531946621529,8.375303101286));
#394 = CARTESIAN_POINT('',(1.54460973574,8.470349182308));
#395 = CARTESIAN_POINT('',(1.557968493041,8.523910197398));
#396 = CARTESIAN_POINT('',(1.571585440817,8.532710685932));
#397 = CARTESIAN_POINT('',(1.585010557118,8.497140796496));
#398 = CARTESIAN_POINT('',(1.606103067846,8.372626678266));
#399 = CARTESIAN_POINT('',(1.614186408286,8.306724455946));
#400 = CARTESIAN_POINT('',(1.622003804314,8.22421280271));
#401 = CARTESIAN_POINT('',(1.629480753842,8.125776830362));
#402 = CARTESIAN_POINT('',(1.636546424523,8.012311421403));
#403 = CARTESIAN_POINT('',(1.643134699418,7.884908000263));
#404 = CARTESIAN_POINT('',(1.649185442818,7.744841849982));
#405 = CARTESIAN_POINT('',(1.66065256077,7.427150554898));
#406 = CARTESIAN_POINT('',(1.665946560998,7.247126699829));
#407 = CARTESIAN_POINT('',(1.670457183229,7.055404565082));
#408 = CARTESIAN_POINT('',(1.674126230911,6.854104419134));
#409 = CARTESIAN_POINT('',(1.676908871869,6.645501332477));
#410 = CARTESIAN_POINT('',(1.678774422687,6.43197902272));
#411 = CARTESIAN_POINT('',(1.679707160216,6.215986855329));
#412 = CARTESIAN_POINT('',(1.679707160216,5.782407659491));
#413 = CARTESIAN_POINT('',(1.678760526557,5.56499373197));
#414 = CARTESIAN_POINT('',(1.676869842319,5.348955589887));
#415 = CARTESIAN_POINT('',(1.674021996713,5.13558916526));
#416 = CARTESIAN_POINT('',(1.670191120515,4.926427179712));
#417 = CARTESIAN_POINT('',(1.665341704448,4.723399115697));
#418 = CARTESIAN_POINT('',(1.659432368014,4.52903315826));
#419 = CARTESIAN_POINT('',(1.645723984181,4.172594345103));
#420 = CARTESIAN_POINT('',(1.637861907165,4.005307768502));
#421 = CARTESIAN_POINT('',(1.628843267229,3.852117403503));
#422 = CARTESIAN_POINT('',(1.618743121164,3.719585743336));
#423 = CARTESIAN_POINT('',(1.607692482053,3.613523628255));
#424 = CARTESIAN_POINT('',(1.595868274286,3.538939737535));
#425 = CARTESIAN_POINT('',(1.583485850244,3.5));
#426 = CARTESIAN_POINT('',(1.570796326795,3.5));
#427 = ( GEOMETRIC_REPRESENTATION_CONTEXT(2) 
PARAMETRIC_REPRESENTATION_CONTEXT() REPRESENTATION_CONTEXT('2D SPACE',''
  ) );
#428 = PCURVE('',#429,#434);
#429 = CYLINDRICAL_SURFACE('',#430,2.5);
#430 = AXIS2_PLACEMENT_3D('',#431,#432,#433);
#431 = CARTESIAN_POINT('',(270.,-321.,85.));
#432 = DIRECTION('',(0.,-1.,0.));
#433 = DIRECTION('',(0.,-0.,-1.));
#434 = DEFINITIONAL_REPRESENTATION('',(#435),#494);
#435 = B_SPLINE_CURVE_WITH_KNOTS('',8,(#436,#437,#438,#439,#440,#441,
    #442,#443,#444,#445,#446,#447,#448,#449,#450,#451,#452,#453,#454,
    #455,#456,#457,#458,#459,#460,#461,#462,#463,#464,#465,#466,#467,
    #468,#469,#470,#471,#472,#473,#474,#475,#476,#477,#478,#479,#480,
    #481,#482,#483,#484,#485,#486,#487,#488,#489,#490,#491,#492,#493),
  .UNSPECIFIED.,.F.,.F.,(9,7,7,7,7,7,7,7,9),(0.,0.137157640197,
    0.280702585608,0.452630266824,0.598485426402,0.692592373218,
    0.796109614294,0.900396325328,1.),.UNSPECIFIED.);
#436 = CARTESIAN_POINT('',(0.,6.));
#437 = CARTESIAN_POINT('',(0.116800397811,6.));
#438 = CARTESIAN_POINT('',(0.230734059021,6.004236796645));
#439 = CARTESIAN_POINT('',(0.341900620684,6.012346141097));
#440 = CARTESIAN_POINT('',(0.450237895089,6.023508830465));
#441 = CARTESIAN_POINT('',(0.555544885824,6.0366035227));
#442 = CARTESIAN_POINT('',(0.657450464806,6.050445038588));
#443 = CARTESIAN_POINT('',(0.755337224111,6.06401313666));
#444 = CARTESIAN_POINT('',(0.945448740771,6.089725432725));
#445 = CARTESIAN_POINT('',(1.039571565584,6.102094963921));
#446 = CARTESIAN_POINT('',(1.131251240108,6.113055178863));
#447 = CARTESIAN_POINT('',(1.221020894059,6.122175317308));
#448 = CARTESIAN_POINT('',(1.309376846949,6.129180318845));
#449 = CARTESIAN_POINT('',(1.396799684853,6.133907009742));
#450 = CARTESIAN_POINT('',(1.483765142286,6.136273269653));
#451 = CARTESIAN_POINT('',(1.675035941106,6.136273269653));
#452 = CARTESIAN_POINT('',(1.779113117772,6.132878843676));
#453 = CARTESIAN_POINT('',(1.88398459789,6.126107388181));
#454 = CARTESIAN_POINT('',(1.990494872502,6.116123312332));
#455 = CARTESIAN_POINT('',(2.099472402784,6.103252106886));
#456 = CARTESIAN_POINT('',(2.211770452195,6.088085211043));
#457 = CARTESIAN_POINT('',(2.328342508022,6.071606533684));
#458 = CARTESIAN_POINT('',(2.554025823726,6.041413617644));
#459 = CARTESIAN_POINT('',(2.665623563201,6.027119002366));
#460 = CARTESIAN_POINT('',(2.782390414094,6.013845294819));
#461 = CARTESIAN_POINT('',(2.902536710782,6.003356408335));
#462 = CARTESIAN_POINT('',(3.024781855842,5.99729240575));
#463 = CARTESIAN_POINT('',(3.148018577827,5.996405992989));
#464 = CARTESIAN_POINT('',(3.271189512958,6.000433747745));
#465 = CARTESIAN_POINT('',(3.471461618349,6.013547483028));
#466 = CARTESIAN_POINT('',(3.550002427488,6.020370907974));
#467 = CARTESIAN_POINT('',(3.628540104657,6.028683373866));
#468 = CARTESIAN_POINT('',(3.707076639192,6.038203887945));
#469 = CARTESIAN_POINT('',(3.785615462644,6.048580317629));
#470 = CARTESIAN_POINT('',(3.864158464183,6.059413609328));
#471 = CARTESIAN_POINT('',(3.942702957122,6.070287888517));
#472 = CARTESIAN_POINT('',(4.10762746585,6.092376804113));
#473 = CARTESIAN_POINT('',(4.194027905877,6.103519331241));
#474 = CARTESIAN_POINT('',(4.280425197279,6.113705753608));
#475 = CARTESIAN_POINT('',(4.366816490125,6.122432281597));
#476 = CARTESIAN_POINT('',(4.453205532567,6.129277214576));
#477 = CARTESIAN_POINT('',(4.539597544781,6.133941646827));
#478 = CARTESIAN_POINT('',(4.625994238253,6.136273269653));
#479 = CARTESIAN_POINT('',(4.799425916588,6.136273269653));
#480 = CARTESIAN_POINT('',(4.886391342843,6.133906704403));
#481 = CARTESIAN_POINT('',(4.97381181829,6.129179918704));
#482 = CARTESIAN_POINT('',(5.06216507371,6.122175156054));
#483 = CARTESIAN_POINT('',(5.151932969488,6.113055304097));
#484 = CARTESIAN_POINT('',(5.243612424443,6.102095137386));
#485 = CARTESIAN_POINT('',(5.337736183327,6.089725484537));
#486 = CARTESIAN_POINT('',(5.527808735293,6.064018458387));
#487 = CARTESIAN_POINT('',(5.625701801131,6.050449790195));
#488 = CARTESIAN_POINT('',(5.727636067146,6.036603554515));
#489 = CARTESIAN_POINT('',(5.832978120536,6.023503656171));
#490 = CARTESIAN_POINT('',(5.941344542735,6.012339198651));
#491 = CARTESIAN_POINT('',(6.052523503579,6.004232680007));
#492 = CARTESIAN_POINT('',(6.166441691451,6.));
#493 = CARTESIAN_POINT('',(6.28318530718,6.));
#494 = ( GEOMETRIC_REPRESENTATION_CONTEXT(2) 
PARAMETRIC_REPRESENTATION_CONTEXT() REPRESENTATION_CONTEXT('2D SPACE',''
  ) );
#495 = ADVANCED_FACE('',(#496,#499),#43,.T.);
#496 = FACE_BOUND('',#497,.T.);
#497 = EDGE_LOOP('',(#498));
#498 = ORIENTED_EDGE('',*,*,#21,.T.);
#499 = FACE_BOUND('',#500,.T.);
#500 = EDGE_LOOP('',(#501));
#501 = ORIENTED_EDGE('',*,*,#502,.F.);
#502 = EDGE_CURVE('',#503,#503,#505,.T.);
#503 = VERTEX_POINT('',#504);
#504 = CARTESIAN_POINT('',(290.,-350.,91.));
#505 = SURFACE_CURVE('',#506,(#511,#518),.PCURVE_S1.);
#506 = CIRCLE('',#507,20.);
#507 = AXIS2_PLACEMENT_3D('',#508,#509,#510);
#508 = CARTESIAN_POINT('',(270.,-350.,91.));
#509 = DIRECTION('',(0.,0.,1.));
#510 = DIRECTION('',(1.,0.,-0.));
#511 = PCURVE('',#43,#512);
#512 = DEFINITIONAL_REPRESENTATION('',(#513),#517);
#513 = CIRCLE('',#514,20.);
#514 = AXIS2_PLACEMENT_2D('',#515,#516);
#515 = CARTESIAN_POINT('',(0.,0.));
#516 = DIRECTION('',(1.,0.));
#517 = ( GEOMETRIC_REPRESENTATION_CONTEXT(2) 
PARAMETRIC_REPRESENTATION_CONTEXT() REPRESENTATION_CONTEXT('2D SPACE',''
  ) );
#518 = PCURVE('',#519,#524);
#519 = CYLINDRICAL_SURFACE('',#520,20.);
#520 = AXIS2_PLACEMENT_3D('',#521,#522,#523);
#521 = CARTESIAN_POINT('',(270.,-350.,73.));
#522 = DIRECTION('',(0.,0.,1.));
#523 = DIRECTION('',(1.,0.,-0.));
#524 = DEFINITIONAL_REPRESENTATION('',(#525),#529);
#525 = LINE('',#526,#527);
#526 = CARTESIAN_POINT('',(0.,18.));
#527 = VECTOR('',#528,1.);
#528 = DIRECTION('',(1.,0.));
#529 = ( GEOMETRIC_REPRESENTATION_CONTEXT(2) 
PARAMETRIC_REPRESENTATION_CONTEXT() REPRESENTATION_CONTEXT('2D SPACE',''
  ) );
#530 = ADVANCED_FACE('',(#531,#534),#93,.F.);
#531 = FACE_BOUND('',#532,.F.);
#532 = EDGE_LOOP('',(#533));
#533 = ORIENTED_EDGE('',*,*,#78,.T.);
#534 = FACE_BOUND('',#535,.F.);
#535 = EDGE_LOOP('',(#536));
#536 = ORIENTED_EDGE('',*,*,#537,.F.);
#537 = EDGE_CURVE('',#538,#538,#540,.T.);
#538 = VERTEX_POINT('',#539);
#539 = CARTESIAN_POINT('',(290.,-350.,79.));
#540 = SURFACE_CURVE('',#541,(#546,#553),.PCURVE_S1.);
#541 = CIRCLE('',#542,20.);
#542 = AXIS2_PLACEMENT_3D('',#543,#544,#545);
#543 = CARTESIAN_POINT('',(270.,-350.,79.));
#544 = DIRECTION('',(0.,0.,1.));
#545 = DIRECTION('',(1.,0.,-0.));
#546 = PCURVE('',#93,#547);
#547 = DEFINITIONAL_REPRESENTATION('',(#548),#552);
#548 = CIRCLE('',#549,20.);
#549 = AXIS2_PLACEMENT_2D('',#550,#551);
#550 = CARTESIAN_POINT('',(0.,0.));
#551 = DIRECTION('',(1.,0.));
#552 = ( GEOMETRIC_REPRESENTATION_CONTEXT(2) 
PARAMETRIC_REPRESENTATION_CONTEXT() REPRESENTATION_CONTEXT('2D SPACE',''
  ) );
#553 = PCURVE('',#519,#554);
#554 = DEFINITIONAL_REPRESENTATION('',(#555),#559);
#555 = LINE('',#556,#557);
#556 = CARTESIAN_POINT('',(0.,6.));
#557 = VECTOR('',#558,1.);
#558 = DIRECTION('',(1.,0.));
#559 = ( GEOMETRIC_REPRESENTATION_CONTEXT(2) 
PARAMETRIC_REPRESENTATION_CONTEXT() REPRESENTATION_CONTEXT('2D SPACE',''
  ) );
#560 = ADVANCED_FACE('',(#561),#234,.T.);
#561 = FACE_BOUND('',#562,.T.);
#562 = EDGE_LOOP('',(#563,#586,#613,#614));
#563 = ORIENTED_EDGE('',*,*,#564,.T.);
#564 = EDGE_CURVE('',#109,#565,#567,.T.);
#565 = VERTEX_POINT('',#566);
#566 = CARTESIAN_POINT('',(270.,-379.,82.5));
#567 = SEAM_CURVE('',#568,(#572,#579),.PCURVE_S1.);
#568 = LINE('',#569,#570);
#569 = CARTESIAN_POINT('',(270.,-372.,82.5));
#570 = VECTOR('',#571,1.);
#571 = DIRECTION('',(0.,-1.,0.));
#572 = PCURVE('',#234,#573);
#573 = DEFINITIONAL_REPRESENTATION('',(#574),#578);
#574 = LINE('',#575,#576);
#575 = CARTESIAN_POINT('',(6.28318530718,-0.));
#576 = VECTOR('',#577,1.);
#577 = DIRECTION('',(0.,1.));
#578 = ( GEOMETRIC_REPRESENTATION_CONTEXT(2) 
PARAMETRIC_REPRESENTATION_CONTEXT() REPRESENTATION_CONTEXT('2D SPACE',''
  ) );
#579 = PCURVE('',#234,#580);
#580 = DEFINITIONAL_REPRESENTATION('',(#581),#585);
#581 = LINE('',#582,#583);
#582 = CARTESIAN_POINT('',(0.,-0.));
#583 = VECTOR('',#584,1.);
#584 = DIRECTION('',(0.,1.));
#585 = ( GEOMETRIC_REPRESENTATION_CONTEXT(2) 
PARAMETRIC_REPRESENTATION_CONTEXT() REPRESENTATION_CONTEXT('2D SPACE',''
  ) );
#586 = ORIENTED_EDGE('',*,*,#587,.F.);
#587 = EDGE_CURVE('',#565,#565,#588,.T.);
#588 = SURFACE_CURVE('',#589,(#594,#601),.PCURVE_S1.);
#589 = CIRCLE('',#590,2.5);
#590 = AXIS2_PLACEMENT_3D('',#591,#592,#593);
#591 = CARTESIAN_POINT('',(270.,-379.,85.));
#592 = DIRECTION('',(0.,-1.,0.));
#593 = DIRECTION('',(0.,-0.,-1.));
#594 = PCURVE('',#234,#595);
#595 = DEFINITIONAL_REPRESENTATION('',(#596),#600);
#596 = LINE('',#597,#598);
#597 = CARTESIAN_POINT('',(0.,7.));
#598 = VECTOR('',#599,1.);
#599 = DIRECTION('',(1.,0.));
#600 = ( GEOMETRIC_REPRESENTATION_CONTEXT(2) 
PARAMETRIC_REPRESENTATION_CONTEXT() REPRESENTATION_CONTEXT('2D SPACE',''
  ) );
#601 = PCURVE('',#602,#607);
#602 = PLANE('',#603);
#603 = AXIS2_PLACEMENT_3D('',#604,#605,#606);
#604 = CARTESIAN_POINT('',(270.,-379.,85.));
#605 = DIRECTION('',(0.,-1.,0.));
#606 = DIRECTION('',(0.,-0.,-1.));
#607 = DEFINITIONAL_REPRESENTATION('',(#608),#612);
#608 = CIRCLE('',#609,2.5);
#609 = AXIS2_PLACEMENT_2D('',#610,#611);
#610 = CARTESIAN_POINT('',(0.,0.));
#611 = DIRECTION('',(1.,0.));
#612 = ( GEOMETRIC_REPRESENTATION_CONTEXT(2) 
PARAMETRIC_REPRESENTATION_CONTEXT() REPRESENTATION_CONTEXT('2D SPACE',''
  ) );
#613 = ORIENTED_EDGE('',*,*,#564,.F.);
#614 = ORIENTED_EDGE('',*,*,#108,.T.);
#615 = ADVANCED_FACE('',(#616),#429,.T.);
#616 = FACE_BOUND('',#617,.T.);
#617 = EDGE_LOOP('',(#618,#619,#642,#669));
#618 = ORIENTED_EDGE('',*,*,#303,.F.);
#619 = ORIENTED_EDGE('',*,*,#620,.F.);
#620 = EDGE_CURVE('',#621,#304,#623,.T.);
#621 = VERTEX_POINT('',#622);
#622 = CARTESIAN_POINT('',(270.,-321.,82.5));
#623 = SEAM_CURVE('',#624,(#628,#635),.PCURVE_S1.);
#624 = LINE('',#625,#626);
#625 = CARTESIAN_POINT('',(270.,-321.,82.5));
#626 = VECTOR('',#627,1.);
#627 = DIRECTION('',(0.,-1.,0.));
#628 = PCURVE('',#429,#629);
#629 = DEFINITIONAL_REPRESENTATION('',(#630),#634);
#630 = LINE('',#631,#632);
#631 = CARTESIAN_POINT('',(6.28318530718,-0.));
#632 = VECTOR('',#633,1.);
#633 = DIRECTION('',(0.,1.));
#634 = ( GEOMETRIC_REPRESENTATION_CONTEXT(2) 
PARAMETRIC_REPRESENTATION_CONTEXT() REPRESENTATION_CONTEXT('2D SPACE',''
  ) );
#635 = PCURVE('',#429,#636);
#636 = DEFINITIONAL_REPRESENTATION('',(#637),#641);
#637 = LINE('',#638,#639);
#638 = CARTESIAN_POINT('',(0.,-0.));
#639 = VECTOR('',#640,1.);
#640 = DIRECTION('',(0.,1.));
#641 = ( GEOMETRIC_REPRESENTATION_CONTEXT(2) 
PARAMETRIC_REPRESENTATION_CONTEXT() REPRESENTATION_CONTEXT('2D SPACE',''
  ) );
#642 = ORIENTED_EDGE('',*,*,#643,.T.);
#643 = EDGE_CURVE('',#621,#621,#644,.T.);
#644 = SURFACE_CURVE('',#645,(#650,#657),.PCURVE_S1.);
#645 = CIRCLE('',#646,2.5);
#646 = AXIS2_PLACEMENT_3D('',#647,#648,#649);
#647 = CARTESIAN_POINT('',(270.,-321.,85.));
#648 = DIRECTION('',(0.,-1.,0.));
#649 = DIRECTION('',(0.,-0.,-1.));
#650 = PCURVE('',#429,#651);
#651 = DEFINITIONAL_REPRESENTATION('',(#652),#656);
#652 = LINE('',#653,#654);
#653 = CARTESIAN_POINT('',(0.,0.));
#654 = VECTOR('',#655,1.);
#655 = DIRECTION('',(1.,0.));
#656 = ( GEOMETRIC_REPRESENTATION_CONTEXT(2) 
PARAMETRIC_REPRESENTATION_CONTEXT() REPRESENTATION_CONTEXT('2D SPACE',''
  ) );
#657 = PCURVE('',#658,#663);
#658 = PLANE('',#659);
#659 = AXIS2_PLACEMENT_3D('',#660,#661,#662);
#660 = CARTESIAN_POINT('',(270.,-321.,85.));
#661 = DIRECTION('',(0.,-1.,0.));
#662 = DIRECTION('',(0.,-0.,-1.));
#663 = DEFINITIONAL_REPRESENTATION('',(#664),#668);
#664 = CIRCLE('',#665,2.5);
#665 = AXIS2_PLACEMENT_2D('',#666,#667);
#666 = CARTESIAN_POINT('',(0.,0.));
#667 = DIRECTION('',(1.,0.));
#668 = ( GEOMETRIC_REPRESENTATION_CONTEXT(2) 
PARAMETRIC_REPRESENTATION_CONTEXT() REPRESENTATION_CONTEXT('2D SPACE',''
  ) );
#669 = ORIENTED_EDGE('',*,*,#620,.T.);
#670 = ADVANCED_FACE('',(#671),#519,.F.);
#671 = FACE_BOUND('',#672,.F.);
#672 = EDGE_LOOP('',(#673,#674,#695,#696));
#673 = ORIENTED_EDGE('',*,*,#502,.F.);
#674 = ORIENTED_EDGE('',*,*,#675,.F.);
#675 = EDGE_CURVE('',#538,#503,#676,.T.);
#676 = SEAM_CURVE('',#677,(#681,#688),.PCURVE_S1.);
#677 = LINE('',#678,#679);
#678 = CARTESIAN_POINT('',(290.,-350.,73.));
#679 = VECTOR('',#680,1.);
#680 = DIRECTION('',(0.,0.,1.));
#681 = PCURVE('',#519,#682);
#682 = DEFINITIONAL_REPRESENTATION('',(#683),#687);
#683 = LINE('',#684,#685);
#684 = CARTESIAN_POINT('',(6.28318530718,-0.));
#685 = VECTOR('',#686,1.);
#686 = DIRECTION('',(0.,1.));
#687 = ( GEOMETRIC_REPRESENTATION_CONTEXT(2) 
PARAMETRIC_REPRESENTATION_CONTEXT() REPRESENTATION_CONTEXT('2D SPACE',''
  ) );
#688 = PCURVE('',#519,#689);
#689 = DEFINITIONAL_REPRESENTATION('',(#690),#694);
#690 = LINE('',#691,#692);
#691 = CARTESIAN_POINT('',(0.,-0.));
#692 = VECTOR('',#693,1.);
#693 = DIRECTION('',(0.,1.));
#694 = ( GEOMETRIC_REPRESENTATION_CONTEXT(2) 
PARAMETRIC_REPRESENTATION_CONTEXT() REPRESENTATION_CONTEXT('2D SPACE',''
  ) );
#695 = ORIENTED_EDGE('',*,*,#537,.T.);
#696 = ORIENTED_EDGE('',*,*,#675,.T.);
#697 = ADVANCED_FACE('',(#698),#602,.T.);
#698 = FACE_BOUND('',#699,.T.);
#699 = EDGE_LOOP('',(#700));
#700 = ORIENTED_EDGE('',*,*,#587,.T.);
#701 = ADVANCED_FACE('',(#702),#658,.F.);
#702 = FACE_BOUND('',#703,.T.);
#703 = EDGE_LOOP('',(#704));
#704 = ORIENTED_EDGE('',*,*,#643,.F.);
#705 = ( GEOMETRIC_REPRESENTATION_CONTEXT(3) 
GLOBAL_UNCERTAINTY_ASSIGNED_CONTEXT((#709)) GLOBAL_UNIT_ASSIGNED_CONTEXT
((#706,#707,#708)) REPRESENTATION_CONTEXT('Context #1',
  '3D Context with UNIT and UNCERTAINTY') );
#706 = ( LENGTH_UNIT() NAMED_UNIT(*) SI_UNIT(.MILLI.,.METRE.) );
#707 = ( NAMED_UNIT(*) PLANE_ANGLE_UNIT() SI_UNIT($,.RADIAN.) );
#708 = ( NAMED_UNIT(*) SI_UNIT($,.STERADIAN.) SOLID_ANGLE_UNIT() );
#709 = UNCERTAINTY_MEASURE_WITH_UNIT(LENGTH_MEASURE(1.E-07),#706,
  'distance_accuracy_value','confusion accuracy');
#710 = PRODUCT_RELATED_PRODUCT_CATEGORY('part',$,(#7));
ENDSEC;
END-ISO-10303-21;
