ISO-10303-21;
HEADER;
FILE_DESCRIPTION(('Open CASCADE Model'),'2;1');
FILE_NAME('Open CASCADE Shape Model','2026-09-01T22:05:18',('Author'),(
    'Open CASCADE'),'Open CASCADE STEP processor 7.8','Open CASCADE 7.8'
  ,'Unknown');
FILE_SCHEMA(('AUTOMOTIVE_DESIGN { 1 0 10303 214 1 1 1 1 }'));
ENDSEC;
DATA;
#1 = APPLICATION_PROTOCOL_DEFINITION('international standard',
  'automotive_design',2000,#2);
#2 = APPLICATION_CONTEXT(
  'core data for automotive mechanical design processes');
#3 = SHAPE_DEFINITION_REPRESENTATION(#4,#10);
#4 = PRODUCT_DEFINITION_SHAPE('','',#5);
#5 = PRODUCT_DEFINITION('design','',#6,#9);
#6 = PRODUCT_DEFINITION_FORMATION('','',#7);
#7 = PRODUCT('Open CASCADE STEP translator 7.8 39',
  'Open CASCADE STEP translator 7.8 39','',(#8));
#8 = PRODUCT_CONTEXT('',#2,'mechanical');
#9 = PRODUCT_DEFINITION_CONTEXT('part definition',#2,'design');
#10 = ADVANCED_BREP_SHAPE_REPRESENTATION('',(#11,#15),#705);
#11 = AXIS2_PLACEMENT_3D('',#12,#13,#14);
#12 = CARTESIAN_POINT('',(0.,0.,0.));
#13 = DIRECTION('',(0.,0.,1.));
#14 = DIRECTION('',(1.,0.,-0.));
#15 = MANIFOLD_SOLID_BREP('',#16);
#16 = CLOSED_SHELL('',(#17,#495,#530,#560,#615,#670,#697,#701));
#17 = ADVANCED_FACE('',(#18,#105,#300),#31,.T.);
#18 = FACE_BOUND('',#19,.T.);
#19 = EDGE_LOOP('',(#20,#54,#77,#104));
#20 = ORIENTED_EDGE('',*,*,#21,.F.);
#21 = EDGE_CURVE('',#22,#22,#24,.T.);
#22 = VERTEX_POINT('',#23);
#23 = CARTESIAN_POINT('',(-527.,-5.633375276078E-15,51.));
#24 = SURFACE_CURVE('',#25,(#30,#42),.PCURVE_S1.);
#25 = CIRCLE('',#26,23.);
#26 = AXIS2_PLACEMENT_3D('',#27,#28,#29);
#27 = CARTESIAN_POINT('',(-550.,0.,51.));
#28 = DIRECTION('',(0.,0.,1.));
#29 = DIRECTION('',(1.,0.,-0.));
#30 = PCURVE('',#31,#36);
#31 = CYLINDRICAL_SURFACE('',#32,23.);
#32 = AXIS2_PLACEMENT_3D('',#33,#34,#35);
#33 = CARTESIAN_POINT('',(-550.,0.,39.));
#34 = DIRECTION('',(0.,0.,1.));
#35 = DIRECTION('',(1.,0.,-0.));
#36 = DEFINITIONAL_REPRESENTATION('',(#37),#41);
#37 = LINE('',#38,#39);
#38 = CARTESIAN_POINT('',(0.,12.));
#39 = VECTOR('',#40,1.);
#40 = DIRECTION('',(1.,0.));
#41 = ( GEOMETRIC_REPRESENTATION_CONTEXT(2) 
PARAMETRIC_REPRESENTATION_CONTEXT() REPRESENTATION_CONTEXT('2D SPACE',''
  ) );
#42 = PCURVE('',#43,#48);
#43 = PLANE('',#44);
#44 = AXIS2_PLACEMENT_3D('',#45,#46,#47);
#45 = CARTESIAN_POINT('',(-550.,0.,51.));
#46 = DIRECTION('',(0.,0.,1.));
#47 = DIRECTION('',(1.,0.,-0.));
#48 = DEFINITIONAL_REPRESENTATION('',(#49),#53);
#49 = CIRCLE('',#50,23.);
#50 = AXIS2_PLACEMENT_2D('',#51,#52);
#51 = CARTESIAN_POINT('',(0.,0.));
#52 = DIRECTION('',(1.,0.));
#53 = ( GEOMETRIC_REPRESENTATION_CONTEXT(2) 
PARAMETRIC_REPRESENTATION_CONTEXT() REPRESENTATION_CONTEXT('2D SPACE',''
  ) );
#54 = ORIENTED_EDGE('',*,*,#55,.F.);
#55 = EDGE_CURVE('',#56,#22,#58,.T.);
#56 = VERTEX_POINT('',#57);
#57 = CARTESIAN_POINT('',(-527.,-5.633375276078E-15,39.));
#58 = SEAM_CURVE('',#59,(#63,#70),.PCURVE_S1.);
#59 = LINE('',#60,#61);
#60 = CARTESIAN_POINT('',(-527.,-5.633375276078E-15,39.));
#61 = VECTOR('',#62,1.);
#62 = DIRECTION('',(0.,0.,1.));
#63 = PCURVE('',#31,#64);
#64 = DEFINITIONAL_REPRESENTATION('',(#65),#69);
#65 = LINE('',#66,#67);
#66 = CARTESIAN_POINT('',(6.28318530718,-0.));
#67 = VECTOR('',#68,1.);
#68 = DIRECTION('',(0.,1.));
#69 = ( GEOMETRIC_REPRESENTATION_CONTEXT(2) 
PARAMETRIC_REPRESENTATION_CONTEXT() REPRESENTATION_CONTEXT('2D SPACE',''
  ) );
#70 = PCURVE('',#31,#71);
#71 = DEFINITIONAL_REPRESENTATION('',(#72),#76);
#72 = LINE('',#73,#74);
#73 = CARTESIAN_POINT('',(0.,-0.));
#74 = VECTOR('',#75,1.);
#75 = DIRECTION('',(0.,1.));
#76 = ( GEOMETRIC_REPRESENTATION_CONTEXT(2) 
PARAMETRIC_REPRESENTATION_CONTEXT() REPRESENTATION_CONTEXT('2D SPACE',''
  ) );
#77 = ORIENTED_EDGE('',*,*,#78,.T.);
#78 = EDGE_CURVE('',#56,#56,#79,.T.);
#79 = SURFACE_CURVE('',#80,(#85,#92),.PCURVE_S1.);
#80 = CIRCLE('',#81,23.);
#81 = AXIS2_PLACEMENT_3D('',#82,#83,#84);
#82 = CARTESIAN_POINT('',(-550.,0.,39.));
#83 = DIRECTION('',(0.,0.,1.));
#84 = DIRECTION('',(1.,0.,-0.));
#85 = PCURVE('',#31,#86);
#86 = DEFINITIONAL_REPRESENTATION('',(#87),#91);
#87 = LINE('',#88,#89);
#88 = CARTESIAN_POINT('',(0.,0.));
#89 = VECTOR('',#90,1.);
#90 = DIRECTION('',(1.,0.));
#91 = ( GEOMETRIC_REPRESENTATION_CONTEXT(2) 
PARAMETRIC_REPRESENTATION_CONTEXT() REPRESENTATION_CONTEXT('2D SPACE',''
  ) );
#92 = PCURVE('',#93,#98);
#93 = PLANE('',#94);
#94 = AXIS2_PLACEMENT_3D('',#95,#96,#97);
#95 = CARTESIAN_POINT('',(-550.,0.,39.));
#96 = DIRECTION('',(0.,0.,1.));
#97 = DIRECTION('',(1.,0.,-0.));
#98 = DEFINITIONAL_REPRESENTATION('',(#99),#103);
#99 = CIRCLE('',#100,23.);
#100 = AXIS2_PLACEMENT_2D('',#101,#102);
#101 = CARTESIAN_POINT('',(0.,0.));
#102 = DIRECTION('',(1.,0.));
#103 = ( GEOMETRIC_REPRESENTATION_CONTEXT(2) 
PARAMETRIC_REPRESENTATION_CONTEXT() REPRESENTATION_CONTEXT('2D SPACE',''
  ) );
#104 = ORIENTED_EDGE('',*,*,#55,.T.);
#105 = FACE_BOUND('',#106,.T.);
#106 = EDGE_LOOP('',(#107));
#107 = ORIENTED_EDGE('',*,*,#108,.T.);
#108 = EDGE_CURVE('',#109,#109,#111,.T.);
#109 = VERTEX_POINT('',#110);
#110 = CARTESIAN_POINT('',(-550.,23.,42.5));
#111 = SURFACE_CURVE('',#112,(#171,#233),.PCURVE_S1.);
#112 = B_SPLINE_CURVE_WITH_KNOTS('',8,(#113,#114,#115,#116,#117,#118,
    #119,#120,#121,#122,#123,#124,#125,#126,#127,#128,#129,#130,#131,
    #132,#133,#134,#135,#136,#137,#138,#139,#140,#141,#142,#143,#144,
    #145,#146,#147,#148,#149,#150,#151,#152,#153,#154,#155,#156,#157,
    #158,#159,#160,#161,#162,#163,#164,#165,#166,#167,#168,#169,#170),
  .UNSPECIFIED.,.T.,.F.,(9,7,7,7,7,7,7,7,9),(0.,0.137157639773,
    0.28070258474,0.452630268714,0.598485427792,0.692592374284,
    0.796109615006,0.900396325682,1.),.UNSPECIFIED.);
#113 = CARTESIAN_POINT('',(-550.,23.,42.5));
#114 = CARTESIAN_POINT('',(-549.7079990054,23.,42.5));
#115 = CARTESIAN_POINT('',(-549.4231646898,22.995763203355,
    42.538977630531));
#116 = CARTESIAN_POINT('',(-549.1513188334,22.987653858903,
    42.613587415904));
#117 = CARTESIAN_POINT('',(-548.8974356442,22.976491169535,
    42.719639996701));
#118 = CARTESIAN_POINT('',(-548.665556166,22.9633964773,42.852126844565)
  );
#119 = CARTESIAN_POINT('',(-548.4586272856,22.949554961412,
    43.005259617228));
#120 = CARTESIAN_POINT('',(-548.2783000903,22.93598686334,
    43.172520557098));
#121 = CARTESIAN_POINT('',(-547.9639925861,22.910274567275,
    43.529032439876));
#122 = CARTESIAN_POINT('',(-547.8286371098,22.897905036079,
    43.723396472945));
#123 = CARTESIAN_POINT('',(-547.7176355814,22.886944821137,
    43.926424455377));
#124 = CARTESIAN_POINT('',(-547.6299948449,22.877824682692,
    44.13559017042));
#125 = CARTESIAN_POINT('',(-547.5648680139,22.870819681155,
    44.348963464641));
#126 = CARTESIAN_POINT('',(-547.5216407672,22.866092990258,
    44.565008065762));
#127 = CARTESIAN_POINT('',(-547.5,22.863726730347,44.782422038728));
#128 = CARTESIAN_POINT('',(-547.5,22.863726730347,45.260599040767));
#129 = CARTESIAN_POINT('',(-547.5310457444,22.867121156052,
    45.520793111437));
#130 = CARTESIAN_POINT('',(-547.5929661698,22.873892612412,
    45.778652762255));
#131 = CARTESIAN_POINT('',(-547.686471487,22.883876687442,
    46.032045455574));
#132 = CARTESIAN_POINT('',(-547.8128624354,22.896747892531,
    46.278146229995));
#133 = CARTESIAN_POINT('',(-547.9738431224,22.911914789723,
    46.513126509068));
#134 = CARTESIAN_POINT('',(-548.1712413125,22.928393465997,
    46.731709809899));
#135 = CARTESIAN_POINT('',(-548.6059712757,22.958586382356,
    47.09134971248));
#136 = CARTESIAN_POINT('',(-548.840479849,22.972880997633,47.24556705208
    ));
#137 = CARTESIAN_POINT('',(-549.106523413,22.986154705181,
    47.375303101288));
#138 = CARTESIAN_POINT('',(-549.3976455774,22.996643591665,
    47.470349182306));
#139 = CARTESIAN_POINT('',(-549.7049236099,23.00270759425,47.5239101974)
  );
#140 = CARTESIAN_POINT('',(-550.0181776178,23.003594007011,
    47.532710685931));
#141 = CARTESIAN_POINT('',(-550.3269593085,22.999566252255,
    47.497140796496));
#142 = CARTESIAN_POINT('',(-550.8119097808,22.986452516972,
    47.372626678266));
#143 = CARTESIAN_POINT('',(-550.9977100531,22.979629092026,
    47.306724455946));
#144 = CARTESIAN_POINT('',(-551.1773312847,22.971316626134,
    47.224212802711));
#145 = CARTESIAN_POINT('',(-551.3490507671,22.961796112055,
    47.125776830362));
#146 = CARTESIAN_POINT('',(-551.5112397003,22.951419682371,
    47.012311421403));
#147 = CARTESIAN_POINT('',(-551.6623880443,22.940586390672,
    46.884908000263));
#148 = CARTESIAN_POINT('',(-551.8011318553,22.929712111483,
    46.744841849982));
#149 = CARTESIAN_POINT('',(-552.0639489512,22.907623195887,
    46.427150554898));
#150 = CARTESIAN_POINT('',(-552.1852038599,22.896480668759,
    46.24712669983));
#151 = CARTESIAN_POINT('',(-552.2884499238,22.886294246392,
    46.055404565083));
#152 = CARTESIAN_POINT('',(-552.3723870168,22.877567718403,
    45.854104419133));
#153 = CARTESIAN_POINT('',(-552.4360208581,22.870722785424,
    45.645501332477));
#154 = CARTESIAN_POINT('',(-552.4786740371,22.866058353173,
    45.431979022721));
#155 = CARTESIAN_POINT('',(-552.5,22.863726730347,45.215986855329));
#156 = CARTESIAN_POINT('',(-552.5,22.863726730347,44.782407659491));
#157 = CARTESIAN_POINT('',(-552.4783564192,22.866093295597,
    44.56499373197));
#158 = CARTESIAN_POINT('',(-552.4351283635,22.870820081296,
    44.348955589888));
#159 = CARTESIAN_POINT('',(-552.3700033927,22.877824843946,
    44.13558916526));
#160 = CARTESIAN_POINT('',(-552.282365344,22.886944695903,
    43.926427179712));
#161 = CARTESIAN_POINT('',(-552.1713648962,22.897904862614,
    43.723399115698));
#162 = CARTESIAN_POINT('',(-552.0360080471,22.910274515463,
    43.52903315826));
#163 = CARTESIAN_POINT('',(-551.7217649624,22.935981541611,
    43.172594345125));
#164 = CARTESIAN_POINT('',(-551.5414430486,22.949550209805,
    43.005307768504));
#165 = CARTESIAN_POINT('',(-551.3344649883,22.963396445486,
    42.85211740349));
#166 = CARTESIAN_POINT('',(-551.1025038868,22.976496343831,
    42.719585743325));
#167 = CARTESIAN_POINT('',(-550.8485402736,22.987660801349,
    42.613523628256));
#168 = CARTESIAN_POINT('',(-550.5766546988,22.995767319992,
    42.538939737542));
#169 = CARTESIAN_POINT('',(-550.2918590393,23.,42.5));
#170 = CARTESIAN_POINT('',(-550.,23.,42.5));
#171 = PCURVE('',#31,#172);
#172 = DEFINITIONAL_REPRESENTATION('',(#173),#232);
#173 = B_SPLINE_CURVE_WITH_KNOTS('',8,(#174,#175,#176,#177,#178,#179,
    #180,#181,#182,#183,#184,#185,#186,#187,#188,#189,#190,#191,#192,
    #193,#194,#195,#196,#197,#198,#199,#200,#201,#202,#203,#204,#205,
    #206,#207,#208,#209,#210,#211,#212,#213,#214,#215,#216,#217,#218,
    #219,#220,#221,#222,#223,#224,#225,#226,#227,#228,#229,#230,#231),
  .UNSPECIFIED.,.T.,.F.,(9,7,7,7,7,7,7,7,9),(0.,0.137157639773,
    0.28070258474,0.452630268714,0.598485427792,0.692592374284,
    0.796109615006,0.900396325682,1.),.UNSPECIFIED.);
#174 = CARTESIAN_POINT('',(1.570796326795,3.5));
#175 = CARTESIAN_POINT('',(1.558100631381,3.5));
#176 = CARTESIAN_POINT('',(1.545716526723,3.538977630531));
#177 = CARTESIAN_POINT('',(1.533894040861,3.613587415904));
#178 = CARTESIAN_POINT('',(1.52284689558,3.719639996701));
#179 = CARTESIAN_POINT('',(1.512750303391,3.852126844565));
#180 = CARTESIAN_POINT('',(1.50373381122,4.005259617228));
#181 = CARTESIAN_POINT('',(1.495871507243,4.172520557098));
#182 = CARTESIAN_POINT('',(1.482160313204,4.529032439876));
#183 = CARTESIAN_POINT('',(1.476251036669,4.723396472945));
#184 = CARTESIAN_POINT('',(1.471401573675,4.926424455377));
#185 = CARTESIAN_POINT('',(1.46757057994,5.13559017042));
#186 = CARTESIAN_POINT('',(1.464722652801,5.348963464641));
#187 = CARTESIAN_POINT('',(1.462832004002,5.565008065762));
#188 = CARTESIAN_POINT('',(1.461885493374,5.782422038728));
#189 = CARTESIAN_POINT('',(1.461885493374,6.260599040767));
#190 = CARTESIAN_POINT('',(1.463243352476,6.520793111437));
#191 = CARTESIAN_POINT('',(1.46595159578,6.778652762255));
#192 = CARTESIAN_POINT('',(1.470040136981,7.032045455574));
#193 = CARTESIAN_POINT('',(1.475563674679,7.278146229995));
#194 = CARTESIAN_POINT('',(1.48259334735,7.513126509068));
#195 = CARTESIAN_POINT('',(1.491204892703,7.731709809899));
#196 = CARTESIAN_POINT('',(1.510151726738,8.09134971248));
#197 = CARTESIAN_POINT('',(1.520366308685,8.24556705208));
#198 = CARTESIAN_POINT('',(1.531946621529,8.375303101289));
#199 = CARTESIAN_POINT('',(1.54460973574,8.470349182305));
#200 = CARTESIAN_POINT('',(1.557968493041,8.5239101974));
#201 = CARTESIAN_POINT('',(1.571585440817,8.532710685931));
#202 = CARTESIAN_POINT('',(1.585010557118,8.497140796496));
#203 = CARTESIAN_POINT('',(1.606103067846,8.372626678266));
#204 = CARTESIAN_POINT('',(1.614186408286,8.306724455946));
#205 = CARTESIAN_POINT('',(1.622003804314,8.224212802711));
#206 = CARTESIAN_POINT('',(1.629480753842,8.125776830362));
#207 = CARTESIAN_POINT('',(1.636546424523,8.012311421403));
#208 = CARTESIAN_POINT('',(1.643134699418,7.884908000263));
#209 = CARTESIAN_POINT('',(1.649185442818,7.744841849982));
#210 = CARTESIAN_POINT('',(1.66065256077,7.427150554898));
#211 = CARTESIAN_POINT('',(1.665946560998,7.24712669983));
#212 = CARTESIAN_POINT('',(1.670457183229,7.055404565083));
#213 = CARTESIAN_POINT('',(1.674126230911,6.854104419133));
#214 = CARTESIAN_POINT('',(1.676908871869,6.645501332477));
#215 = CARTESIAN_POINT('',(1.678774422687,6.431979022721));
#216 = CARTESIAN_POINT('',(1.679707160216,6.215986855329));
#217 = CARTESIAN_POINT('',(1.679707160216,5.782407659491));
#218 = CARTESIAN_POINT('',(1.678760526557,5.56499373197));
#219 = CARTESIAN_POINT('',(1.676869842319,5.348955589888));
#220 = CARTESIAN_POINT('',(1.674021996713,5.13558916526));
#221 = CARTESIAN_POINT('',(1.670191120515,4.926427179712));
#222 = CARTESIAN_POINT('',(1.665341704448,4.723399115698));
#223 = CARTESIAN_POINT('',(1.659432368014,4.52903315826));
#224 = CARTESIAN_POINT('',(1.645723984182,4.172594345125));
#225 = CARTESIAN_POINT('',(1.637861907166,4.005307768504));
#226 = CARTESIAN_POINT('',(1.628843267228,3.85211740349));
#227 = CARTESIAN_POINT('',(1.618743121163,3.719585743325));
#228 = CARTESIAN_POINT('',(1.607692482053,3.613523628256));
#229 = CARTESIAN_POINT('',(1.595868274287,3.538939737542));
#230 = CARTESIAN_POINT('',(1.583485850245,3.5));
#231 = CARTESIAN_POINT('',(1.570796326795,3.5));
#232 = ( GEOMETRIC_REPRESENTATION_CONTEXT(2) 
PARAMETRIC_REPRESENTATION_CONTEXT() REPRESENTATION_CONTEXT('2D SPACE',''
  ) );
#233 = PCURVE('',#234,#239);
#234 = CYLINDRICAL_SURFACE('',#235,2.5);
#235 = AXIS2_PLACEMENT_3D('',#236,#237,#238);
#236 = CARTESIAN_POINT('',(-550.,29.,45.));
#237 = DIRECTION('',(0.,-1.,0.));
#238 = DIRECTION('',(0.,-0.,-1.));
#239 = DEFINITIONAL_REPRESENTATION('',(#240),#299);
#240 = B_SPLINE_CURVE_WITH_KNOTS('',8,(#241,#242,#243,#244,#245,#246,
    #247,#248,#249,#250,#251,#252,#253,#254,#255,#256,#257,#258,#259,
    #260,#261,#262,#263,#264,#265,#266,#267,#268,#269,#270,#271,#272,
    #273,#274,#275,#276,#277,#278,#279,#280,#281,#282,#283,#284,#285,
    #286,#287,#288,#289,#290,#291,#292,#293,#294,#295,#296,#297,#298),
  .UNSPECIFIED.,.F.,.F.,(9,7,7,7,7,7,7,7,9),(0.,0.137157639773,
    0.28070258474,0.452630268714,0.598485427792,0.692592374284,
    0.796109615006,0.900396325682,1.),.UNSPECIFIED.);
#241 = CARTESIAN_POINT('',(0.,6.));
#242 = CARTESIAN_POINT('',(0.116800397811,6.));
#243 = CARTESIAN_POINT('',(0.230734059021,6.004236796645));
#244 = CARTESIAN_POINT('',(0.341900620684,6.012346141097));
#245 = CARTESIAN_POINT('',(0.450237895089,6.023508830465));
#246 = CARTESIAN_POINT('',(0.555544885824,6.0366035227));
#247 = CARTESIAN_POINT('',(0.657450464806,6.050445038588));
#248 = CARTESIAN_POINT('',(0.755337224111,6.06401313666));
#249 = CARTESIAN_POINT('',(0.945448740771,6.089725432725));
#250 = CARTESIAN_POINT('',(1.039571565583,6.102094963921));
#251 = CARTESIAN_POINT('',(1.131251240108,6.113055178863));
#252 = CARTESIAN_POINT('',(1.221020894059,6.122175317308));
#253 = CARTESIAN_POINT('',(1.309376846949,6.129180318845));
#254 = CARTESIAN_POINT('',(1.396799684853,6.133907009742));
#255 = CARTESIAN_POINT('',(1.483765142286,6.136273269653));
#256 = CARTESIAN_POINT('',(1.675035943102,6.136273269653));
#257 = CARTESIAN_POINT('',(1.779113111429,6.132878843948));
#258 = CARTESIAN_POINT('',(1.883984605152,6.126107387588));
#259 = CARTESIAN_POINT('',(1.990494872222,6.116123312558));
#260 = CARTESIAN_POINT('',(2.099472395532,6.103252107469));
#261 = CARTESIAN_POINT('',(2.211770459147,6.088085210277));
#262 = CARTESIAN_POINT('',(2.328342505643,6.071606534003));
#263 = CARTESIAN_POINT('',(2.554025823727,6.041413617644));
#264 = CARTESIAN_POINT('',(2.6656235632,6.027119002367));
#265 = CARTESIAN_POINT('',(2.782390414096,6.013845294819));
#266 = CARTESIAN_POINT('',(2.902536710778,6.003356408335));
#267 = CARTESIAN_POINT('',(3.024781855845,5.99729240575));
#268 = CARTESIAN_POINT('',(3.148018577826,5.996405992989));
#269 = CARTESIAN_POINT('',(3.271189512958,6.000433747745));
#270 = CARTESIAN_POINT('',(3.471461618349,6.013547483028));
#271 = CARTESIAN_POINT('',(3.550002427488,6.020370907974));
#272 = CARTESIAN_POINT('',(3.628540104657,6.028683373866));
#273 = CARTESIAN_POINT('',(3.707076639192,6.038203887945));
#274 = CARTESIAN_POINT('',(3.785615462644,6.048580317629));
#275 = CARTESIAN_POINT('',(3.864158464183,6.059413609328));
#276 = CARTESIAN_POINT('',(3.942702957121,6.070287888517));
#277 = CARTESIAN_POINT('',(4.10762746585,6.092376804113));
#278 = CARTESIAN_POINT('',(4.194027905877,6.103519331241));
#279 = CARTESIAN_POINT('',(4.280425197279,6.113705753608));
#280 = CARTESIAN_POINT('',(4.366816490126,6.122432281597));
#281 = CARTESIAN_POINT('',(4.453205532567,6.129277214576));
#282 = CARTESIAN_POINT('',(4.539597544781,6.133941646827));
#283 = CARTESIAN_POINT('',(4.625994238253,6.136273269653));
#284 = CARTESIAN_POINT('',(4.799425916588,6.136273269653));
#285 = CARTESIAN_POINT('',(4.886391342844,6.133906704403));
#286 = CARTESIAN_POINT('',(4.973811818289,6.129179918704));
#287 = CARTESIAN_POINT('',(5.06216507371,6.122175156054));
#288 = CARTESIAN_POINT('',(5.151932969488,6.113055304097));
#289 = CARTESIAN_POINT('',(5.243612424443,6.102095137386));
#290 = CARTESIAN_POINT('',(5.337736183327,6.089725484537));
#291 = CARTESIAN_POINT('',(5.527808735282,6.064018458389));
#292 = CARTESIAN_POINT('',(5.625701801128,6.050449790195));
#293 = CARTESIAN_POINT('',(5.727636067153,6.036603554514));
#294 = CARTESIAN_POINT('',(5.832978120546,6.023503656169));
#295 = CARTESIAN_POINT('',(5.94134454274,6.012339198651));
#296 = CARTESIAN_POINT('',(6.052523503575,6.004232680008));
#297 = CARTESIAN_POINT('',(6.166441691441,6.));
#298 = CARTESIAN_POINT('',(6.28318530718,6.));
#299 = ( GEOMETRIC_REPRESENTATION_CONTEXT(2) 
PARAMETRIC_REPRESENTATION_CONTEXT() REPRESENTATION_CONTEXT('2D SPACE',''
  ) );
#300 = FACE_BOUND('',#301,.T.);
#301 = EDGE_LOOP('',(#302));
#302 = ORIENTED_EDGE('',*,*,#303,.F.);
#303 = EDGE_CURVE('',#304,#304,#306,.T.);
#304 = VERTEX_POINT('',#305);
#305 = CARTESIAN_POINT('',(-550.,-23.,42.5));
#306 = SURFACE_CURVE('',#307,(#366,#428),.PCURVE_S1.);
#307 = B_SPLINE_CURVE_WITH_KNOTS('',8,(#308,#309,#310,#311,#312,#313,
    #314,#315,#316,#317,#318,#319,#320,#321,#322,#323,#324,#325,#326,
    #327,#328,#329,#330,#331,#332,#333,#334,#335,#336,#337,#338,#339,
    #340,#341,#342,#343,#344,#345,#346,#347,#348,#349,#350,#351,#352,
    #353,#354,#355,#356,#357,#358,#359,#360,#361,#362,#363,#364,#365),
  .UNSPECIFIED.,.T.,.F.,(9,7,7,7,7,7,7,7,9),(0.,0.137157640194,
    0.280702585608,0.452630266827,0.598485426407,0.692592373224,
    0.796109614303,0.900396325339,1.),.UNSPECIFIED.);
#308 = CARTESIAN_POINT('',(-550.,-23.,42.5));
#309 = CARTESIAN_POINT('',(-549.7079990054,-23.,42.5));
#310 = CARTESIAN_POINT('',(-549.4231646898,-22.99576320335,
    42.538977630529));
#311 = CARTESIAN_POINT('',(-549.1513188334,-22.9876538589,
    42.613587415908));
#312 = CARTESIAN_POINT('',(-548.8974356442,-22.97649116953,
    42.719639996705));
#313 = CARTESIAN_POINT('',(-548.665556166,-22.9633964773,42.85212684456)
  );
#314 = CARTESIAN_POINT('',(-548.4586272856,-22.94955496141,
    43.005259617221));
#315 = CARTESIAN_POINT('',(-548.2783000903,-22.93598686334,
    43.172520557106));
#316 = CARTESIAN_POINT('',(-547.9639925861,-22.91027456727,
    43.529032439876));
#317 = CARTESIAN_POINT('',(-547.8286371098,-22.89790503607,
    43.723396472944));
#318 = CARTESIAN_POINT('',(-547.7176355814,-22.88694482113,
    43.926424455378));
#319 = CARTESIAN_POINT('',(-547.6299948449,-22.87782468269,
    44.13559017042));
#320 = CARTESIAN_POINT('',(-547.5648680139,-22.87081968115,
    44.348963464641));
#321 = CARTESIAN_POINT('',(-547.5216407672,-22.86609299025,
    44.565008065762));
#322 = CARTESIAN_POINT('',(-547.5,-22.86372673034,44.782422038728));
#323 = CARTESIAN_POINT('',(-547.5,-22.86372673034,45.260599035779));
#324 = CARTESIAN_POINT('',(-547.5310457479,-22.86712115632,
    45.520793125903));
#325 = CARTESIAN_POINT('',(-547.592966162,-22.87389261181,
    45.778652747313));
#326 = CARTESIAN_POINT('',(-547.6864714903,-22.88387668766,
    46.032045454777));
#327 = CARTESIAN_POINT('',(-547.812862443,-22.89674789311,
    46.278146244995));
#328 = CARTESIAN_POINT('',(-547.9738431119,-22.91191478895,
    46.51312649637));
#329 = CARTESIAN_POINT('',(-548.1712413171,-22.92839346631,
    46.731709813689));
#330 = CARTESIAN_POINT('',(-548.6059712757,-22.95858638235,
    47.09134971248));
#331 = CARTESIAN_POINT('',(-548.840479849,-22.97288099763,
    47.245567052082));
#332 = CARTESIAN_POINT('',(-549.106523413,-22.98615470518,
    47.375303101285));
#333 = CARTESIAN_POINT('',(-549.3976455774,-22.99664359166,
    47.470349182309));
#334 = CARTESIAN_POINT('',(-549.7049236099,-23.00270759425,
    47.523910197397));
#335 = CARTESIAN_POINT('',(-550.0181776178,-23.00359400701,
    47.532710685932));
#336 = CARTESIAN_POINT('',(-550.3269593085,-22.99956625225,
    47.497140796496));
#337 = CARTESIAN_POINT('',(-550.8119097808,-22.98645251697,
    47.372626678266));
#338 = CARTESIAN_POINT('',(-550.9977100531,-22.97962909202,
    47.306724455946));
#339 = CARTESIAN_POINT('',(-551.1773312847,-22.97131662613,
    47.224212802711));
#340 = CARTESIAN_POINT('',(-551.3490507671,-22.96179611205,
    47.125776830362));
#341 = CARTESIAN_POINT('',(-551.5112397003,-22.95141968237,
    47.012311421403));
#342 = CARTESIAN_POINT('',(-551.6623880443,-22.94058639067,
    46.884908000263));
#343 = CARTESIAN_POINT('',(-551.8011318553,-22.92971211148,
    46.744841849982));
#344 = CARTESIAN_POINT('',(-552.0639489512,-22.90762319588,
    46.427150554898));
#345 = CARTESIAN_POINT('',(-552.1852038599,-22.89648066875,
    46.24712669983));
#346 = CARTESIAN_POINT('',(-552.2884499238,-22.88629424639,
    46.055404565083));
#347 = CARTESIAN_POINT('',(-552.3723870168,-22.8775677184,
    45.854104419133));
#348 = CARTESIAN_POINT('',(-552.4360208581,-22.87072278542,
    45.645501332476));
#349 = CARTESIAN_POINT('',(-552.4786740371,-22.86605835317,
    45.431979022721));
#350 = CARTESIAN_POINT('',(-552.5,-22.86372673034,45.215986855329));
#351 = CARTESIAN_POINT('',(-552.5,-22.86372673034,44.782407659491));
#352 = CARTESIAN_POINT('',(-552.4783564192,-22.86609329559,
    44.56499373197));
#353 = CARTESIAN_POINT('',(-552.4351283635,-22.87082008129,
    44.348955589887));
#354 = CARTESIAN_POINT('',(-552.3700033927,-22.87782484394,
    44.13558916526));
#355 = CARTESIAN_POINT('',(-552.282365344,-22.8869446959,43.926427179712
    ));
#356 = CARTESIAN_POINT('',(-552.1713648962,-22.89790486261,
    43.723399115697));
#357 = CARTESIAN_POINT('',(-552.0360080471,-22.91027451546,
    43.52903315826));
#358 = CARTESIAN_POINT('',(-551.7217649624,-22.93598154161,
    43.172594345126));
#359 = CARTESIAN_POINT('',(-551.5414430486,-22.9495502098,
    43.005307768504));
#360 = CARTESIAN_POINT('',(-551.3344649883,-22.96339644548,
    42.85211740349));
#361 = CARTESIAN_POINT('',(-551.1025038868,-22.97649634383,
    42.719585743325));
#362 = CARTESIAN_POINT('',(-550.8485402736,-22.98766080134,
    42.613523628256));
#363 = CARTESIAN_POINT('',(-550.5766546988,-22.99576731999,
    42.538939737542));
#364 = CARTESIAN_POINT('',(-550.2918590393,-23.,42.5));
#365 = CARTESIAN_POINT('',(-550.,-23.,42.5));
#366 = PCURVE('',#31,#367);
#367 = DEFINITIONAL_REPRESENTATION('',(#368),#427);
#368 = B_SPLINE_CURVE_WITH_KNOTS('',8,(#369,#370,#371,#372,#373,#374,
    #375,#376,#377,#378,#379,#380,#381,#382,#383,#384,#385,#386,#387,
    #388,#389,#390,#391,#392,#393,#394,#395,#396,#397,#398,#399,#400,
    #401,#402,#403,#404,#405,#406,#407,#408,#409,#410,#411,#412,#413,
    #414,#415,#416,#417,#418,#419,#420,#421,#422,#423,#424,#425,#426),
  .UNSPECIFIED.,.T.,.F.,(9,7,7,7,7,7,7,7,9),(0.,0.137157640194,
    0.280702585608,0.452630266827,0.598485426407,0.692592373224,
    0.796109614303,0.900396325339,1.),.UNSPECIFIED.);
#369 = CARTESIAN_POINT('',(4.712388980385,3.5));
#370 = CARTESIAN_POINT('',(4.725084675798,3.5));
#371 = CARTESIAN_POINT('',(4.737468780457,3.538977630529));
#372 = CARTESIAN_POINT('',(4.749291266319,3.613587415908));
#373 = CARTESIAN_POINT('',(4.7603384116,3.719639996705));
#374 = CARTESIAN_POINT('',(4.770435003788,3.85212684456));
#375 = CARTESIAN_POINT('',(4.779451495959,4.005259617221));
#376 = CARTESIAN_POINT('',(4.787313799937,4.172520557106));
#377 = CARTESIAN_POINT('',(4.801024993975,4.529032439876));
#378 = CARTESIAN_POINT('',(4.80693427051,4.723396472944));
#379 = CARTESIAN_POINT('',(4.811783733504,4.926424455378));
#380 = CARTESIAN_POINT('',(4.81561472724,5.13559017042));
#381 = CARTESIAN_POINT('',(4.818462654379,5.348963464641));
#382 = CARTESIAN_POINT('',(4.820353303178,5.565008065762));
#383 = CARTESIAN_POINT('',(4.821299813805,5.782422038728));
#384 = CARTESIAN_POINT('',(4.821299813805,6.260599035779));
#385 = CARTESIAN_POINT('',(4.81994195455,6.520793125903));
#386 = CARTESIAN_POINT('',(4.817233711739,6.778652747313));
#387 = CARTESIAN_POINT('',(4.813145170059,7.032045454777));
#388 = CARTESIAN_POINT('',(4.807621632169,7.278146244995));
#389 = CARTESIAN_POINT('',(4.80059196029,7.51312649637));
#390 = CARTESIAN_POINT('',(4.791980414277,7.731709813689));
#391 = CARTESIAN_POINT('',(4.773033580442,8.09134971248));
#392 = CARTESIAN_POINT('',(4.762818998495,8.245567052082));
#393 = CARTESIAN_POINT('',(4.751238685651,8.375303101285));
#394 = CARTESIAN_POINT('',(4.738575571439,8.470349182309));
#395 = CARTESIAN_POINT('',(4.725216814138,8.523910197397));
#396 = CARTESIAN_POINT('',(4.711599866362,8.532710685932));
#397 = CARTESIAN_POINT('',(4.698174750061,8.497140796496));
#398 = CARTESIAN_POINT('',(4.677082239334,8.372626678266));
#399 = CARTESIAN_POINT('',(4.668998898894,8.306724455946));
#400 = CARTESIAN_POINT('',(4.661181502865,8.224212802711));
#401 = CARTESIAN_POINT('',(4.653704553338,8.125776830362));
#402 = CARTESIAN_POINT('',(4.646638882657,8.012311421403));
#403 = CARTESIAN_POINT('',(4.640050607761,7.884908000263));
#404 = CARTESIAN_POINT('',(4.633999864362,7.744841849982));
#405 = CARTESIAN_POINT('',(4.62253274641,7.427150554898));
#406 = CARTESIAN_POINT('',(4.617238746182,7.24712669983));
#407 = CARTESIAN_POINT('',(4.61272812395,7.055404565083));
#408 = CARTESIAN_POINT('',(4.609059076269,6.854104419133));
#409 = CARTESIAN_POINT('',(4.606276435311,6.645501332477));
#410 = CARTESIAN_POINT('',(4.604410884492,6.431979022721));
#411 = CARTESIAN_POINT('',(4.603478146964,6.215986855329));
#412 = CARTESIAN_POINT('',(4.603478146964,5.782407659491));
#413 = CARTESIAN_POINT('',(4.604424780623,5.56499373197));
#414 = CARTESIAN_POINT('',(4.606315464861,5.348955589887));
#415 = CARTESIAN_POINT('',(4.609163310467,5.13558916526));
#416 = CARTESIAN_POINT('',(4.612994186665,4.926427179712));
#417 = CARTESIAN_POINT('',(4.617843602732,4.723399115697));
#418 = CARTESIAN_POINT('',(4.623752939165,4.52903315826));
#419 = CARTESIAN_POINT('',(4.637461322998,4.172594345126));
#420 = CARTESIAN_POINT('',(4.645323400014,4.005307768504));
#421 = CARTESIAN_POINT('',(4.654342039952,3.85211740349));
#422 = CARTESIAN_POINT('',(4.664442186017,3.719585743325));
#423 = CARTESIAN_POINT('',(4.675492825127,3.613523628256));
#424 = CARTESIAN_POINT('',(4.687317032893,3.538939737542));
#425 = CARTESIAN_POINT('',(4.699699456935,3.5));
#426 = CARTESIAN_POINT('',(4.712388980385,3.5));
#427 = ( GEOMETRIC_REPRESENTATION_CONTEXT(2) 
PARAMETRIC_REPRESENTATION_CONTEXT() REPRESENTATION_CONTEXT('2D SPACE',''
  ) );
#428 = PCURVE('',#429,#434);
#429 = CYLINDRICAL_SURFACE('',#430,2.5);
#430 = AXIS2_PLACEMENT_3D('',#431,#432,#433);
#431 = CARTESIAN_POINT('',(-550.,-22.,45.));
#432 = DIRECTION('',(0.,-1.,0.));
#433 = DIRECTION('',(0.,-0.,-1.));
#434 = DEFINITIONAL_REPRESENTATION('',(#435),#494);
#435 = B_SPLINE_CURVE_WITH_KNOTS('',8,(#436,#437,#438,#439,#440,#441,
    #442,#443,#444,#445,#446,#447,#448,#449,#450,#451,#452,#453,#454,
    #455,#456,#457,#458,#459,#460,#461,#462,#463,#464,#465,#466,#467,
    #468,#469,#470,#471,#472,#473,#474,#475,#476,#477,#478,#479,#480,
    #481,#482,#483,#484,#485,#486,#487,#488,#489,#490,#491,#492,#493),
  .UNSPECIFIED.,.F.,.F.,(9,7,7,7,7,7,7,7,9),(0.,0.137157640194,
    0.280702585608,0.452630266827,0.598485426407,0.692592373224,
    0.796109614303,0.900396325339,1.),.UNSPECIFIED.);
#436 = CARTESIAN_POINT('',(0.,1.));
#437 = CARTESIAN_POINT('',(0.116800397807,1.));
#438 = CARTESIAN_POINT('',(0.230734059023,0.995763203355));
#439 = CARTESIAN_POINT('',(0.341900620688,0.987653858903));
#440 = CARTESIAN_POINT('',(0.450237895089,0.976491169534));
#441 = CARTESIAN_POINT('',(0.55554488582,0.9633964773));
#442 = CARTESIAN_POINT('',(0.657450464803,0.949554961412));
#443 = CARTESIAN_POINT('',(0.755337224115,0.93598686334));
#444 = CARTESIAN_POINT('',(0.945448740771,0.910274567275));
#445 = CARTESIAN_POINT('',(1.039571565583,0.897905036079));
#446 = CARTESIAN_POINT('',(1.131251240108,0.886944821137));
#447 = CARTESIAN_POINT('',(1.221020894059,0.877824682692));
#448 = CARTESIAN_POINT('',(1.309376846949,0.870819681155));
#449 = CARTESIAN_POINT('',(1.396799684853,0.866092990258));
#450 = CARTESIAN_POINT('',(1.483765142286,0.863726730347));
#451 = CARTESIAN_POINT('',(1.675035941106,0.863726730347));
#452 = CARTESIAN_POINT('',(1.779113117772,0.867121156324));
#453 = CARTESIAN_POINT('',(1.883984597891,0.873892611819));
#454 = CARTESIAN_POINT('',(1.990494872502,0.883876687668));
#455 = CARTESIAN_POINT('',(2.099472402784,0.896747893114));
#456 = CARTESIAN_POINT('',(2.211770452195,0.911914788957));
#457 = CARTESIAN_POINT('',(2.328342508022,0.928393466316));
#458 = CARTESIAN_POINT('',(2.554025823726,0.958586382356));
#459 = CARTESIAN_POINT('',(2.665623563201,0.972880997634));
#460 = CARTESIAN_POINT('',(2.782390414095,0.986154705181));
#461 = CARTESIAN_POINT('',(2.902536710779,0.996643591665));
#462 = CARTESIAN_POINT('',(3.024781855844,1.00270759425));
#463 = CARTESIAN_POINT('',(3.148018577826,1.003594007011));
#464 = CARTESIAN_POINT('',(3.271189512958,0.999566252255));
#465 = CARTESIAN_POINT('',(3.471461618349,0.986452516972));
#466 = CARTESIAN_POINT('',(3.550002427488,0.979629092026));
#467 = CARTESIAN_POINT('',(3.628540104657,0.971316626134));
#468 = CARTESIAN_POINT('',(3.707076639192,0.961796112055));
#469 = CARTESIAN_POINT('',(3.785615462644,0.951419682371));
#470 = CARTESIAN_POINT('',(3.864158464183,0.940586390672));
#471 = CARTESIAN_POINT('',(3.942702957121,0.929712111483));
#472 = CARTESIAN_POINT('',(4.10762746585,0.907623195887));
#473 = CARTESIAN_POINT('',(4.194027905877,0.896480668759));
#474 = CARTESIAN_POINT('',(4.280425197279,0.886294246392));
#475 = CARTESIAN_POINT('',(4.366816490126,0.877567718403));
#476 = CARTESIAN_POINT('',(4.453205532567,0.870722785424));
#477 = CARTESIAN_POINT('',(4.539597544781,0.866058353173));
#478 = CARTESIAN_POINT('',(4.625994238253,0.863726730347));
#479 = CARTESIAN_POINT('',(4.799425916588,0.863726730347));
#480 = CARTESIAN_POINT('',(4.886391342843,0.866093295597));
#481 = CARTESIAN_POINT('',(4.97381181829,0.870820081296));
#482 = CARTESIAN_POINT('',(5.06216507371,0.877824843946));
#483 = CARTESIAN_POINT('',(5.151932969488,0.886944695903));
#484 = CARTESIAN_POINT('',(5.243612424443,0.897904862614));
#485 = CARTESIAN_POINT('',(5.337736183327,0.910274515463));
#486 = CARTESIAN_POINT('',(5.527808735281,0.935981541611));
#487 = CARTESIAN_POINT('',(5.625701801128,0.949550209805));
#488 = CARTESIAN_POINT('',(5.727636067153,0.963396445486));
#489 = CARTESIAN_POINT('',(5.832978120546,0.976496343831));
#490 = CARTESIAN_POINT('',(5.94134454274,0.987660801349));
#491 = CARTESIAN_POINT('',(6.052523503575,0.995767319992));
#492 = CARTESIAN_POINT('',(6.16644169144,1.));
#493 = CARTESIAN_POINT('',(6.28318530718,1.));
#494 = ( GEOMETRIC_REPRESENTATION_CONTEXT(2) 
PARAMETRIC_REPRESENTATION_CONTEXT() REPRESENTATION_CONTEXT('2D SPACE',''
  ) );
#495 = ADVANCED_FACE('',(#496,#499),#43,.T.);
#496 = FACE_BOUND('',#497,.T.);
#497 = EDGE_LOOP('',(#498));
#498 = ORIENTED_EDGE('',*,*,#21,.T.);
#499 = FACE_BOUND('',#500,.T.);
#500 = EDGE_LOOP('',(#501));
#501 = ORIENTED_EDGE('',*,*,#502,.F.);
#502 = EDGE_CURVE('',#503,#503,#505,.T.);
#503 = VERTEX_POINT('',#504);
#504 = CARTESIAN_POINT('',(-530.,-4.898587196589E-15,51.));
#505 = SURFACE_CURVE('',#506,(#511,#518),.PCURVE_S1.);
#506 = CIRCLE('',#507,20.);
#507 = AXIS2_PLACEMENT_3D('',#508,#509,#510);
#508 = CARTESIAN_POINT('',(-550.,0.,51.));
#509 = DIRECTION('',(0.,0.,1.));
#510 = DIRECTION('',(1.,0.,-0.));
#511 = PCURVE('',#43,#512);
#512 = DEFINITIONAL_REPRESENTATION('',(#513),#517);
#513 = CIRCLE('',#514,20.);
#514 = AXIS2_PLACEMENT_2D('',#515,#516);
#515 = CARTESIAN_POINT('',(0.,0.));
#516 = DIRECTION('',(1.,0.));
#517 = ( GEOMETRIC_REPRESENTATION_CONTEXT(2) 
PARAMETRIC_REPRESENTATION_CONTEXT() REPRESENTATION_CONTEXT('2D SPACE',''
  ) );
#518 = PCURVE('',#519,#524);
#519 = CYLINDRICAL_SURFACE('',#520,20.);
#520 = AXIS2_PLACEMENT_3D('',#521,#522,#523);
#521 = CARTESIAN_POINT('',(-550.,0.,33.));
#522 = DIRECTION('',(0.,0.,1.));
#523 = DIRECTION('',(1.,0.,-0.));
#524 = DEFINITIONAL_REPRESENTATION('',(#525),#529);
#525 = LINE('',#526,#527);
#526 = CARTESIAN_POINT('',(0.,18.));
#527 = VECTOR('',#528,1.);
#528 = DIRECTION('',(1.,0.));
#529 = ( GEOMETRIC_REPRESENTATION_CONTEXT(2) 
PARAMETRIC_REPRESENTATION_CONTEXT() REPRESENTATION_CONTEXT('2D SPACE',''
  ) );
#530 = ADVANCED_FACE('',(#531,#534),#93,.F.);
#531 = FACE_BOUND('',#532,.F.);
#532 = EDGE_LOOP('',(#533));
#533 = ORIENTED_EDGE('',*,*,#78,.T.);
#534 = FACE_BOUND('',#535,.F.);
#535 = EDGE_LOOP('',(#536));
#536 = ORIENTED_EDGE('',*,*,#537,.F.);
#537 = EDGE_CURVE('',#538,#538,#540,.T.);
#538 = VERTEX_POINT('',#539);
#539 = CARTESIAN_POINT('',(-530.,-4.898587196589E-15,39.));
#540 = SURFACE_CURVE('',#541,(#546,#553),.PCURVE_S1.);
#541 = CIRCLE('',#542,20.);
#542 = AXIS2_PLACEMENT_3D('',#543,#544,#545);
#543 = CARTESIAN_POINT('',(-550.,0.,39.));
#544 = DIRECTION('',(0.,0.,1.));
#545 = DIRECTION('',(1.,0.,-0.));
#546 = PCURVE('',#93,#547);
#547 = DEFINITIONAL_REPRESENTATION('',(#548),#552);
#548 = CIRCLE('',#549,20.);
#549 = AXIS2_PLACEMENT_2D('',#550,#551);
#550 = CARTESIAN_POINT('',(0.,0.));
#551 = DIRECTION('',(1.,0.));
#552 = ( GEOMETRIC_REPRESENTATION_CONTEXT(2) 
PARAMETRIC_REPRESENTATION_CONTEXT() REPRESENTATION_CONTEXT('2D SPACE',''
  ) );
#553 = PCURVE('',#519,#554);
#554 = DEFINITIONAL_REPRESENTATION('',(#555),#559);
#555 = LINE('',#556,#557);
#556 = CARTESIAN_POINT('',(0.,6.));
#557 = VECTOR('',#558,1.);
#558 = DIRECTION('',(1.,0.));
#559 = ( GEOMETRIC_REPRESENTATION_CONTEXT(2) 
PARAMETRIC_REPRESENTATION_CONTEXT() REPRESENTATION_CONTEXT('2D SPACE',''
  ) );
#560 = ADVANCED_FACE('',(#561),#234,.T.);
#561 = FACE_BOUND('',#562,.T.);
#562 = EDGE_LOOP('',(#563,#564,#587,#614));
#563 = ORIENTED_EDGE('',*,*,#108,.F.);
#564 = ORIENTED_EDGE('',*,*,#565,.F.);
#565 = EDGE_CURVE('',#566,#109,#568,.T.);
#566 = VERTEX_POINT('',#567);
#567 = CARTESIAN_POINT('',(-550.,29.,42.5));
#568 = SEAM_CURVE('',#569,(#573,#580),.PCURVE_S1.);
#569 = LINE('',#570,#571);
#570 = CARTESIAN_POINT('',(-550.,29.,42.5));
#571 = VECTOR('',#572,1.);
#572 = DIRECTION('',(0.,-1.,0.));
#573 = PCURVE('',#234,#574);
#574 = DEFINITIONAL_REPRESENTATION('',(#575),#579);
#575 = LINE('',#576,#577);
#576 = CARTESIAN_POINT('',(6.28318530718,-0.));
#577 = VECTOR('',#578,1.);
#578 = DIRECTION('',(0.,1.));
#579 = ( GEOMETRIC_REPRESENTATION_CONTEXT(2) 
PARAMETRIC_REPRESENTATION_CONTEXT() REPRESENTATION_CONTEXT('2D SPACE',''
  ) );
#580 = PCURVE('',#234,#581);
#581 = DEFINITIONAL_REPRESENTATION('',(#582),#586);
#582 = LINE('',#583,#584);
#583 = CARTESIAN_POINT('',(0.,-0.));
#584 = VECTOR('',#585,1.);
#585 = DIRECTION('',(0.,1.));
#586 = ( GEOMETRIC_REPRESENTATION_CONTEXT(2) 
PARAMETRIC_REPRESENTATION_CONTEXT() REPRESENTATION_CONTEXT('2D SPACE',''
  ) );
#587 = ORIENTED_EDGE('',*,*,#588,.T.);
#588 = EDGE_CURVE('',#566,#566,#589,.T.);
#589 = SURFACE_CURVE('',#590,(#595,#602),.PCURVE_S1.);
#590 = CIRCLE('',#591,2.5);
#591 = AXIS2_PLACEMENT_3D('',#592,#593,#594);
#592 = CARTESIAN_POINT('',(-550.,29.,45.));
#593 = DIRECTION('',(0.,-1.,0.));
#594 = DIRECTION('',(0.,-0.,-1.));
#595 = PCURVE('',#234,#596);
#596 = DEFINITIONAL_REPRESENTATION('',(#597),#601);
#597 = LINE('',#598,#599);
#598 = CARTESIAN_POINT('',(0.,0.));
#599 = VECTOR('',#600,1.);
#600 = DIRECTION('',(1.,0.));
#601 = ( GEOMETRIC_REPRESENTATION_CONTEXT(2) 
PARAMETRIC_REPRESENTATION_CONTEXT() REPRESENTATION_CONTEXT('2D SPACE',''
  ) );
#602 = PCURVE('',#603,#608);
#603 = PLANE('',#604);
#604 = AXIS2_PLACEMENT_3D('',#605,#606,#607);
#605 = CARTESIAN_POINT('',(-550.,29.,45.));
#606 = DIRECTION('',(0.,-1.,0.));
#607 = DIRECTION('',(0.,-0.,-1.));
#608 = DEFINITIONAL_REPRESENTATION('',(#609),#613);
#609 = CIRCLE('',#610,2.5);
#610 = AXIS2_PLACEMENT_2D('',#611,#612);
#611 = CARTESIAN_POINT('',(0.,0.));
#612 = DIRECTION('',(1.,0.));
#613 = ( GEOMETRIC_REPRESENTATION_CONTEXT(2) 
PARAMETRIC_REPRESENTATION_CONTEXT() REPRESENTATION_CONTEXT('2D SPACE',''
  ) );
#614 = ORIENTED_EDGE('',*,*,#565,.T.);
#615 = ADVANCED_FACE('',(#616),#429,.T.);
#616 = FACE_BOUND('',#617,.T.);
#617 = EDGE_LOOP('',(#618,#641,#668,#669));
#618 = ORIENTED_EDGE('',*,*,#619,.T.);
#619 = EDGE_CURVE('',#304,#620,#622,.T.);
#620 = VERTEX_POINT('',#621);
#621 = CARTESIAN_POINT('',(-550.,-29.,42.5));
#622 = SEAM_CURVE('',#623,(#627,#634),.PCURVE_S1.);
#623 = LINE('',#624,#625);
#624 = CARTESIAN_POINT('',(-550.,-22.,42.5));
#625 = VECTOR('',#626,1.);
#626 = DIRECTION('',(0.,-1.,0.));
#627 = PCURVE('',#429,#628);
#628 = DEFINITIONAL_REPRESENTATION('',(#629),#633);
#629 = LINE('',#630,#631);
#630 = CARTESIAN_POINT('',(6.28318530718,-0.));
#631 = VECTOR('',#632,1.);
#632 = DIRECTION('',(0.,1.));
#633 = ( GEOMETRIC_REPRESENTATION_CONTEXT(2) 
PARAMETRIC_REPRESENTATION_CONTEXT() REPRESENTATION_CONTEXT('2D SPACE',''
  ) );
#634 = PCURVE('',#429,#635);
#635 = DEFINITIONAL_REPRESENTATION('',(#636),#640);
#636 = LINE('',#637,#638);
#637 = CARTESIAN_POINT('',(0.,-0.));
#638 = VECTOR('',#639,1.);
#639 = DIRECTION('',(0.,1.));
#640 = ( GEOMETRIC_REPRESENTATION_CONTEXT(2) 
PARAMETRIC_REPRESENTATION_CONTEXT() REPRESENTATION_CONTEXT('2D SPACE',''
  ) );
#641 = ORIENTED_EDGE('',*,*,#642,.F.);
#642 = EDGE_CURVE('',#620,#620,#643,.T.);
#643 = SURFACE_CURVE('',#644,(#649,#656),.PCURVE_S1.);
#644 = CIRCLE('',#645,2.5);
#645 = AXIS2_PLACEMENT_3D('',#646,#647,#648);
#646 = CARTESIAN_POINT('',(-550.,-29.,45.));
#647 = DIRECTION('',(0.,-1.,0.));
#648 = DIRECTION('',(0.,-0.,-1.));
#649 = PCURVE('',#429,#650);
#650 = DEFINITIONAL_REPRESENTATION('',(#651),#655);
#651 = LINE('',#652,#653);
#652 = CARTESIAN_POINT('',(0.,7.));
#653 = VECTOR('',#654,1.);
#654 = DIRECTION('',(1.,0.));
#655 = ( GEOMETRIC_REPRESENTATION_CONTEXT(2) 
PARAMETRIC_REPRESENTATION_CONTEXT() REPRESENTATION_CONTEXT('2D SPACE',''
  ) );
#656 = PCURVE('',#657,#662);
#657 = PLANE('',#658);
#658 = AXIS2_PLACEMENT_3D('',#659,#660,#661);
#659 = CARTESIAN_POINT('',(-550.,-29.,45.));
#660 = DIRECTION('',(0.,-1.,0.));
#661 = DIRECTION('',(0.,-0.,-1.));
#662 = DEFINITIONAL_REPRESENTATION('',(#663),#667);
#663 = CIRCLE('',#664,2.5);
#664 = AXIS2_PLACEMENT_2D('',#665,#666);
#665 = CARTESIAN_POINT('',(0.,0.));
#666 = DIRECTION('',(1.,0.));
#667 = ( GEOMETRIC_REPRESENTATION_CONTEXT(2) 
PARAMETRIC_REPRESENTATION_CONTEXT() REPRESENTATION_CONTEXT('2D SPACE',''
  ) );
#668 = ORIENTED_EDGE('',*,*,#619,.F.);
#669 = ORIENTED_EDGE('',*,*,#303,.T.);
#670 = ADVANCED_FACE('',(#671),#519,.F.);
#671 = FACE_BOUND('',#672,.F.);
#672 = EDGE_LOOP('',(#673,#674,#695,#696));
#673 = ORIENTED_EDGE('',*,*,#502,.F.);
#674 = ORIENTED_EDGE('',*,*,#675,.F.);
#675 = EDGE_CURVE('',#538,#503,#676,.T.);
#676 = SEAM_CURVE('',#677,(#681,#688),.PCURVE_S1.);
#677 = LINE('',#678,#679);
#678 = CARTESIAN_POINT('',(-530.,-4.898587196589E-15,33.));
#679 = VECTOR('',#680,1.);
#680 = DIRECTION('',(0.,0.,1.));
#681 = PCURVE('',#519,#682);
#682 = DEFINITIONAL_REPRESENTATION('',(#683),#687);
#683 = LINE('',#684,#685);
#684 = CARTESIAN_POINT('',(6.28318530718,-0.));
#685 = VECTOR('',#686,1.);
#686 = DIRECTION('',(0.,1.));
#687 = ( GEOMETRIC_REPRESENTATION_CONTEXT(2) 
PARAMETRIC_REPRESENTATION_CONTEXT() REPRESENTATION_CONTEXT('2D SPACE',''
  ) );
#688 = PCURVE('',#519,#689);
#689 = DEFINITIONAL_REPRESENTATION('',(#690),#694);
#690 = LINE('',#691,#692);
#691 = CARTESIAN_POINT('',(0.,-0.));
#692 = VECTOR('',#693,1.);
#693 = DIRECTION('',(0.,1.));
#694 = ( GEOMETRIC_REPRESENTATION_CONTEXT(2) 
PARAMETRIC_REPRESENTATION_CONTEXT() REPRESENTATION_CONTEXT('2D SPACE',''
  ) );
#695 = ORIENTED_EDGE('',*,*,#537,.T.);
#696 = ORIENTED_EDGE('',*,*,#675,.T.);
#697 = ADVANCED_FACE('',(#698),#603,.F.);
#698 = FACE_BOUND('',#699,.T.);
#699 = EDGE_LOOP('',(#700));
#700 = ORIENTED_EDGE('',*,*,#588,.F.);
#701 = ADVANCED_FACE('',(#702),#657,.T.);
#702 = FACE_BOUND('',#703,.T.);
#703 = EDGE_LOOP('',(#704));
#704 = ORIENTED_EDGE('',*,*,#642,.T.);
#705 = ( GEOMETRIC_REPRESENTATION_CONTEXT(3) 
GLOBAL_UNCERTAINTY_ASSIGNED_CONTEXT((#709)) GLOBAL_UNIT_ASSIGNED_CONTEXT
((#706,#707,#708)) REPRESENTATION_CONTEXT('Context #1',
  '3D Context with UNIT and UNCERTAINTY') );
#706 = ( LENGTH_UNIT() NAMED_UNIT(*) SI_UNIT(.MILLI.,.METRE.) );
#707 = ( NAMED_UNIT(*) PLANE_ANGLE_UNIT() SI_UNIT($,.RADIAN.) );
#708 = ( NAMED_UNIT(*) SI_UNIT($,.STERADIAN.) SOLID_ANGLE_UNIT() );
#709 = UNCERTAINTY_MEASURE_WITH_UNIT(LENGTH_MEASURE(1.E-07),#706,
  'distance_accuracy_value','confusion accuracy');
#710 = PRODUCT_RELATED_PRODUCT_CATEGORY('part',$,(#7));
ENDSEC;
END-ISO-10303-21;
