ISO-10303-21;
HEADER;
FILE_DESCRIPTION(('Open CASCADE Model'),'2;1');
FILE_NAME('Open CASCADE Shape Model','2026-09-01T21:33:46',('Author'),(
    'Open CASCADE'),'Open CASCADE STEP processor 7.8','Open CASCADE 7.8'
  ,'Unknown');
FILE_SCHEMA(('AUTOMOTIVE_DESIGN { 1 0 10303 214 1 1 1 1 }'));
ENDSEC;
DATA;
#1 = APPLICATION_PROTOCOL_DEFINITION('international standard',
  'automotive_design',2000,#2);
#2 = APPLICATION_CONTEXT(
  'core data for automotive mechanical design processes');
#3 = SHAPE_DEFINITION_REPRESENTATION(#4,#10);
#4 = PRODUCT_DEFINITION_SHAPE('','',#5);
#5 = PRODUCT_DEFINITION('design','',#6,#9);
#6 = PRODUCT_DEFINITION_FORMATION('','',#7);
#7 = PRODUCT('Open CASCADE STEP translator 7.8 37',
  'Open CASCADE STEP translator 7.8 37','',(#8));
#8 = PRODUCT_CONTEXT('',#2,'mechanical');
#9 = PRODUCT_DEFINITION_CONTEXT('part definition',#2,'design');
#10 = ADVANCED_BREP_SHAPE_REPRESENTATION('',(#11,#15),#705);
#11 = AXIS2_PLACEMENT_3D('',#12,#13,#14);
#12 = CARTESIAN_POINT('',(0.,0.,0.));
#13 = DIRECTION('',(0.,0.,1.));
#14 = DIRECTION('',(1.,0.,-0.));
#15 = MANIFOLD_SOLID_BREP('',#16);
#16 = CLOSED_SHELL('',(#17,#495,#530,#560,#615,#670,#697,#701));
#17 = ADVANCED_FACE('',(#18,#105,#300),#31,.T.);
#18 = FACE_BOUND('',#19,.T.);
#19 = EDGE_LOOP('',(#20,#54,#77,#104));
#20 = ORIENTED_EDGE('',*,*,#21,.F.);
#21 = EDGE_CURVE('',#22,#22,#24,.T.);
#22 = VERTEX_POINT('',#23);
#23 = CARTESIAN_POINT('',(293.,350.,91.));
#24 = SURFACE_CURVE('',#25,(#30,#42),.PCURVE_S1.);
#25 = CIRCLE('',#26,23.);
#26 = AXIS2_PLACEMENT_3D('',#27,#28,#29);
#27 = CARTESIAN_POINT('',(270.,350.,91.));
#28 = DIRECTION('',(0.,0.,1.));
#29 = DIRECTION('',(1.,0.,-0.));
#30 = PCURVE('',#31,#36);
#31 = CYLINDRICAL_SURFACE('',#32,23.);
#32 = AXIS2_PLACEMENT_3D('',#33,#34,#35);
#33 = CARTESIAN_POINT('',(270.,350.,79.));
#34 = DIRECTION('',(0.,0.,1.));
#35 = DIRECTION('',(1.,0.,-0.));
#36 = DEFINITIONAL_REPRESENTATION('',(#37),#41);
#37 = LINE('',#38,#39);
#38 = CARTESIAN_POINT('',(0.,12.));
#39 = VECTOR('',#40,1.);
#40 = DIRECTION('',(1.,0.));
#41 = ( GEOMETRIC_REPRESENTATION_CONTEXT(2) 
PARAMETRIC_REPRESENTATION_CONTEXT() REPRESENTATION_CONTEXT('2D SPACE',''
  ) );
#42 = PCURVE('',#43,#48);
#43 = PLANE('',#44);
#44 = AXIS2_PLACEMENT_3D('',#45,#46,#47);
#45 = CARTESIAN_POINT('',(270.,350.,91.));
#46 = DIRECTION('',(0.,0.,1.));
#47 = DIRECTION('',(1.,0.,-0.));
#48 = DEFINITIONAL_REPRESENTATION('',(#49),#53);
#49 = CIRCLE('',#50,23.);
#50 = AXIS2_PLACEMENT_2D('',#51,#52);
#51 = CARTESIAN_POINT('',(0.,0.));
#52 = DIRECTION('',(1.,0.));
#53 = ( GEOMETRIC_REPRESENTATION_CONTEXT(2) 
PARAMETRIC_REPRESENTATION_CONTEXT() REPRESENTATION_CONTEXT('2D SPACE',''
  ) );
#54 = ORIENTED_EDGE('',*,*,#55,.F.);
#55 = EDGE_CURVE('',#56,#22,#58,.T.);
#56 = VERTEX_POINT('',#57);
#57 = CARTESIAN_POINT('',(293.,350.,79.));
#58 = SEAM_CURVE('',#59,(#63,#70),.PCURVE_S1.);
#59 = LINE('',#60,#61);
#60 = CARTESIAN_POINT('',(293.,350.,79.));
#61 = VECTOR('',#62,1.);
#62 = DIRECTION('',(0.,0.,1.));
#63 = PCURVE('',#31,#64);
#64 = DEFINITIONAL_REPRESENTATION('',(#65),#69);
#65 = LINE('',#66,#67);
#66 = CARTESIAN_POINT('',(6.28318530718,-0.));
#67 = VECTOR('',#68,1.);
#68 = DIRECTION('',(0.,1.));
#69 = ( GEOMETRIC_REPRESENTATION_CONTEXT(2) 
PARAMETRIC_REPRESENTATION_CONTEXT() REPRESENTATION_CONTEXT('2D SPACE',''
  ) );
#70 = PCURVE('',#31,#71);
#71 = DEFINITIONAL_REPRESENTATION('',(#72),#76);
#72 = LINE('',#73,#74);
#73 = CARTESIAN_POINT('',(0.,-0.));
#74 = VECTOR('',#75,1.);
#75 = DIRECTION('',(0.,1.));
#76 = ( GEOMETRIC_REPRESENTATION_CONTEXT(2) 
PARAMETRIC_REPRESENTATION_CONTEXT() REPRESENTATION_CONTEXT('2D SPACE',''
  ) );
#77 = ORIENTED_EDGE('',*,*,#78,.T.);
#78 = EDGE_CURVE('',#56,#56,#79,.T.);
#79 = SURFACE_CURVE('',#80,(#85,#92),.PCURVE_S1.);
#80 = CIRCLE('',#81,23.);
#81 = AXIS2_PLACEMENT_3D('',#82,#83,#84);
#82 = CARTESIAN_POINT('',(270.,350.,79.));
#83 = DIRECTION('',(0.,0.,1.));
#84 = DIRECTION('',(1.,0.,-0.));
#85 = PCURVE('',#31,#86);
#86 = DEFINITIONAL_REPRESENTATION('',(#87),#91);
#87 = LINE('',#88,#89);
#88 = CARTESIAN_POINT('',(0.,0.));
#89 = VECTOR('',#90,1.);
#90 = DIRECTION('',(1.,0.));
#91 = ( GEOMETRIC_REPRESENTATION_CONTEXT(2) 
PARAMETRIC_REPRESENTATION_CONTEXT() REPRESENTATION_CONTEXT('2D SPACE',''
  ) );
#92 = PCURVE('',#93,#98);
#93 = PLANE('',#94);
#94 = AXIS2_PLACEMENT_3D('',#95,#96,#97);
#95 = CARTESIAN_POINT('',(270.,350.,79.));
#96 = DIRECTION('',(0.,0.,1.));
#97 = DIRECTION('',(1.,0.,-0.));
#98 = DEFINITIONAL_REPRESENTATION('',(#99),#103);
#99 = CIRCLE('',#100,23.);
#100 = AXIS2_PLACEMENT_2D('',#101,#102);
#101 = CARTESIAN_POINT('',(0.,0.));
#102 = DIRECTION('',(1.,0.));
#103 = ( GEOMETRIC_REPRESENTATION_CONTEXT(2) 
PARAMETRIC_REPRESENTATION_CONTEXT() REPRESENTATION_CONTEXT('2D SPACE',''
  ) );
#104 = ORIENTED_EDGE('',*,*,#55,.T.);
#105 = FACE_BOUND('',#106,.T.);
#106 = EDGE_LOOP('',(#107));
#107 = ORIENTED_EDGE('',*,*,#108,.F.);
#108 = EDGE_CURVE('',#109,#109,#111,.T.);
#109 = VERTEX_POINT('',#110);
#110 = CARTESIAN_POINT('',(270.,373.,87.5));
#111 = SURFACE_CURVE('',#112,(#171,#233),.PCURVE_S1.);
#112 = B_SPLINE_CURVE_WITH_KNOTS('',8,(#113,#114,#115,#116,#117,#118,
    #119,#120,#121,#122,#123,#124,#125,#126,#127,#128,#129,#130,#131,
    #132,#133,#134,#135,#136,#137,#138,#139,#140,#141,#142,#143,#144,
    #145,#146,#147,#148,#149,#150,#151,#152,#153,#154,#155,#156,#157,
    #158,#159,#160,#161,#162,#163,#164,#165,#166,#167,#168,#169,#170),
  .UNSPECIFIED.,.T.,.F.,(9,7,7,7,7,7,7,7,9),(0.,0.137157640189,
    0.280702585603,0.452630266823,0.598485426404,0.692592373222,
    0.796109614301,0.900396325337,1.),.UNSPECIFIED.);
#113 = CARTESIAN_POINT('',(270.,373.,87.5));
#114 = CARTESIAN_POINT('',(270.2920009945,373.,87.5));
#115 = CARTESIAN_POINT('',(270.57683531016,372.99576320335,
    87.461022369474));
#116 = CARTESIAN_POINT('',(270.84868116659,372.9876538589,
    87.386412584089));
#117 = CARTESIAN_POINT('',(271.10256435576,372.97649116953,
    87.280360003291));
#118 = CARTESIAN_POINT('',(271.33444383395,372.9633964773,
    87.147873155444));
#119 = CARTESIAN_POINT('',(271.54137271433,372.94955496141,
    86.994740382785));
#120 = CARTESIAN_POINT('',(271.72169990961,372.93598686333,
    86.827479442887));
#121 = CARTESIAN_POINT('',(272.03600741385,372.91027456727,
    86.470967560124));
#122 = CARTESIAN_POINT('',(272.17136289019,372.89790503607,
    86.276603527056));
#123 = CARTESIAN_POINT('',(272.28236441857,372.88694482113,
    86.073575544623));
#124 = CARTESIAN_POINT('',(272.370005155,372.87782468269,85.86440982958)
  );
#125 = CARTESIAN_POINT('',(272.43513198601,372.87081968115,
    85.651036535359));
#126 = CARTESIAN_POINT('',(272.47835923277,372.86609299025,
    85.434991934238));
#127 = CARTESIAN_POINT('',(272.5,372.86372673034,85.217577961272));
#128 = CARTESIAN_POINT('',(272.5,372.86372673034,84.739400964221));
#129 = CARTESIAN_POINT('',(272.46895425202,372.86712115632,
    84.479206874097));
#130 = CARTESIAN_POINT('',(272.40703383794,372.87389261181,
    84.221347252687));
#131 = CARTESIAN_POINT('',(272.31352850969,372.88387668766,
    83.967954545222));
#132 = CARTESIAN_POINT('',(272.18713755693,372.89674789311,
    83.721853755005));
#133 = CARTESIAN_POINT('',(272.02615688808,372.91191478895,
    83.48687350363));
#134 = CARTESIAN_POINT('',(271.82875868284,372.92839346631,
    83.268290186311));
#135 = CARTESIAN_POINT('',(271.39402872428,372.95858638235,
    82.90865028752));
#136 = CARTESIAN_POINT('',(271.15952015092,372.97288099763,
    82.75443294792));
#137 = CARTESIAN_POINT('',(270.8934765869,372.98615470518,
    82.624696898712));
#138 = CARTESIAN_POINT('',(270.60235442257,372.99664359166,
    82.529650817694));
#139 = CARTESIAN_POINT('',(270.29507639008,373.00270759425,82.4760898026
    ));
#140 = CARTESIAN_POINT('',(269.98182238217,373.00359400701,
    82.467289314069));
#141 = CARTESIAN_POINT('',(269.67304069146,372.99956625225,
    82.502859203504));
#142 = CARTESIAN_POINT('',(269.18809021915,372.98645251697,
    82.627373321734));
#143 = CARTESIAN_POINT('',(269.00228994689,372.97962909202,
    82.693275544054));
#144 = CARTESIAN_POINT('',(268.82266871527,372.97131662613,
    82.77578719729));
#145 = CARTESIAN_POINT('',(268.65094923282,372.96179611205,
    82.874223169638));
#146 = CARTESIAN_POINT('',(268.48876029962,372.95141968237,
    82.987688578597));
#147 = CARTESIAN_POINT('',(268.33761195568,372.94058639067,
    83.115091999737));
#148 = CARTESIAN_POINT('',(268.19886814468,372.92971211148,
    83.255158150018));
#149 = CARTESIAN_POINT('',(267.93605104878,372.90762319588,
    83.572849445102));
#150 = CARTESIAN_POINT('',(267.81479614001,372.89648066875,
    83.752873300171));
#151 = CARTESIAN_POINT('',(267.71155007614,372.88629424639,
    83.944595434918));
#152 = CARTESIAN_POINT('',(267.62761298318,372.8775677184,
    84.145895580866));
#153 = CARTESIAN_POINT('',(267.56397914182,372.87072278542,
    84.354498667523));
#154 = CARTESIAN_POINT('',(267.52132596286,372.86605835317,
    84.56802097728));
#155 = CARTESIAN_POINT('',(267.5,372.86372673034,84.784013144671));
#156 = CARTESIAN_POINT('',(267.5,372.86372673034,85.217592340509));
#157 = CARTESIAN_POINT('',(267.52164358073,372.86609329559,
    85.43500626803));
#158 = CARTESIAN_POINT('',(267.56487163642,372.87082008129,
    85.651044410113));
#159 = CARTESIAN_POINT('',(267.62999660722,372.87782484394,
    85.86441083474));
#160 = CARTESIAN_POINT('',(267.71763465596,372.8869446959,
    86.073572820288));
#161 = CARTESIAN_POINT('',(267.8286351037,372.89790486261,
    86.276600884303));
#162 = CARTESIAN_POINT('',(267.9639919528,372.91027451546,86.47096684174
    ));
#163 = CARTESIAN_POINT('',(268.2782350375,372.93598154161,
    86.827405654876));
#164 = CARTESIAN_POINT('',(268.45855695135,372.9495502098,
    86.994692231496));
#165 = CARTESIAN_POINT('',(268.6655350116,372.96339644548,87.14788259651
    ));
#166 = CARTESIAN_POINT('',(268.89749611311,372.97649634383,
    87.280414256675));
#167 = CARTESIAN_POINT('',(269.15145972639,372.98766080134,
    87.386476371744));
#168 = CARTESIAN_POINT('',(269.42334530111,372.99576731999,
    87.461060262458));
#169 = CARTESIAN_POINT('',(269.70814096065,373.,87.5));
#170 = CARTESIAN_POINT('',(270.,373.,87.5));
#171 = PCURVE('',#31,#172);
#172 = DEFINITIONAL_REPRESENTATION('',(#173),#232);
#173 = B_SPLINE_CURVE_WITH_KNOTS('',8,(#174,#175,#176,#177,#178,#179,
    #180,#181,#182,#183,#184,#185,#186,#187,#188,#189,#190,#191,#192,
    #193,#194,#195,#196,#197,#198,#199,#200,#201,#202,#203,#204,#205,
    #206,#207,#208,#209,#210,#211,#212,#213,#214,#215,#216,#217,#218,
    #219,#220,#221,#222,#223,#224,#225,#226,#227,#228,#229,#230,#231),
  .UNSPECIFIED.,.T.,.F.,(9,7,7,7,7,7,7,7,9),(0.,0.137157640189,
    0.280702585603,0.452630266823,0.598485426404,0.692592373222,
    0.796109614301,0.900396325337,1.),.UNSPECIFIED.);
#174 = CARTESIAN_POINT('',(1.570796326795,8.5));
#175 = CARTESIAN_POINT('',(1.558100631381,8.5));
#176 = CARTESIAN_POINT('',(1.545716526722,8.461022369474));
#177 = CARTESIAN_POINT('',(1.53389404086,8.386412584089));
#178 = CARTESIAN_POINT('',(1.52284689558,8.280360003291));
#179 = CARTESIAN_POINT('',(1.512750303392,8.147873155444));
#180 = CARTESIAN_POINT('',(1.503733811221,7.994740382785));
#181 = CARTESIAN_POINT('',(1.495871507242,7.827479442887));
#182 = CARTESIAN_POINT('',(1.482160313204,7.470967560124));
#183 = CARTESIAN_POINT('',(1.476251036669,7.276603527056));
#184 = CARTESIAN_POINT('',(1.471401573675,7.073575544623));
#185 = CARTESIAN_POINT('',(1.46757057994,6.86440982958));
#186 = CARTESIAN_POINT('',(1.464722652801,6.651036535359));
#187 = CARTESIAN_POINT('',(1.462832004002,6.434991934238));
#188 = CARTESIAN_POINT('',(1.461885493374,6.217577961272));
#189 = CARTESIAN_POINT('',(1.461885493374,5.739400964221));
#190 = CARTESIAN_POINT('',(1.463243352629,5.479206874097));
#191 = CARTESIAN_POINT('',(1.465951595441,5.221347252687));
#192 = CARTESIAN_POINT('',(1.47004013712,4.967954545222));
#193 = CARTESIAN_POINT('',(1.475563675011,4.721853755005));
#194 = CARTESIAN_POINT('',(1.48259334689,4.48687350363));
#195 = CARTESIAN_POINT('',(1.491204892903,4.268290186311));
#196 = CARTESIAN_POINT('',(1.510151726738,3.90865028752));
#197 = CARTESIAN_POINT('',(1.520366308685,3.75443294792));
#198 = CARTESIAN_POINT('',(1.531946621529,3.624696898712));
#199 = CARTESIAN_POINT('',(1.54460973574,3.529650817694));
#200 = CARTESIAN_POINT('',(1.557968493041,3.476089802601));
#201 = CARTESIAN_POINT('',(1.571585440817,3.467289314069));
#202 = CARTESIAN_POINT('',(1.585010557118,3.502859203504));
#203 = CARTESIAN_POINT('',(1.606103067846,3.627373321734));
#204 = CARTESIAN_POINT('',(1.614186408286,3.693275544054));
#205 = CARTESIAN_POINT('',(1.622003804314,3.77578719729));
#206 = CARTESIAN_POINT('',(1.629480753842,3.874223169638));
#207 = CARTESIAN_POINT('',(1.636546424523,3.987688578597));
#208 = CARTESIAN_POINT('',(1.643134699418,4.115091999737));
#209 = CARTESIAN_POINT('',(1.649185442818,4.255158150018));
#210 = CARTESIAN_POINT('',(1.66065256077,4.572849445102));
#211 = CARTESIAN_POINT('',(1.665946560998,4.752873300171));
#212 = CARTESIAN_POINT('',(1.670457183229,4.944595434918));
#213 = CARTESIAN_POINT('',(1.674126230911,5.145895580866));
#214 = CARTESIAN_POINT('',(1.676908871869,5.354498667523));
#215 = CARTESIAN_POINT('',(1.678774422687,5.56802097728));
#216 = CARTESIAN_POINT('',(1.679707160216,5.784013144671));
#217 = CARTESIAN_POINT('',(1.679707160216,6.217592340509));
#218 = CARTESIAN_POINT('',(1.678760526557,6.43500626803));
#219 = CARTESIAN_POINT('',(1.676869842319,6.651044410113));
#220 = CARTESIAN_POINT('',(1.674021996713,6.86441083474));
#221 = CARTESIAN_POINT('',(1.670191120515,7.073572820287));
#222 = CARTESIAN_POINT('',(1.665341704448,7.276600884303));
#223 = CARTESIAN_POINT('',(1.659432368014,7.47096684174));
#224 = CARTESIAN_POINT('',(1.645723984182,7.827405654876));
#225 = CARTESIAN_POINT('',(1.637861907166,7.994692231496));
#226 = CARTESIAN_POINT('',(1.628843267228,8.14788259651));
#227 = CARTESIAN_POINT('',(1.618743121163,8.280414256675));
#228 = CARTESIAN_POINT('',(1.607692482053,8.386476371744));
#229 = CARTESIAN_POINT('',(1.595868274287,8.461060262458));
#230 = CARTESIAN_POINT('',(1.583485850245,8.5));
#231 = CARTESIAN_POINT('',(1.570796326795,8.5));
#232 = ( GEOMETRIC_REPRESENTATION_CONTEXT(2) 
PARAMETRIC_REPRESENTATION_CONTEXT() REPRESENTATION_CONTEXT('2D SPACE',''
  ) );
#233 = PCURVE('',#234,#239);
#234 = CYLINDRICAL_SURFACE('',#235,2.5);
#235 = AXIS2_PLACEMENT_3D('',#236,#237,#238);
#236 = CARTESIAN_POINT('',(270.,372.,85.));
#237 = DIRECTION('',(0.,1.,0.));
#238 = DIRECTION('',(0.,-0.,1.));
#239 = DEFINITIONAL_REPRESENTATION('',(#240),#299);
#240 = B_SPLINE_CURVE_WITH_KNOTS('',8,(#241,#242,#243,#244,#245,#246,
    #247,#248,#249,#250,#251,#252,#253,#254,#255,#256,#257,#258,#259,
    #260,#261,#262,#263,#264,#265,#266,#267,#268,#269,#270,#271,#272,
    #273,#274,#275,#276,#277,#278,#279,#280,#281,#282,#283,#284,#285,
    #286,#287,#288,#289,#290,#291,#292,#293,#294,#295,#296,#297,#298),
  .UNSPECIFIED.,.F.,.F.,(9,7,7,7,7,7,7,7,9),(0.,0.137157640189,
    0.280702585603,0.452630266823,0.598485426404,0.692592373222,
    0.796109614301,0.900396325337,1.),.UNSPECIFIED.);
#241 = CARTESIAN_POINT('',(0.,1.));
#242 = CARTESIAN_POINT('',(0.116800397803,1.));
#243 = CARTESIAN_POINT('',(0.230734059026,0.995763203355));
#244 = CARTESIAN_POINT('',(0.341900620691,0.987653858902));
#245 = CARTESIAN_POINT('',(0.450237895089,0.976491169534));
#246 = CARTESIAN_POINT('',(0.555544885817,0.963396477301));
#247 = CARTESIAN_POINT('',(0.6574504648,0.949554961413));
#248 = CARTESIAN_POINT('',(0.755337224118,0.935986863339));
#249 = CARTESIAN_POINT('',(0.945448740771,0.910274567275));
#250 = CARTESIAN_POINT('',(1.039571565583,0.897905036079));
#251 = CARTESIAN_POINT('',(1.131251240108,0.886944821137));
#252 = CARTESIAN_POINT('',(1.221020894059,0.877824682692));
#253 = CARTESIAN_POINT('',(1.309376846949,0.870819681155));
#254 = CARTESIAN_POINT('',(1.396799684853,0.866092990258));
#255 = CARTESIAN_POINT('',(1.483765142286,0.863726730347));
#256 = CARTESIAN_POINT('',(1.675035941106,0.863726730347));
#257 = CARTESIAN_POINT('',(1.779113117772,0.867121156324));
#258 = CARTESIAN_POINT('',(1.88398459789,0.873892611819));
#259 = CARTESIAN_POINT('',(1.990494872502,0.883876687668));
#260 = CARTESIAN_POINT('',(2.099472402784,0.896747893114));
#261 = CARTESIAN_POINT('',(2.211770452195,0.911914788957));
#262 = CARTESIAN_POINT('',(2.328342508022,0.928393466316));
#263 = CARTESIAN_POINT('',(2.554025823727,0.958586382356));
#264 = CARTESIAN_POINT('',(2.6656235632,0.972880997633));
#265 = CARTESIAN_POINT('',(2.782390414097,0.986154705181));
#266 = CARTESIAN_POINT('',(2.902536710778,0.996643591665));
#267 = CARTESIAN_POINT('',(3.024781855845,1.00270759425));
#268 = CARTESIAN_POINT('',(3.148018577826,1.003594007011));
#269 = CARTESIAN_POINT('',(3.271189512958,0.999566252255));
#270 = CARTESIAN_POINT('',(3.471461618349,0.986452516972));
#271 = CARTESIAN_POINT('',(3.550002427488,0.979629092026));
#272 = CARTESIAN_POINT('',(3.628540104657,0.971316626134));
#273 = CARTESIAN_POINT('',(3.707076639192,0.961796112055));
#274 = CARTESIAN_POINT('',(3.785615462644,0.951419682371));
#275 = CARTESIAN_POINT('',(3.864158464183,0.940586390672));
#276 = CARTESIAN_POINT('',(3.942702957122,0.929712111483));
#277 = CARTESIAN_POINT('',(4.10762746585,0.907623195887));
#278 = CARTESIAN_POINT('',(4.194027905877,0.896480668759));
#279 = CARTESIAN_POINT('',(4.280425197279,0.886294246392));
#280 = CARTESIAN_POINT('',(4.366816490125,0.877567718403));
#281 = CARTESIAN_POINT('',(4.453205532567,0.870722785424));
#282 = CARTESIAN_POINT('',(4.539597544781,0.866058353173));
#283 = CARTESIAN_POINT('',(4.625994238253,0.863726730347));
#284 = CARTESIAN_POINT('',(4.799425916588,0.863726730347));
#285 = CARTESIAN_POINT('',(4.886391342843,0.866093295597));
#286 = CARTESIAN_POINT('',(4.97381181829,0.870820081296));
#287 = CARTESIAN_POINT('',(5.06216507371,0.877824843946));
#288 = CARTESIAN_POINT('',(5.151932969488,0.886944695903));
#289 = CARTESIAN_POINT('',(5.243612424443,0.897904862614));
#290 = CARTESIAN_POINT('',(5.337736183327,0.910274515463));
#291 = CARTESIAN_POINT('',(5.527808735282,0.935981541611));
#292 = CARTESIAN_POINT('',(5.625701801128,0.949550209805));
#293 = CARTESIAN_POINT('',(5.727636067153,0.963396445486));
#294 = CARTESIAN_POINT('',(5.832978120546,0.976496343831));
#295 = CARTESIAN_POINT('',(5.94134454274,0.987660801349));
#296 = CARTESIAN_POINT('',(6.052523503575,0.995767319992));
#297 = CARTESIAN_POINT('',(6.166441691441,1.));
#298 = CARTESIAN_POINT('',(6.28318530718,1.));
#299 = ( GEOMETRIC_REPRESENTATION_CONTEXT(2) 
PARAMETRIC_REPRESENTATION_CONTEXT() REPRESENTATION_CONTEXT('2D SPACE',''
  ) );
#300 = FACE_BOUND('',#301,.T.);
#301 = EDGE_LOOP('',(#302));
#302 = ORIENTED_EDGE('',*,*,#303,.T.);
#303 = EDGE_CURVE('',#304,#304,#306,.T.);
#304 = VERTEX_POINT('',#305);
#305 = CARTESIAN_POINT('',(270.,327.,87.5));
#306 = SURFACE_CURVE('',#307,(#366,#428),.PCURVE_S1.);
#307 = B_SPLINE_CURVE_WITH_KNOTS('',8,(#308,#309,#310,#311,#312,#313,
    #314,#315,#316,#317,#318,#319,#320,#321,#322,#323,#324,#325,#326,
    #327,#328,#329,#330,#331,#332,#333,#334,#335,#336,#337,#338,#339,
    #340,#341,#342,#343,#344,#345,#346,#347,#348,#349,#350,#351,#352,
    #353,#354,#355,#356,#357,#358,#359,#360,#361,#362,#363,#364,#365),
  .UNSPECIFIED.,.T.,.F.,(9,7,7,7,7,7,7,7,9),(0.,0.137157639778,
    0.280702584744,0.452630268717,0.598485427794,0.692592374287,
    0.796109615007,0.900396325683,1.),.UNSPECIFIED.);
#308 = CARTESIAN_POINT('',(270.,327.,87.5));
#309 = CARTESIAN_POINT('',(270.29200099453,327.,87.5));
#310 = CARTESIAN_POINT('',(270.57683531014,327.00423679664,
    87.461022369466));
#311 = CARTESIAN_POINT('',(270.84868116656,327.01234614109,
    87.386412584099));
#312 = CARTESIAN_POINT('',(271.10256435577,327.02350883046,
    87.280360003303));
#313 = CARTESIAN_POINT('',(271.33444383398,327.0366035227,
    87.147873155431));
#314 = CARTESIAN_POINT('',(271.54137271434,327.05044503858,
    86.994740382764));
#315 = CARTESIAN_POINT('',(271.72169990959,327.06401313665,
    86.82747944291));
#316 = CARTESIAN_POINT('',(272.03600741385,327.08972543272,
    86.470967560124));
#317 = CARTESIAN_POINT('',(272.17136289019,327.10209496392,
    86.276603527056));
#318 = CARTESIAN_POINT('',(272.28236441857,327.11305517886,
    86.073575544623));
#319 = CARTESIAN_POINT('',(272.370005155,327.1221753173,85.86440982958)
  );
#320 = CARTESIAN_POINT('',(272.43513198601,327.12918031884,
    85.651036535359));
#321 = CARTESIAN_POINT('',(272.47835923277,327.13390700974,
    85.434991934238));
#322 = CARTESIAN_POINT('',(272.5,327.13627326965,85.217577961272));
#323 = CARTESIAN_POINT('',(272.5,327.13627326965,84.739400959233));
#324 = CARTESIAN_POINT('',(272.46895425553,327.13287884394,
    84.479206888563));
#325 = CARTESIAN_POINT('',(272.40703383017,327.12610738758,
    84.221347237745));
#326 = CARTESIAN_POINT('',(272.3135285129,327.11612331255,
    83.967954544425));
#327 = CARTESIAN_POINT('',(272.18713756454,327.10325210746,
    83.721853770005));
#328 = CARTESIAN_POINT('',(272.02615687754,327.08808521027,
    83.486873490932));
#329 = CARTESIAN_POINT('',(271.82875868742,327.071606534,83.268290190101
    ));
#330 = CARTESIAN_POINT('',(271.39402872428,327.04141361764,
    82.90865028752));
#331 = CARTESIAN_POINT('',(271.15952015092,327.02711900236,
    82.75443294792));
#332 = CARTESIAN_POINT('',(270.8934765869,327.01384529481,
    82.624696898711));
#333 = CARTESIAN_POINT('',(270.60235442257,327.00335640833,
    82.529650817695));
#334 = CARTESIAN_POINT('',(270.29507639007,326.99729240574,82.4760898026
    ));
#335 = CARTESIAN_POINT('',(269.98182238218,326.99640599298,
    82.467289314069));
#336 = CARTESIAN_POINT('',(269.67304069146,327.00043374774,
    82.502859203504));
#337 = CARTESIAN_POINT('',(269.18809021915,327.01354748302,
    82.627373321734));
#338 = CARTESIAN_POINT('',(269.00228994689,327.02037090797,
    82.693275544054));
#339 = CARTESIAN_POINT('',(268.82266871527,327.02868337386,
    82.77578719729));
#340 = CARTESIAN_POINT('',(268.65094923282,327.03820388794,
    82.874223169638));
#341 = CARTESIAN_POINT('',(268.48876029962,327.04858031762,
    82.987688578597));
#342 = CARTESIAN_POINT('',(268.33761195568,327.05941360932,
    83.115091999737));
#343 = CARTESIAN_POINT('',(268.19886814468,327.07028788851,
    83.255158150018));
#344 = CARTESIAN_POINT('',(267.93605104878,327.09237680411,
    83.572849445102));
#345 = CARTESIAN_POINT('',(267.81479614001,327.10351933124,
    83.752873300171));
#346 = CARTESIAN_POINT('',(267.71155007614,327.1137057536,
    83.944595434918));
#347 = CARTESIAN_POINT('',(267.62761298318,327.12243228159,
    84.145895580866));
#348 = CARTESIAN_POINT('',(267.56397914182,327.12927721457,
    84.354498667523));
#349 = CARTESIAN_POINT('',(267.52132596286,327.13394164682,
    84.56802097728));
#350 = CARTESIAN_POINT('',(267.5,327.13627326965,84.784013144671));
#351 = CARTESIAN_POINT('',(267.5,327.13627326965,85.217592340508));
#352 = CARTESIAN_POINT('',(267.52164358073,327.1339067044,85.43500626803
    ));
#353 = CARTESIAN_POINT('',(267.56487163642,327.1291799187,
    85.651044410113));
#354 = CARTESIAN_POINT('',(267.62999660722,327.12217515605,
    85.86441083474));
#355 = CARTESIAN_POINT('',(267.71763465596,327.11305530409,
    86.073572820288));
#356 = CARTESIAN_POINT('',(267.8286351037,327.10209513738,
    86.276600884303));
#357 = CARTESIAN_POINT('',(267.9639919528,327.08972548453,86.47096684174
    ));
#358 = CARTESIAN_POINT('',(268.2782350375,327.06401845838,
    86.827405654875));
#359 = CARTESIAN_POINT('',(268.45855695135,327.05044979019,
    86.994692231496));
#360 = CARTESIAN_POINT('',(268.6655350116,327.03660355451,
    87.147882596511));
#361 = CARTESIAN_POINT('',(268.89749611311,327.02350365616,
    87.280414256675));
#362 = CARTESIAN_POINT('',(269.15145972639,327.01233919865,
    87.386476371744));
#363 = CARTESIAN_POINT('',(269.42334530111,327.00423268,87.461060262458)
  );
#364 = CARTESIAN_POINT('',(269.70814096065,327.,87.5));
#365 = CARTESIAN_POINT('',(270.,327.,87.5));
#366 = PCURVE('',#31,#367);
#367 = DEFINITIONAL_REPRESENTATION('',(#368),#427);
#368 = B_SPLINE_CURVE_WITH_KNOTS('',8,(#369,#370,#371,#372,#373,#374,
    #375,#376,#377,#378,#379,#380,#381,#382,#383,#384,#385,#386,#387,
    #388,#389,#390,#391,#392,#393,#394,#395,#396,#397,#398,#399,#400,
    #401,#402,#403,#404,#405,#406,#407,#408,#409,#410,#411,#412,#413,
    #414,#415,#416,#417,#418,#419,#420,#421,#422,#423,#424,#425,#426),
  .UNSPECIFIED.,.T.,.F.,(9,7,7,7,7,7,7,7,9),(0.,0.137157639778,
    0.280702584744,0.452630268717,0.598485427794,0.692592374287,
    0.796109615007,0.900396325683,1.),.UNSPECIFIED.);
#369 = CARTESIAN_POINT('',(4.712388980385,8.5));
#370 = CARTESIAN_POINT('',(4.725084675799,8.5));
#371 = CARTESIAN_POINT('',(4.737468780457,8.461022369466));
#372 = CARTESIAN_POINT('',(4.749291266318,8.3864125841));
#373 = CARTESIAN_POINT('',(4.7603384116,8.280360003303));
#374 = CARTESIAN_POINT('',(4.770435003789,8.147873155431));
#375 = CARTESIAN_POINT('',(4.77945149596,7.994740382764));
#376 = CARTESIAN_POINT('',(4.787313799936,7.82747944291));
#377 = CARTESIAN_POINT('',(4.801024993975,7.470967560124));
#378 = CARTESIAN_POINT('',(4.80693427051,7.276603527056));
#379 = CARTESIAN_POINT('',(4.811783733504,7.073575544623));
#380 = CARTESIAN_POINT('',(4.81561472724,6.86440982958));
#381 = CARTESIAN_POINT('',(4.818462654379,6.651036535359));
#382 = CARTESIAN_POINT('',(4.820353303178,6.434991934238));
#383 = CARTESIAN_POINT('',(4.821299813805,6.217577961272));
#384 = CARTESIAN_POINT('',(4.821299813805,5.739400959233));
#385 = CARTESIAN_POINT('',(4.819941954703,5.479206888563));
#386 = CARTESIAN_POINT('',(4.8172337114,5.221347237745));
#387 = CARTESIAN_POINT('',(4.813145170199,4.967954544425));
#388 = CARTESIAN_POINT('',(4.807621632501,4.721853770005));
#389 = CARTESIAN_POINT('',(4.80059195983,4.486873490932));
#390 = CARTESIAN_POINT('',(4.791980414476,4.268290190101));
#391 = CARTESIAN_POINT('',(4.773033580442,3.90865028752));
#392 = CARTESIAN_POINT('',(4.762818998495,3.75443294792));
#393 = CARTESIAN_POINT('',(4.751238685651,3.624696898711));
#394 = CARTESIAN_POINT('',(4.738575571439,3.529650817695));
#395 = CARTESIAN_POINT('',(4.725216814138,3.4760898026));
#396 = CARTESIAN_POINT('',(4.711599866362,3.467289314069));
#397 = CARTESIAN_POINT('',(4.698174750061,3.502859203504));
#398 = CARTESIAN_POINT('',(4.677082239334,3.627373321734));
#399 = CARTESIAN_POINT('',(4.668998898894,3.693275544054));
#400 = CARTESIAN_POINT('',(4.661181502865,3.77578719729));
#401 = CARTESIAN_POINT('',(4.653704553338,3.874223169638));
#402 = CARTESIAN_POINT('',(4.646638882657,3.987688578597));
#403 = CARTESIAN_POINT('',(4.640050607761,4.115091999737));
#404 = CARTESIAN_POINT('',(4.633999864362,4.255158150018));
#405 = CARTESIAN_POINT('',(4.62253274641,4.572849445102));
#406 = CARTESIAN_POINT('',(4.617238746182,4.752873300171));
#407 = CARTESIAN_POINT('',(4.61272812395,4.944595434918));
#408 = CARTESIAN_POINT('',(4.609059076269,5.145895580866));
#409 = CARTESIAN_POINT('',(4.606276435311,5.354498667523));
#410 = CARTESIAN_POINT('',(4.604410884492,5.56802097728));
#411 = CARTESIAN_POINT('',(4.603478146964,5.784013144671));
#412 = CARTESIAN_POINT('',(4.603478146964,6.217592340508));
#413 = CARTESIAN_POINT('',(4.604424780623,6.43500626803));
#414 = CARTESIAN_POINT('',(4.606315464861,6.651044410112));
#415 = CARTESIAN_POINT('',(4.609163310467,6.86441083474));
#416 = CARTESIAN_POINT('',(4.612994186665,7.073572820288));
#417 = CARTESIAN_POINT('',(4.617843602732,7.276600884303));
#418 = CARTESIAN_POINT('',(4.623752939165,7.47096684174));
#419 = CARTESIAN_POINT('',(4.637461322998,7.827405654875));
#420 = CARTESIAN_POINT('',(4.645323400014,7.994692231496));
#421 = CARTESIAN_POINT('',(4.654342039952,8.14788259651));
#422 = CARTESIAN_POINT('',(4.664442186017,8.280414256675));
#423 = CARTESIAN_POINT('',(4.675492825127,8.386476371745));
#424 = CARTESIAN_POINT('',(4.687317032893,8.461060262458));
#425 = CARTESIAN_POINT('',(4.699699456935,8.5));
#426 = CARTESIAN_POINT('',(4.712388980385,8.5));
#427 = ( GEOMETRIC_REPRESENTATION_CONTEXT(2) 
PARAMETRIC_REPRESENTATION_CONTEXT() REPRESENTATION_CONTEXT('2D SPACE',''
  ) );
#428 = PCURVE('',#429,#434);
#429 = CYLINDRICAL_SURFACE('',#430,2.5);
#430 = AXIS2_PLACEMENT_3D('',#431,#432,#433);
#431 = CARTESIAN_POINT('',(270.,321.,85.));
#432 = DIRECTION('',(0.,1.,0.));
#433 = DIRECTION('',(0.,-0.,1.));
#434 = DEFINITIONAL_REPRESENTATION('',(#435),#494);
#435 = B_SPLINE_CURVE_WITH_KNOTS('',8,(#436,#437,#438,#439,#440,#441,
    #442,#443,#444,#445,#446,#447,#448,#449,#450,#451,#452,#453,#454,
    #455,#456,#457,#458,#459,#460,#461,#462,#463,#464,#465,#466,#467,
    #468,#469,#470,#471,#472,#473,#474,#475,#476,#477,#478,#479,#480,
    #481,#482,#483,#484,#485,#486,#487,#488,#489,#490,#491,#492,#493),
  .UNSPECIFIED.,.F.,.F.,(9,7,7,7,7,7,7,7,9),(0.,0.137157639778,
    0.280702584744,0.452630268717,0.598485427794,0.692592374287,
    0.796109615007,0.900396325683,1.),.UNSPECIFIED.);
#436 = CARTESIAN_POINT('',(0.,6.));
#437 = CARTESIAN_POINT('',(0.116800397815,6.));
#438 = CARTESIAN_POINT('',(0.230734059019,6.004236796646));
#439 = CARTESIAN_POINT('',(0.341900620681,6.012346141096));
#440 = CARTESIAN_POINT('',(0.450237895088,6.023508830465));
#441 = CARTESIAN_POINT('',(0.555544885827,6.036603522701));
#442 = CARTESIAN_POINT('',(0.657450464809,6.050445038588));
#443 = CARTESIAN_POINT('',(0.755337224106,6.064013136659));
#444 = CARTESIAN_POINT('',(0.945448740771,6.089725432725));
#445 = CARTESIAN_POINT('',(1.039571565583,6.102094963921));
#446 = CARTESIAN_POINT('',(1.131251240108,6.113055178863));
#447 = CARTESIAN_POINT('',(1.221020894059,6.122175317308));
#448 = CARTESIAN_POINT('',(1.309376846949,6.129180318845));
#449 = CARTESIAN_POINT('',(1.396799684853,6.133907009742));
#450 = CARTESIAN_POINT('',(1.483765142286,6.136273269653));
#451 = CARTESIAN_POINT('',(1.675035943102,6.136273269653));
#452 = CARTESIAN_POINT('',(1.779113111429,6.132878843948));
#453 = CARTESIAN_POINT('',(1.883984605152,6.126107387588));
#454 = CARTESIAN_POINT('',(1.990494872222,6.116123312558));
#455 = CARTESIAN_POINT('',(2.099472395532,6.103252107469));
#456 = CARTESIAN_POINT('',(2.211770459147,6.088085210277));
#457 = CARTESIAN_POINT('',(2.328342505643,6.071606534003));
#458 = CARTESIAN_POINT('',(2.554025823727,6.041413617644));
#459 = CARTESIAN_POINT('',(2.665623563199,6.027119002367));
#460 = CARTESIAN_POINT('',(2.782390414098,6.013845294819));
#461 = CARTESIAN_POINT('',(2.902536710776,6.003356408335));
#462 = CARTESIAN_POINT('',(3.024781855846,5.99729240575));
#463 = CARTESIAN_POINT('',(3.148018577825,5.996405992989));
#464 = CARTESIAN_POINT('',(3.271189512958,6.000433747745));
#465 = CARTESIAN_POINT('',(3.471461618349,6.013547483028));
#466 = CARTESIAN_POINT('',(3.550002427487,6.020370907974));
#467 = CARTESIAN_POINT('',(3.628540104657,6.028683373866));
#468 = CARTESIAN_POINT('',(3.707076639192,6.038203887945));
#469 = CARTESIAN_POINT('',(3.785615462644,6.048580317629));
#470 = CARTESIAN_POINT('',(3.864158464183,6.059413609328));
#471 = CARTESIAN_POINT('',(3.942702957122,6.070287888517));
#472 = CARTESIAN_POINT('',(4.10762746585,6.092376804113));
#473 = CARTESIAN_POINT('',(4.194027905878,6.103519331241));
#474 = CARTESIAN_POINT('',(4.280425197279,6.113705753608));
#475 = CARTESIAN_POINT('',(4.366816490125,6.122432281597));
#476 = CARTESIAN_POINT('',(4.453205532567,6.129277214576));
#477 = CARTESIAN_POINT('',(4.539597544781,6.133941646827));
#478 = CARTESIAN_POINT('',(4.625994238253,6.136273269653));
#479 = CARTESIAN_POINT('',(4.799425916588,6.136273269653));
#480 = CARTESIAN_POINT('',(4.886391342843,6.133906704403));
#481 = CARTESIAN_POINT('',(4.97381181829,6.129179918704));
#482 = CARTESIAN_POINT('',(5.06216507371,6.122175156054));
#483 = CARTESIAN_POINT('',(5.151932969487,6.113055304097));
#484 = CARTESIAN_POINT('',(5.243612424444,6.102095137386));
#485 = CARTESIAN_POINT('',(5.337736183327,6.089725484537));
#486 = CARTESIAN_POINT('',(5.527808735282,6.064018458389));
#487 = CARTESIAN_POINT('',(5.625701801128,6.050449790195));
#488 = CARTESIAN_POINT('',(5.727636067153,6.036603554514));
#489 = CARTESIAN_POINT('',(5.832978120546,6.023503656169));
#490 = CARTESIAN_POINT('',(5.94134454274,6.012339198651));
#491 = CARTESIAN_POINT('',(6.052523503575,6.004232680008));
#492 = CARTESIAN_POINT('',(6.16644169144,6.));
#493 = CARTESIAN_POINT('',(6.28318530718,6.));
#494 = ( GEOMETRIC_REPRESENTATION_CONTEXT(2) 
PARAMETRIC_REPRESENTATION_CONTEXT() REPRESENTATION_CONTEXT('2D SPACE',''
  ) );
#495 = ADVANCED_FACE('',(#496,#499),#43,.T.);
#496 = FACE_BOUND('',#497,.T.);
#497 = EDGE_LOOP('',(#498));
#498 = ORIENTED_EDGE('',*,*,#21,.T.);
#499 = FACE_BOUND('',#500,.T.);
#500 = EDGE_LOOP('',(#501));
#501 = ORIENTED_EDGE('',*,*,#502,.F.);
#502 = EDGE_CURVE('',#503,#503,#505,.T.);
#503 = VERTEX_POINT('',#504);
#504 = CARTESIAN_POINT('',(290.,350.,91.));
#505 = SURFACE_CURVE('',#506,(#511,#518),.PCURVE_S1.);
#506 = CIRCLE('',#507,20.);
#507 = AXIS2_PLACEMENT_3D('',#508,#509,#510);
#508 = CARTESIAN_POINT('',(270.,350.,91.));
#509 = DIRECTION('',(0.,0.,1.));
#510 = DIRECTION('',(1.,0.,-0.));
#511 = PCURVE('',#43,#512);
#512 = DEFINITIONAL_REPRESENTATION('',(#513),#517);
#513 = CIRCLE('',#514,20.);
#514 = AXIS2_PLACEMENT_2D('',#515,#516);
#515 = CARTESIAN_POINT('',(0.,0.));
#516 = DIRECTION('',(1.,0.));
#517 = ( GEOMETRIC_REPRESENTATION_CONTEXT(2) 
PARAMETRIC_REPRESENTATION_CONTEXT() REPRESENTATION_CONTEXT('2D SPACE',''
  ) );
#518 = PCURVE('',#519,#524);
#519 = CYLINDRICAL_SURFACE('',#520,20.);
#520 = AXIS2_PLACEMENT_3D('',#521,#522,#523);
#521 = CARTESIAN_POINT('',(270.,350.,73.));
#522 = DIRECTION('',(0.,0.,1.));
#523 = DIRECTION('',(1.,0.,-0.));
#524 = DEFINITIONAL_REPRESENTATION('',(#525),#529);
#525 = LINE('',#526,#527);
#526 = CARTESIAN_POINT('',(0.,18.));
#527 = VECTOR('',#528,1.);
#528 = DIRECTION('',(1.,0.));
#529 = ( GEOMETRIC_REPRESENTATION_CONTEXT(2) 
PARAMETRIC_REPRESENTATION_CONTEXT() REPRESENTATION_CONTEXT('2D SPACE',''
  ) );
#530 = ADVANCED_FACE('',(#531,#534),#93,.F.);
#531 = FACE_BOUND('',#532,.F.);
#532 = EDGE_LOOP('',(#533));
#533 = ORIENTED_EDGE('',*,*,#78,.T.);
#534 = FACE_BOUND('',#535,.F.);
#535 = EDGE_LOOP('',(#536));
#536 = ORIENTED_EDGE('',*,*,#537,.F.);
#537 = EDGE_CURVE('',#538,#538,#540,.T.);
#538 = VERTEX_POINT('',#539);
#539 = CARTESIAN_POINT('',(290.,350.,79.));
#540 = SURFACE_CURVE('',#541,(#546,#553),.PCURVE_S1.);
#541 = CIRCLE('',#542,20.);
#542 = AXIS2_PLACEMENT_3D('',#543,#544,#545);
#543 = CARTESIAN_POINT('',(270.,350.,79.));
#544 = DIRECTION('',(0.,0.,1.));
#545 = DIRECTION('',(1.,0.,-0.));
#546 = PCURVE('',#93,#547);
#547 = DEFINITIONAL_REPRESENTATION('',(#548),#552);
#548 = CIRCLE('',#549,20.);
#549 = AXIS2_PLACEMENT_2D('',#550,#551);
#550 = CARTESIAN_POINT('',(0.,0.));
#551 = DIRECTION('',(1.,0.));
#552 = ( GEOMETRIC_REPRESENTATION_CONTEXT(2) 
PARAMETRIC_REPRESENTATION_CONTEXT() REPRESENTATION_CONTEXT('2D SPACE',''
  ) );
#553 = PCURVE('',#519,#554);
#554 = DEFINITIONAL_REPRESENTATION('',(#555),#559);
#555 = LINE('',#556,#557);
#556 = CARTESIAN_POINT('',(0.,6.));
#557 = VECTOR('',#558,1.);
#558 = DIRECTION('',(1.,0.));
#559 = ( GEOMETRIC_REPRESENTATION_CONTEXT(2) 
PARAMETRIC_REPRESENTATION_CONTEXT() REPRESENTATION_CONTEXT('2D SPACE',''
  ) );
#560 = ADVANCED_FACE('',(#561),#234,.T.);
#561 = FACE_BOUND('',#562,.T.);
#562 = EDGE_LOOP('',(#563,#586,#613,#614));
#563 = ORIENTED_EDGE('',*,*,#564,.T.);
#564 = EDGE_CURVE('',#109,#565,#567,.T.);
#565 = VERTEX_POINT('',#566);
#566 = CARTESIAN_POINT('',(270.,379.,87.5));
#567 = SEAM_CURVE('',#568,(#572,#579),.PCURVE_S1.);
#568 = LINE('',#569,#570);
#569 = CARTESIAN_POINT('',(270.,372.,87.5));
#570 = VECTOR('',#571,1.);
#571 = DIRECTION('',(0.,1.,0.));
#572 = PCURVE('',#234,#573);
#573 = DEFINITIONAL_REPRESENTATION('',(#574),#578);
#574 = LINE('',#575,#576);
#575 = CARTESIAN_POINT('',(6.28318530718,-0.));
#576 = VECTOR('',#577,1.);
#577 = DIRECTION('',(0.,1.));
#578 = ( GEOMETRIC_REPRESENTATION_CONTEXT(2) 
PARAMETRIC_REPRESENTATION_CONTEXT() REPRESENTATION_CONTEXT('2D SPACE',''
  ) );
#579 = PCURVE('',#234,#580);
#580 = DEFINITIONAL_REPRESENTATION('',(#581),#585);
#581 = LINE('',#582,#583);
#582 = CARTESIAN_POINT('',(0.,-0.));
#583 = VECTOR('',#584,1.);
#584 = DIRECTION('',(0.,1.));
#585 = ( GEOMETRIC_REPRESENTATION_CONTEXT(2) 
PARAMETRIC_REPRESENTATION_CONTEXT() REPRESENTATION_CONTEXT('2D SPACE',''
  ) );
#586 = ORIENTED_EDGE('',*,*,#587,.F.);
#587 = EDGE_CURVE('',#565,#565,#588,.T.);
#588 = SURFACE_CURVE('',#589,(#594,#601),.PCURVE_S1.);
#589 = CIRCLE('',#590,2.5);
#590 = AXIS2_PLACEMENT_3D('',#591,#592,#593);
#591 = CARTESIAN_POINT('',(270.,379.,85.));
#592 = DIRECTION('',(0.,1.,0.));
#593 = DIRECTION('',(0.,-0.,1.));
#594 = PCURVE('',#234,#595);
#595 = DEFINITIONAL_REPRESENTATION('',(#596),#600);
#596 = LINE('',#597,#598);
#597 = CARTESIAN_POINT('',(0.,7.));
#598 = VECTOR('',#599,1.);
#599 = DIRECTION('',(1.,0.));
#600 = ( GEOMETRIC_REPRESENTATION_CONTEXT(2) 
PARAMETRIC_REPRESENTATION_CONTEXT() REPRESENTATION_CONTEXT('2D SPACE',''
  ) );
#601 = PCURVE('',#602,#607);
#602 = PLANE('',#603);
#603 = AXIS2_PLACEMENT_3D('',#604,#605,#606);
#604 = CARTESIAN_POINT('',(270.,379.,85.));
#605 = DIRECTION('',(0.,1.,0.));
#606 = DIRECTION('',(0.,-0.,1.));
#607 = DEFINITIONAL_REPRESENTATION('',(#608),#612);
#608 = CIRCLE('',#609,2.5);
#609 = AXIS2_PLACEMENT_2D('',#610,#611);
#610 = CARTESIAN_POINT('',(0.,0.));
#611 = DIRECTION('',(1.,0.));
#612 = ( GEOMETRIC_REPRESENTATION_CONTEXT(2) 
PARAMETRIC_REPRESENTATION_CONTEXT() REPRESENTATION_CONTEXT('2D SPACE',''
  ) );
#613 = ORIENTED_EDGE('',*,*,#564,.F.);
#614 = ORIENTED_EDGE('',*,*,#108,.T.);
#615 = ADVANCED_FACE('',(#616),#429,.T.);
#616 = FACE_BOUND('',#617,.T.);
#617 = EDGE_LOOP('',(#618,#619,#642,#669));
#618 = ORIENTED_EDGE('',*,*,#303,.F.);
#619 = ORIENTED_EDGE('',*,*,#620,.F.);
#620 = EDGE_CURVE('',#621,#304,#623,.T.);
#621 = VERTEX_POINT('',#622);
#622 = CARTESIAN_POINT('',(270.,321.,87.5));
#623 = SEAM_CURVE('',#624,(#628,#635),.PCURVE_S1.);
#624 = LINE('',#625,#626);
#625 = CARTESIAN_POINT('',(270.,321.,87.5));
#626 = VECTOR('',#627,1.);
#627 = DIRECTION('',(0.,1.,0.));
#628 = PCURVE('',#429,#629);
#629 = DEFINITIONAL_REPRESENTATION('',(#630),#634);
#630 = LINE('',#631,#632);
#631 = CARTESIAN_POINT('',(6.28318530718,-0.));
#632 = VECTOR('',#633,1.);
#633 = DIRECTION('',(0.,1.));
#634 = ( GEOMETRIC_REPRESENTATION_CONTEXT(2) 
PARAMETRIC_REPRESENTATION_CONTEXT() REPRESENTATION_CONTEXT('2D SPACE',''
  ) );
#635 = PCURVE('',#429,#636);
#636 = DEFINITIONAL_REPRESENTATION('',(#637),#641);
#637 = LINE('',#638,#639);
#638 = CARTESIAN_POINT('',(0.,-0.));
#639 = VECTOR('',#640,1.);
#640 = DIRECTION('',(0.,1.));
#641 = ( GEOMETRIC_REPRESENTATION_CONTEXT(2) 
PARAMETRIC_REPRESENTATION_CONTEXT() REPRESENTATION_CONTEXT('2D SPACE',''
  ) );
#642 = ORIENTED_EDGE('',*,*,#643,.T.);
#643 = EDGE_CURVE('',#621,#621,#644,.T.);
#644 = SURFACE_CURVE('',#645,(#650,#657),.PCURVE_S1.);
#645 = CIRCLE('',#646,2.5);
#646 = AXIS2_PLACEMENT_3D('',#647,#648,#649);
#647 = CARTESIAN_POINT('',(270.,321.,85.));
#648 = DIRECTION('',(0.,1.,0.));
#649 = DIRECTION('',(0.,-0.,1.));
#650 = PCURVE('',#429,#651);
#651 = DEFINITIONAL_REPRESENTATION('',(#652),#656);
#652 = LINE('',#653,#654);
#653 = CARTESIAN_POINT('',(0.,0.));
#654 = VECTOR('',#655,1.);
#655 = DIRECTION('',(1.,0.));
#656 = ( GEOMETRIC_REPRESENTATION_CONTEXT(2) 
PARAMETRIC_REPRESENTATION_CONTEXT() REPRESENTATION_CONTEXT('2D SPACE',''
  ) );
#657 = PCURVE('',#658,#663);
#658 = PLANE('',#659);
#659 = AXIS2_PLACEMENT_3D('',#660,#661,#662);
#660 = CARTESIAN_POINT('',(270.,321.,85.));
#661 = DIRECTION('',(0.,1.,0.));
#662 = DIRECTION('',(0.,-0.,1.));
#663 = DEFINITIONAL_REPRESENTATION('',(#664),#668);
#664 = CIRCLE('',#665,2.5);
#665 = AXIS2_PLACEMENT_2D('',#666,#667);
#666 = CARTESIAN_POINT('',(0.,0.));
#667 = DIRECTION('',(1.,0.));
#668 = ( GEOMETRIC_REPRESENTATION_CONTEXT(2) 
PARAMETRIC_REPRESENTATION_CONTEXT() REPRESENTATION_CONTEXT('2D SPACE',''
  ) );
#669 = ORIENTED_EDGE('',*,*,#620,.T.);
#670 = ADVANCED_FACE('',(#671),#519,.F.);
#671 = FACE_BOUND('',#672,.F.);
#672 = EDGE_LOOP('',(#673,#674,#695,#696));
#673 = ORIENTED_EDGE('',*,*,#502,.F.);
#674 = ORIENTED_EDGE('',*,*,#675,.F.);
#675 = EDGE_CURVE('',#538,#503,#676,.T.);
#676 = SEAM_CURVE('',#677,(#681,#688),.PCURVE_S1.);
#677 = LINE('',#678,#679);
#678 = CARTESIAN_POINT('',(290.,350.,73.));
#679 = VECTOR('',#680,1.);
#680 = DIRECTION('',(0.,0.,1.));
#681 = PCURVE('',#519,#682);
#682 = DEFINITIONAL_REPRESENTATION('',(#683),#687);
#683 = LINE('',#684,#685);
#684 = CARTESIAN_POINT('',(6.28318530718,-0.));
#685 = VECTOR('',#686,1.);
#686 = DIRECTION('',(0.,1.));
#687 = ( GEOMETRIC_REPRESENTATION_CONTEXT(2) 
PARAMETRIC_REPRESENTATION_CONTEXT() REPRESENTATION_CONTEXT('2D SPACE',''
  ) );
#688 = PCURVE('',#519,#689);
#689 = DEFINITIONAL_REPRESENTATION('',(#690),#694);
#690 = LINE('',#691,#692);
#691 = CARTESIAN_POINT('',(0.,-0.));
#692 = VECTOR('',#693,1.);
#693 = DIRECTION('',(0.,1.));
#694 = ( GEOMETRIC_REPRESENTATION_CONTEXT(2) 
PARAMETRIC_REPRESENTATION_CONTEXT() REPRESENTATION_CONTEXT('2D SPACE',''
  ) );
#695 = ORIENTED_EDGE('',*,*,#537,.T.);
#696 = ORIENTED_EDGE('',*,*,#675,.T.);
#697 = ADVANCED_FACE('',(#698),#602,.T.);
#698 = FACE_BOUND('',#699,.T.);
#699 = EDGE_LOOP('',(#700));
#700 = ORIENTED_EDGE('',*,*,#587,.T.);
#701 = ADVANCED_FACE('',(#702),#658,.F.);
#702 = FACE_BOUND('',#703,.T.);
#703 = EDGE_LOOP('',(#704));
#704 = ORIENTED_EDGE('',*,*,#643,.F.);
#705 = ( GEOMETRIC_REPRESENTATION_CONTEXT(3) 
GLOBAL_UNCERTAINTY_ASSIGNED_CONTEXT((#709)) GLOBAL_UNIT_ASSIGNED_CONTEXT
((#706,#707,#708)) REPRESENTATION_CONTEXT('Context #1',
  '3D Context with UNIT and UNCERTAINTY') );
#706 = ( LENGTH_UNIT() NAMED_UNIT(*) SI_UNIT(.MILLI.,.METRE.) );
#707 = ( NAMED_UNIT(*) PLANE_ANGLE_UNIT() SI_UNIT($,.RADIAN.) );
#708 = ( NAMED_UNIT(*) SI_UNIT($,.STERADIAN.) SOLID_ANGLE_UNIT() );
#709 = UNCERTAINTY_MEASURE_WITH_UNIT(LENGTH_MEASURE(1.E-07),#706,
  'distance_accuracy_value','confusion accuracy');
#710 = PRODUCT_RELATED_PRODUCT_CATEGORY('part',$,(#7));
ENDSEC;
END-ISO-10303-21;
